<svg width="24" height="25" viewBox="0 0 24 25" fill="none" xmlns="http://www.w3.org/2000/svg">
<path d="M3.35288 9.70043C4.00437 6.92301 6.17301 4.75437 8.95043 4.10288C10.9563 3.63237 13.0437 3.63237 15.0496 4.10288C17.827 4.75437 19.9956 6.92301 20.6471 9.70044C21.1176 11.7063 21.1176 13.7937 20.6471 15.7996C19.9956 18.577 17.827 20.7456 15.0496 21.3971C13.0437 21.8676 10.9563 21.8676 8.95044 21.3971C6.17301 20.7456 4.00437 18.577 3.35288 15.7996C2.88237 13.7937 2.88237 11.7063 3.35288 9.70043Z" stroke="#212121" stroke-width="1.5"/>
<path d="M10.1818 12.0459C10.3851 11.5377 10.7878 11.135 11.296 10.9317L13.3337 10.1166C14.15 9.79008 14.9601 10.6002 14.6336 11.4165L13.8185 13.4542C13.6152 13.9624 13.2125 14.3651 12.7043 14.5684L10.6666 15.3834C9.85028 15.71 9.0402 14.8999 9.36673 14.0836L10.1818 12.0459Z" stroke="#212121" stroke-width="1.5" stroke-linecap="round" stroke-linejoin="round"/>
</svg>
