<svg width="24" height="25" viewBox="0 0 24 25" fill="none" xmlns="http://www.w3.org/2000/svg">
<rect x="13" y="7.75" width="4" height="4" rx="2" stroke="#212121" stroke-width="1.5"/>
<path d="M4.71809 17.9514L6.45698 16.2125C8.08199 14.5875 10.7166 14.5875 12.3417 16.2125L14.0805 17.9514M14.0805 17.9514L14.7849 17.247C16.0825 15.9494 18.2143 16.0461 19.3891 17.4559L19.802 17.9514M14.0805 17.9514L16.6812 20.552M3.35288 15.7996C2.88237 13.7937 2.88237 11.7063 3.35288 9.70043C4.00437 6.92301 6.17301 4.75437 8.95043 4.10288C10.9563 3.63237 13.0437 3.63237 15.0496 4.10288C17.827 4.75437 19.9956 6.92301 20.6471 9.70044C21.1176 11.7063 21.1176 13.7937 20.6471 15.7996C19.9956 18.577 17.827 20.7456 15.0496 21.3971C13.0437 21.8676 10.9563 21.8676 8.95044 21.3971C6.17301 20.7456 4.00437 18.577 3.35288 15.7996Z" stroke="#212121" stroke-width="1.5" stroke-linecap="round" stroke-linejoin="round"/>
</svg>
