<svg width="24" height="25" viewBox="0 0 24 25" fill="none" xmlns="http://www.w3.org/2000/svg">
<path d="M20.25 8.25C20.25 8.66421 20.5858 9 21 9C21.4142 9 21.75 8.66421 21.75 8.25H20.25ZM16.5 3C16.0858 3 15.75 3.33579 15.75 3.75C15.75 4.16421 16.0858 4.5 16.5 4.5V3ZM7.5 4.5C7.91421 4.5 8.25 4.16421 8.25 3.75C8.25 3.33579 7.91421 3 7.5 3V4.5ZM2.25 8.25C2.25 8.66421 2.58579 9 3 9C3.41421 9 3.75 8.66421 3.75 8.25H2.25ZM6.6329 12.2347C6.25438 12.4029 6.08391 12.8461 6.25214 13.2246C6.42037 13.6032 6.86359 13.7736 7.2421 13.6054L6.6329 12.2347ZM7.88785 12.4977L7.58324 11.8123L7.88785 12.4977ZM16.1122 12.4977L15.8075 13.183L16.1122 12.4977ZM16.7579 13.6054C17.1364 13.7736 17.5796 13.6032 17.7479 13.2246C17.9161 12.8461 17.7456 12.4029 17.3671 12.2347L16.7579 13.6054ZM15.5765 21.3441L15.7239 22.0795L15.5765 21.3441ZM15.0158 21.4565L14.8684 20.7212H14.8684L15.0158 21.4565ZM9.15004 21.467L9.00526 22.2029L9.15004 21.467ZM8.42763 21.3248L8.57242 20.5889L8.42763 21.3248ZM3.75 14.8948C3.75 14.4806 3.41421 14.1448 3 14.1448C2.58579 14.1448 2.25 14.4806 2.25 14.8948H3.75ZM21.75 14.8948C21.75 14.4806 21.4142 14.1448 21 14.1448C20.5858 14.1448 20.25 14.4806 20.25 14.8948H21.75ZM21.75 8.25C21.75 5.3505 19.3995 3 16.5 3V4.5C18.5711 4.5 20.25 6.17893 20.25 8.25H21.75ZM7.5 3C4.60051 3 2.25 5.3505 2.25 8.25H3.75C3.75 6.17893 5.42893 4.5 7.5 4.5V3ZM7.2421 13.6054L8.19245 13.183L7.58324 11.8123L6.6329 12.2347L7.2421 13.6054ZM15.8075 13.183L16.7579 13.6054L17.3671 12.2347L16.4168 11.8123L15.8075 13.183ZM8.19245 13.183C10.6165 12.1057 13.3835 12.1057 15.8075 13.183L16.4168 11.8123C13.6049 10.5626 10.3951 10.5626 7.58324 11.8123L8.19245 13.183ZM15.429 20.6088L14.8684 20.7212L15.1632 22.1919L15.7239 22.0795L15.429 20.6088ZM9.29483 20.7311L8.57242 20.5889L8.28285 22.0607L9.00526 22.2029L9.29483 20.7311ZM14.8684 20.7212C13.0304 21.0896 11.1342 21.093 9.29483 20.7311L9.00526 22.2029C11.0376 22.6027 13.1324 22.599 15.1632 22.1919L14.8684 20.7212ZM2.25 14.8948C2.25 18.3897 4.78939 21.3734 8.28285 22.0607L8.57242 20.5889C5.7495 20.0335 3.75 17.6401 3.75 14.8948H2.25ZM20.25 14.8948C20.25 17.6438 18.2534 20.0426 15.429 20.6088L15.7239 22.0795C19.2165 21.3794 21.75 18.3913 21.75 14.8948H20.25Z" fill="#212121"/>
</svg>
