<svg width="24" height="25" viewBox="0 0 24 25" fill="none" xmlns="http://www.w3.org/2000/svg">
<path d="M3.20258 9.45024H20.7974M2.88539 15.9013C2.37154 13.8319 2.37154 11.6681 2.88539 9.59875C3.55805 6.88983 5.70602 4.79534 8.43056 4.19162L8.88443 4.09105C10.9366 3.63632 13.0634 3.63632 15.1156 4.09105L15.5694 4.19162C18.294 4.79534 20.442 6.88984 21.1146 9.59875C21.6285 11.6682 21.6285 13.8319 21.1146 15.9012C20.442 18.6102 18.294 20.7047 15.5694 21.3084L15.1156 21.409C13.0634 21.8637 10.9366 21.8637 8.88443 21.409L8.43056 21.3084C5.70601 20.7047 3.55805 18.6102 2.88539 15.9013Z" stroke="#212121" stroke-width="1.5"/>
<path d="M7 12.75L11 12.75" stroke="#212121" stroke-width="1.5" stroke-linecap="round"/>
</svg>
