<svg width="24" height="25" viewBox="0 0 24 25" fill="none" xmlns="http://www.w3.org/2000/svg">
<path d="M4.6531 17.7763L3.95839 18.0589L3.95839 18.0589L4.6531 17.7763ZM4.30609 12.1471L5.03006 12.343L4.30609 12.1471ZM19.6939 12.1471L18.9699 12.343L19.6939 12.1471ZM19.3469 17.7763L20.0416 18.0589V18.0589L19.3469 17.7763ZM14.0365 21.5918L13.9206 20.8508L14.0365 21.5918ZM9.96352 21.5918L10.0794 20.8508L9.96352 21.5918ZM8.65619 8.35213L8.50672 7.61718L8.65619 8.35213ZM15.3438 8.35213L15.4933 7.61718L15.4933 7.61718L15.3438 8.35213ZM9.21479 21.4747L9.0989 22.2157L9.21479 21.4747ZM4.74598 18.0046L5.44069 17.722L5.44069 17.722L4.74598 18.0046ZM14.7852 21.4747L14.9011 22.2157L14.7852 21.4747ZM19.254 18.0046L18.5593 17.722V17.722L19.254 18.0046ZM15.6199 8.40829L15.4705 9.14324L15.4705 9.14324L15.6199 8.40829ZM8.38009 8.40829L8.52956 9.14324L8.38009 8.40829ZM6.89397 8.18059C6.89397 8.59481 7.22976 8.93059 7.64397 8.93059C8.05819 8.93059 8.39397 8.59481 8.39397 8.18059H6.89397ZM7.64397 7.87771H6.89397H7.64397ZM16.356 7.87772H15.606H16.356ZM15.606 8.1806C15.606 8.59481 15.9418 8.9306 16.356 8.9306C16.7702 8.9306 17.106 8.59481 17.106 8.1806H15.606ZM10.8517 3.89126L10.6697 3.16368L10.6697 3.16368L10.8517 3.89126ZM13.1482 3.89126L13.3302 3.16368V3.16368L13.1482 3.89126ZM8.52956 9.14324L8.80567 9.08709L8.50672 7.61718L8.23062 7.67333L8.52956 9.14324ZM15.1943 9.08709L15.4705 9.14324L15.7694 7.67333L15.4933 7.61718L15.1943 9.08709ZM14.6693 20.7337L13.9206 20.8508L14.1523 22.3328L14.9011 22.2157L14.6693 20.7337ZM10.0794 20.8508L9.33068 20.7337L9.0989 22.2157L9.84762 22.3328L10.0794 20.8508ZM18.6522 17.4937L18.5593 17.722L19.9487 18.2873L20.0416 18.0589L18.6522 17.4937ZM5.44069 17.722L5.3478 17.4937L3.95839 18.0589L4.05128 18.2873L5.44069 17.722ZM5.34781 17.4937C4.67941 15.8508 4.56858 14.0488 5.03006 12.343L3.58212 11.9513C3.03465 13.9748 3.1667 16.113 3.95839 18.0589L5.34781 17.4937ZM18.9699 12.343C19.4314 14.0487 19.3206 15.8508 18.6522 17.4937L20.0416 18.0589C20.8333 16.113 20.9654 13.9748 20.4179 11.9512L18.9699 12.343ZM13.9206 20.8508C12.6486 21.0497 11.3514 21.0497 10.0794 20.8508L9.84762 22.3328C11.2732 22.5557 12.7268 22.5557 14.1523 22.3328L13.9206 20.8508ZM8.80567 9.08709C10.9118 8.65875 13.0882 8.65875 15.1943 9.08709L15.4933 7.61718C13.1899 7.14872 10.8101 7.14872 8.50672 7.61718L8.80567 9.08709ZM9.33068 20.7337C7.55628 20.4562 6.08366 19.3024 5.44069 17.722L4.05128 18.2873C4.90076 20.3753 6.82633 21.8602 9.0989 22.2157L9.33068 20.7337ZM14.9011 22.2157C17.1736 21.8602 19.0992 20.3753 19.9487 18.2873L18.5593 17.722C17.9163 19.3024 16.4437 20.4562 14.6693 20.7337L14.9011 22.2157ZM15.4705 9.14324C17.1912 9.4932 18.5368 10.7421 18.9699 12.343L20.4179 11.9512C19.8298 9.77766 18.0205 8.13115 15.7694 7.67333L15.4705 9.14324ZM8.23062 7.67333C5.97952 8.13115 4.17018 9.77766 3.58212 11.9513L5.03006 12.343C5.46317 10.7421 6.80883 9.4932 8.52956 9.14324L8.23062 7.67333ZM8.39397 8.18059V7.87771H6.89397V8.18059H8.39397ZM15.606 7.87772V8.1806H17.106V7.87772H15.606ZM11.0337 4.61884C11.6672 4.46039 12.3328 4.46039 12.9662 4.61884L13.3302 3.16368C12.4578 2.94544 11.5422 2.94544 10.6697 3.16368L11.0337 4.61884ZM17.106 7.87772C17.106 5.63982 15.535 3.71519 13.3302 3.16368L12.9662 4.61884C14.5399 5.0125 15.606 6.36508 15.606 7.87772H17.106ZM8.39397 7.87771C8.39397 6.36508 9.46002 5.0125 11.0337 4.61884L10.6697 3.16368C8.46497 3.71519 6.89397 5.63982 6.89397 7.87771H8.39397Z" fill="#212121"/>
<path d="M12 14.25L12 16.25" stroke="#212121" stroke-width="1.5" stroke-linecap="round"/>
</svg>
