<svg width="24" height="25" viewBox="0 0 24 25" fill="none" xmlns="http://www.w3.org/2000/svg">
<path d="M12 17.75L12 17.7726" stroke="#212121" stroke-width="2" stroke-linecap="round"/>
<path d="M13.25 7.75H10.75" stroke="#212121" stroke-width="1.5" stroke-linecap="round"/>
<path d="M19.3003 14.837H4.69969M14.9161 21.3715C13.0047 21.8762 10.9953 21.8762 9.08393 21.3715C6.72938 20.7498 4.92802 18.8503 4.43096 16.4651L4.33598 16.0093C3.88801 13.8595 3.88801 11.6405 4.33598 9.49072L4.43096 9.03494C4.92801 6.64968 6.72938 4.7502 9.08394 4.1285C10.9953 3.62383 13.0047 3.62383 14.9161 4.1285C17.2706 4.75019 19.072 6.64968 19.569 9.03494L19.664 9.49072C20.112 11.6405 20.112 13.8595 19.664 16.0093L19.569 16.4651C19.072 18.8503 17.2706 20.7498 14.9161 21.3715Z" stroke="#212121" stroke-width="1.5" stroke-linecap="round"/>
</svg>
