<svg width="24" height="24" viewBox="0 0 24 24" fill="none" xmlns="http://www.w3.org/2000/svg">
<path d="M17.3314 11C17.1892 11 17.0469 10.9585 16.9224 10.8671C13.9261 8.70796 10.0585 8.70796 7.07107 10.8671C6.77767 11.0747 6.35979 11.0249 6.13751 10.7592C5.91523 10.4851 5.96858 10.0948 6.25309 9.88719C9.73841 7.37094 14.2462 7.37094 17.7404 9.88719C18.0338 10.0948 18.0872 10.4851 17.856 10.7592C17.7315 10.9169 17.527 11 17.3314 11Z" fill="#292D32"/>
<path d="M16.2794 14C16.124 14 15.9686 13.9508 15.8327 13.8426C13.5018 12.0229 10.5008 12.0229 8.16996 13.8426C7.84947 14.0885 7.393 14.0295 7.1502 13.7147C6.90741 13.3902 6.96568 12.9279 7.27646 12.682C10.1415 10.4393 13.8514 10.4393 16.7164 12.682C17.0369 12.9279 17.0952 13.3902 16.8427 13.7147C16.7165 13.9016 16.5028 14 16.2794 14Z" fill="#292D32"/>
<path d="M14.245 16C14.0822 16 13.9194 15.9558 13.777 15.8586C12.6984 15.1337 11.3044 15.1337 10.2258 15.8586C9.88999 16.0796 9.41175 16.0265 9.15737 15.7437C8.90299 15.4519 8.96404 15.0365 9.28965 14.8155C10.9075 13.7282 13.085 13.7282 14.7029 14.8155C15.0387 15.0365 15.0998 15.4519 14.8352 15.7437C14.7029 15.9116 14.4791 16 14.245 16Z" fill="#292D32"/>
<path fill-rule="evenodd" clip-rule="evenodd" d="M14.8783 3.83306C12.9851 3.38898 11.0149 3.38898 9.12171 3.83306C6.62161 4.4195 4.6695 6.3716 4.08306 8.87171C3.63898 10.7649 3.63898 12.7351 4.08306 14.6283C4.6695 17.1284 6.62161 19.0805 9.12171 19.6669C11.0149 20.111 12.9851 20.111 14.8783 19.6669C17.3784 19.0805 19.3305 17.1284 19.9169 14.6283C20.361 12.7351 20.361 10.7649 19.9169 8.87171C19.3305 6.37161 17.3784 4.4195 14.8783 3.83306ZM8.77916 2.3727C10.8976 1.87577 13.1024 1.87577 15.2208 2.3727C18.2756 3.08924 20.6608 5.47441 21.3773 8.52916C21.8742 10.6476 21.8742 12.8524 21.3773 14.9708C20.6608 18.0256 18.2756 20.4108 15.2208 21.1273C13.1024 21.6242 10.8976 21.6242 8.77916 21.1273C5.72442 20.4108 3.33924 18.0256 2.6227 14.9709C2.12577 12.8524 2.12577 10.6476 2.6227 8.52915C3.33924 5.47441 5.72441 3.08924 8.77916 2.3727Z" fill="#212121"/>
</svg>
