<svg width="24" height="24" viewBox="0 0 24 24" fill="none" xmlns="http://www.w3.org/2000/svg">
    <path
        d="M21 14.7003C21 18.1833 18.183 21.0003 14.7 21.0003L15.645 19.4253M3 9.3003C3 5.8173 5.817 3.0003 9.3 3.0003L8.355 4.5753M12.5352 8.8905C12.2739 7.77615 12.2739 6.61643 12.5352 5.50208C12.8972 3.95907 14.102 2.75427 15.645 2.39233C16.7593 2.13094 17.9191 2.13094 19.0334 2.39233C20.5764 2.75427 21.7812 3.95907 22.1432 5.50209C22.4046 6.61643 22.4046 7.77615 22.1432 8.89049C21.7812 10.4335 20.5764 11.6383 19.0334 12.0002C17.9191 12.2616 16.7593 12.2616 15.645 12.0002C14.102 11.6383 12.8972 10.4335 12.5352 8.8905ZM1.89209 18.5002C1.63069 17.3859 1.63069 16.2262 1.89209 15.1118C2.25403 13.5688 3.45882 12.364 5.00184 12.0021C6.11618 11.7407 7.2759 11.7407 8.39025 12.0021C9.93326 12.364 11.1381 13.5688 11.5 15.1118C11.7614 16.2262 11.7614 17.3859 11.5 18.5002C11.1381 20.0433 9.93326 21.2481 8.39025 21.61C7.2759 21.8714 6.11618 21.8714 5.00184 21.61C3.45883 21.2481 2.25403 20.0433 1.89209 18.5002Z"
        stroke="#212121" stroke-width="1.5" stroke-linecap="round" stroke-linejoin="round" />
</svg>