<svg width="24" height="25" viewBox="0 0 24 25" fill="none" xmlns="http://www.w3.org/2000/svg">
<path d="M21 12.75H17M19 14.75L19 10.75" stroke="#212121" stroke-width="1.5" stroke-linecap="round"/>
<path d="M3 19.8615C3 17.4484 4.69732 15.393 7.00404 15.0127L7.21182 14.9784C9.05892 14.6739 10.9411 14.6739 12.7882 14.9784L12.996 15.0127C15.3027 15.393 17 17.4484 17 19.8615C17 20.9045 16.1815 21.75 15.1719 21.75H4.82813C3.81848 21.75 3 20.9045 3 19.8615Z" stroke="#212121" stroke-width="1.5"/>
<path d="M14.0834 7.6875C14.0834 9.86212 12.2552 11.625 10 11.625C7.74486 11.625 5.91669 9.86212 5.91669 7.6875C5.91669 5.51288 7.74486 3.75 10 3.75C12.2552 3.75 14.0834 5.51288 14.0834 7.6875Z" stroke="#212121" stroke-width="1.5"/>
</svg>
