<svg width="24" height="24" viewBox="0 0 24 24" fill="none" xmlns="http://www.w3.org/2000/svg">
<path d="M21 9.14361V4.8657C21 3.53709 20.3976 3 18.9012 3H15.0988C13.6024 3 13 3.53709 13 4.8657V9.13418C13 10.4722 13.6024 10.9999 15.0988 10.9999H18.9012C20.3976 11.0093 21 10.4722 21 9.14361Z" stroke="#212121" stroke-width="1.5" stroke-linecap="round" stroke-linejoin="round"/>
<path d="M21 18.9012V15.0988C21 13.6024 20.3976 13 18.9012 13H15.0988C13.6024 13 13 13.6024 13 15.0988V18.9012C13 20.3976 13.6024 21 15.0988 21H18.9012C20.3976 21 21 20.3976 21 18.9012Z" stroke="#212121" stroke-width="1.5" stroke-linecap="round" stroke-linejoin="round"/>
<path d="M11 9.14361V4.8657C11 3.53709 10.3976 3 8.90118 3H5.09882C3.60235 3 3 3.53709 3 4.8657V9.13418C3 10.4722 3.60235 10.9999 5.09882 10.9999H8.90118C10.3976 11.0093 11 10.4722 11 9.14361Z" stroke="#212121" stroke-width="1.5" stroke-linecap="round" stroke-linejoin="round"/>
<path d="M11 18.9012V15.0988C11 13.6024 10.3976 13 8.90118 13H5.09882C3.60235 13 3 13.6024 3 15.0988V18.9012C3 20.3976 3.60235 21 5.09882 21H8.90118C10.3976 21 11 20.3976 11 18.9012Z" stroke="#212121" stroke-width="1.5" stroke-linecap="round" stroke-linejoin="round"/>
</svg>
