<svg width="24" height="25" viewBox="0 0 24 25" fill="none" xmlns="http://www.w3.org/2000/svg">
<path d="M4.40476 16.2764L4.93509 15.746H4.93509L4.40476 16.2764ZM8.93476 20.8064L8.40443 21.3367L8.93476 20.8064ZM15.6848 20.8064L16.2137 21.3381L16.2151 21.3367L15.6848 20.8064ZM20.0748 9.66637L20.6065 9.13745L20.6039 9.13487L20.0748 9.66637ZM15.5348 5.14637L15.0044 5.6767L15.0056 5.67787L15.5348 5.14637ZM11.9348 3.75637L11.9707 4.50551L11.9739 4.50535L11.9348 3.75637ZM6.93476 3.99637L6.96847 4.74561L6.97071 4.7455L6.93476 3.99637ZM3.24476 7.66637L2.4957 7.62873L2.49562 7.63041L3.24476 7.66637ZM3.00476 12.6664L2.25561 12.6304L2.2555 12.6331L3.00476 12.6664ZM3.87443 16.8067L8.40443 21.3367L9.46509 20.276L4.93509 15.746L3.87443 16.8067ZM8.40443 21.3367C10.5581 23.4904 14.0519 23.4883 16.2137 21.3381L15.1558 20.2746C13.5776 21.8444 11.0314 21.8424 9.46509 20.276L8.40443 21.3367ZM16.2151 21.3367L20.6051 16.9467L19.5444 15.886L15.1544 20.276L16.2151 21.3367ZM20.6051 16.9467C22.7588 14.793 22.7567 11.2992 20.6065 9.13746L19.543 10.1953C21.1128 11.7735 21.1108 14.3197 19.5444 15.886L20.6051 16.9467ZM20.6039 9.13487L16.0639 4.61487L15.0056 5.67787L19.5456 10.1979L20.6039 9.13487ZM16.0651 4.61604C14.9668 3.5178 13.4507 2.92615 11.8956 3.00739L11.9739 4.50535C13.0988 4.44658 14.2027 4.87494 15.0044 5.6767L16.0651 4.61604ZM11.8988 3.00723L6.8988 3.24723L6.97071 4.7455L11.9707 4.5055L11.8988 3.00723ZM6.90104 3.24713C4.51385 3.35455 2.61505 5.25359 2.4957 7.62873L3.99381 7.70401C4.07446 6.09915 5.35566 4.81819 6.96847 4.74561L6.90104 3.24713ZM2.49562 7.63041L2.25562 12.6304L3.75389 12.7023L3.99389 7.70233L2.49562 7.63041ZM2.2555 12.6331C2.18616 14.1931 2.77545 15.7077 3.87443 16.8067L4.93509 15.746C4.13407 14.945 3.70335 13.8396 3.75402 12.6997L2.2555 12.6331ZM11.4849 10.4764C11.4849 11.4429 10.7014 12.2264 9.73486 12.2264V13.7264C11.5298 13.7264 12.9849 12.2713 12.9849 10.4764H11.4849ZM9.73486 12.2264C8.76836 12.2264 7.98486 11.4429 7.98486 10.4764H6.48486C6.48486 12.2713 7.93994 13.7264 9.73486 13.7264V12.2264ZM7.98486 10.4764C7.98486 9.50988 8.76836 8.72638 9.73486 8.72638V7.22638C7.93994 7.22638 6.48486 8.68145 6.48486 10.4764H7.98486ZM9.73486 8.72638C10.7014 8.72638 11.4849 9.50988 11.4849 10.4764H12.9849C12.9849 8.68145 11.5298 7.22638 9.73486 7.22638V8.72638Z" fill="#212121"/>
</svg>
