<svg width="24" height="25" viewBox="0 0 24 25" fill="none" xmlns="http://www.w3.org/2000/svg">
<path d="M15.5765 21.3441L15.7239 22.0795H15.7239L15.5765 21.3441ZM15.0158 21.4565L14.8684 20.7212H14.8684L15.0158 21.4565ZM9.15005 21.467L9.00526 22.2029L9.15005 21.467ZM8.42763 21.3248L8.57242 20.5889L8.42763 21.3248ZM3.75 14.8948C3.75 14.4806 3.41421 14.1448 3 14.1448C2.58579 14.1448 2.25 14.4806 2.25 14.8948H3.75ZM21.75 14.8948C21.75 14.4806 21.4142 14.1448 21 14.1448C20.5858 14.1448 20.25 14.4806 20.25 14.8948H21.75ZM8.42355 4.15586L8.27614 3.42049V3.42049L8.42355 4.15586ZM8.98423 4.04347L9.13164 4.77884L8.98423 4.04347ZM14.85 4.03304L14.7052 4.76893L14.85 4.03304ZM15.5724 4.17517L15.7172 3.43927L15.7171 3.43927L15.5724 4.17517ZM20.25 10.6052C20.25 11.0194 20.5858 11.3552 21 11.3552C21.4142 11.3552 21.75 11.0194 21.75 10.6052H20.25ZM2.25 10.6052C2.25 11.0194 2.58579 11.3552 3 11.3552C3.41421 11.3552 3.75 11.0194 3.75 10.6052H2.25ZM6.6329 12.7972C6.25438 12.9654 6.08391 13.4086 6.25214 13.7871C6.42037 14.1657 6.86359 14.3361 7.2421 14.1679L6.6329 12.7972ZM7.88785 13.0602L8.19245 13.7455L7.88785 13.0602ZM16.1122 13.0602L15.8076 13.7455L16.1122 13.0602ZM16.7579 14.1679C17.1364 14.3361 17.5796 14.1657 17.7479 13.7871C17.9161 13.4086 17.7456 12.9654 17.3671 12.7972L16.7579 14.1679ZM15.429 20.6088L14.8684 20.7212L15.1632 22.1919L15.7239 22.0795L15.429 20.6088ZM9.29483 20.7311L8.57242 20.5889L8.28285 22.0607L9.00526 22.2029L9.29483 20.7311ZM14.8684 20.7212C13.0304 21.0896 11.1342 21.093 9.29483 20.7311L9.00526 22.2029C11.0376 22.6027 13.1324 22.599 15.1632 22.1919L14.8684 20.7212ZM2.25 14.8948C2.25 18.3897 4.7894 21.3734 8.28285 22.0607L8.57242 20.5889C5.7495 20.0335 3.75 17.6401 3.75 14.8948H2.25ZM20.25 14.8948C20.25 17.6438 18.2534 20.0426 15.429 20.6088L15.7239 22.0795C19.2165 21.3794 21.75 18.3913 21.75 14.8948H20.25ZM8.57095 4.89123L9.13164 4.77884L8.83682 3.3081L8.27614 3.42049L8.57095 4.89123ZM14.7052 4.76893L15.4276 4.91106L15.7171 3.43927L14.9947 3.29714L14.7052 4.76893ZM9.13164 4.77884C10.9696 4.41042 12.8658 4.40705 14.7052 4.76893L14.9947 3.29714C12.9624 2.8973 10.8676 2.90102 8.83682 3.3081L9.13164 4.77884ZM21.75 10.6052C21.75 7.11025 19.2106 4.1266 15.7172 3.43927L15.4276 4.91106C18.2505 5.46646 20.25 7.85993 20.25 10.6052H21.75ZM3.75 10.6052C3.75 7.85618 5.74663 5.45738 8.57095 4.89123L8.27614 3.42049C4.78351 4.1206 2.25 7.10873 2.25 10.6052H3.75ZM7.2421 14.1679L8.19245 13.7455L7.58324 12.3748L6.6329 12.7972L7.2421 14.1679ZM15.8076 13.7455L16.7579 14.1679L17.3671 12.7972L16.4168 12.3748L15.8076 13.7455ZM8.19245 13.7455C10.6165 12.6682 13.3835 12.6682 15.8076 13.7455L16.4168 12.3748C13.6049 11.1251 10.3951 11.1251 7.58324 12.3748L8.19245 13.7455Z" fill="#212121"/>
</svg>
