<svg width="24" height="24" viewBox="0 0 24 24" fill="none" xmlns="http://www.w3.org/2000/svg">
    <path
        d="M6.5 2H17.5M6.5 22H17.5M3.42351 15.5544L3.47178 15.7212C3.95806 17.4017 5.37556 18.6726 7.13695 19.0075C10.3167 19.6121 13.5867 19.6121 16.7665 19.0075C18.5279 18.6726 19.9454 17.4017 20.4317 15.7212L20.4799 15.5544C21.109 13.3807 21.109 11.0803 20.48 8.90654L20.4317 8.73973C19.9454 7.05931 18.5279 5.78835 16.7665 5.45344C13.5867 4.84885 10.3167 4.84885 7.13695 5.45344C5.37556 5.78835 3.95806 7.05931 3.47178 8.73973L3.42351 8.90653C2.79447 11.0803 2.79447 13.3807 3.42351 15.5544Z"
        stroke="#212121" stroke-width="1.5" stroke-linecap="round" stroke-linejoin="round" />
</svg>