<svg width="24" height="25" viewBox="0 0 24 25" fill="none" xmlns="http://www.w3.org/2000/svg">
<path d="M8.69628 9.80793H14.7279M8.69628 13.2641H12.5346M13.1107 19.6768H14.1721C17.0589 19.6768 19.5701 17.5999 20.2476 14.6521C20.5841 13.1882 20.5841 11.6613 20.2476 10.1974L20.1588 9.81088C19.5057 6.96958 17.377 4.76204 14.6641 4.11264L14.283 4.02141C12.7712 3.65953 11.2013 3.65953 9.68953 4.02141L9.46648 4.07481C6.65677 4.74738 4.45212 7.03371 3.77571 9.97642C3.40585 11.5855 3.40923 13.2787 3.77909 14.8878C4.46607 17.8765 6.48688 20.3638 9.19777 21.5228L9.31593 21.5733C10.489 22.0749 11.8329 21.4708 12.3142 20.2402C12.4467 19.9015 12.7622 19.6768 13.1107 19.6768Z" stroke="#212121" stroke-width="1.5" stroke-linecap="round"/>
</svg>
