<svg width="20" height="20" viewBox="0 0 20 20" fill="none" xmlns="http://www.w3.org/2000/svg">
    <path fill-rule="evenodd" clip-rule="evenodd"
        d="M12.2044 19.2451C11.087 19.2451 9.50553 18.4591 8.25552 14.6996L7.5737 12.6541L5.52822 11.9723C1.77819 10.7223 0.992203 9.14083 0.992203 8.0234C0.992203 6.91544 1.77819 5.32452 5.52822 4.06504L13.5681 1.38509C15.5757 0.712736 17.2518 0.911601 18.284 1.93434C19.3162 2.95707 19.5151 4.64269 18.8427 6.65028L16.1628 14.6901C14.9033 18.4591 13.3218 19.2451 12.2044 19.2451ZM5.97311 5.41923C3.34052 6.29992 2.40301 7.34159 2.40301 8.02342C2.40301 8.70524 3.34052 9.74691 5.97311 10.6181L7.77887 11.2201C7.78888 11.2085 7.79933 11.1973 7.8102 11.1863L11.2004 7.78662C11.475 7.512 11.9296 7.512 12.2042 7.78662C12.4788 8.06125 12.4788 8.5158 12.2042 8.79042L8.88973 12.1141L9.60004 14.2451C10.4713 16.8777 11.5224 17.8152 12.2042 17.8152C12.886 17.8152 13.9277 16.8777 14.8084 14.2451L17.4884 6.20522C17.9713 4.74687 17.8861 3.55368 17.2706 2.93815C16.655 2.32261 15.4618 2.24685 14.0129 2.72981L5.97311 5.41923Z"
        fill="#212121" />
</svg>