<svg width="24" height="25" viewBox="0 0 24 25" fill="none" xmlns="http://www.w3.org/2000/svg">
    <path
        d="M5 19.8615C5 17.4484 6.69732 15.393 9.00404 15.0127L9.21182 14.9784C11.0589 14.6739 12.9411 14.6739 14.7882 14.9784L14.996 15.0127C17.3027 15.393 19 17.4484 19 19.8615C19 20.9045 18.1815 21.75 17.1719 21.75H6.82813C5.81848 21.75 5 20.9045 5 19.8615Z"
        stroke="#212121" stroke-width="1.5" />
    <path
        d="M16.0834 7.6875C16.0834 9.86212 14.2552 11.625 12 11.625C9.74486 11.625 7.91669 9.86212 7.91669 7.6875C7.91669 5.51288 9.74486 3.75 12 3.75C14.2552 3.75 16.0834 5.51288 16.0834 7.6875Z"
        stroke="#212121" stroke-width="1.5" />
</svg>