<svg width="20" height="20" viewBox="0 0 20 20" fill="none" xmlns="http://www.w3.org/2000/svg">
    <path
        d="M6.69628 7.05793H12.7279M6.69628 10.5141H10.5346M11.1107 16.9268H12.1721C15.0589 16.9268 17.5701 14.8499 18.2476 11.9021C18.5841 10.4382 18.5841 8.91126 18.2476 7.44741L18.1588 7.06088C17.5057 4.21958 15.377 2.01204 12.6641 1.36264L12.283 1.27141C10.7712 0.909529 9.20132 0.909529 7.68953 1.27141L7.46648 1.32481C4.65677 1.99738 2.45212 4.28371 1.77571 7.22642C1.40585 8.83551 1.40923 10.5287 1.77909 12.1378C2.46607 15.1265 4.48688 17.6138 7.19777 18.7728L7.31593 18.8233C8.48904 19.3249 9.83289 18.7208 10.3142 17.4902C10.4467 17.1515 10.7622 16.9268 11.1107 16.9268Z"
        stroke="#212121" stroke-width="1.5" stroke-linecap="round" />
</svg>