<svg width="24" height="25" viewBox="0 0 24 25" fill="none" xmlns="http://www.w3.org/2000/svg">
<path d="M15.1653 21.6335C16.0469 21.7888 16.9531 21.7888 17.8347 21.6335C19.2516 21.3838 20.3929 20.4326 20.786 19.1736L20.8694 18.9065C20.956 18.629 21 18.3419 21 18.0534C21 16.7813 19.8623 15.75 18.4589 15.75H14.5411C13.1377 15.75 12 16.7813 12 18.0534C12 18.3419 12.044 18.629 12.1306 18.9065L12.214 19.1736C12.6071 20.4326 13.7484 21.3838 15.1653 21.6335ZM15.1653 21.6335C9.04195 20.4989 4.25108 15.708 3.1165 9.58468M3.1165 9.58468C2.96117 8.70315 2.96117 7.79686 3.1165 6.91532C3.36618 5.49842 4.31744 4.35713 5.57641 3.96402L5.84345 3.88063C6.12103 3.79396 6.40813 3.75 6.69661 3.75C7.96874 3.75 9.00001 4.88768 9 6.29106L9 10.2089C9.00001 11.6123 7.96874 12.75 6.69661 12.75C6.40813 12.75 6.12103 12.706 5.84345 12.6194L5.57641 12.536C4.31744 12.1429 3.36618 11.0016 3.1165 9.58468Z" stroke="#212121" stroke-width="1.5"/>
</svg>
