<svg width="24" height="25" viewBox="0 0 24 25" fill="none" xmlns="http://www.w3.org/2000/svg">
<path d="M18.2853 14.7425C18.0275 15.0005 17.6186 15.0005 17.3696 14.7425C17.1118 14.4845 17.1118 14.0754 17.3696 13.8263C19.1477 12.0473 19.1477 9.15639 17.3696 7.38628C15.5916 5.61616 12.7023 5.60726 10.9332 7.38628C9.16405 9.16529 9.15516 12.0562 10.9332 13.8263C11.191 14.0843 11.191 14.4934 10.9332 14.7425C10.6754 15.0005 10.2664 15.0005 10.0175 14.7425C7.73274 12.4565 7.73274 8.73833 10.0175 6.46119C12.3023 4.18405 16.0183 4.17516 18.2942 6.46119C20.5701 8.74722 20.5701 12.4565 18.2853 14.7425Z" fill="#212121"/>
<path d="M5.71468 10.7575C5.9725 10.4995 6.38144 10.4995 6.63037 10.7575C6.88818 11.0155 6.88818 11.4246 6.63037 11.6737C4.85234 13.4527 4.85234 16.3436 6.63037 18.1137C8.40839 19.8838 11.2977 19.8927 13.0668 18.1137C14.8359 16.3347 14.8448 13.4438 13.0668 11.6737C12.809 11.4157 12.809 11.0066 13.0668 10.7575C13.3246 10.4995 13.7336 10.4995 13.9825 10.7575C16.2673 13.0435 16.2673 16.7617 13.9825 19.0388C11.6977 21.3159 7.98167 21.3248 5.70579 19.0388C3.42992 16.7528 3.42992 13.0435 5.71468 10.7575Z" fill="#212121"/>
</svg>
