<svg width="24" height="24" viewBox="0 0 24 24" fill="none" xmlns="http://www.w3.org/2000/svg">
    <path
        d="M17.0702 7.25988V4.62988C17.0702 2.62988 16.0702 1.62988 14.0702 1.62988H9.0702C7.0702 1.62988 6.0702 2.62988 6.0702 4.62988V7.18988M12.3702 10.9899L12.9402 11.8799C13.0302 12.0199 13.2302 12.1599 13.3802 12.1999L14.4002 12.4599C15.0302 12.6199 15.2002 13.1599 14.7902 13.6599L14.1202 14.4699C14.0202 14.5999 13.9402 14.8299 13.9502 14.9899L14.0102 16.0399C14.0502 16.6899 13.5902 17.0199 12.9902 16.7799L12.0102 16.3899C11.8602 16.3299 11.6102 16.3299 11.4602 16.3899L10.4802 16.7799C9.8802 17.0199 9.4202 16.6799 9.4602 16.0399L9.5202 14.9899C9.5302 14.8299 9.4502 14.5899 9.3502 14.4699L8.6802 13.6599C8.2702 13.1599 8.4402 12.6199 9.0702 12.4599L10.0902 12.1999C10.2502 12.1599 10.4502 12.0099 10.5302 11.8799L11.1002 10.9899C11.4602 10.4499 12.0202 10.4499 12.3702 10.9899ZM7.16722 6.58185L7.33278 6.48638C8.85286 5.60989 9.61289 5.17164 10.4188 4.99992C11.132 4.84794 11.868 4.84794 12.5812 4.99992C13.3871 5.17164 14.1472 5.60989 15.6672 6.48639L15.8328 6.58185C17.2487 7.39831 17.9567 7.80654 18.4894 8.36603C19.0961 9.00325 19.5411 9.78324 19.7855 10.6377C20 11.3879 20 12.2206 20 13.8859C20 15.5513 20 16.384 19.7855 17.1342C19.5411 17.9886 19.0961 18.7686 18.4894 19.4058C17.9567 19.9653 17.2487 20.3736 15.8328 21.19L15.6672 21.2855C14.1472 22.162 13.3871 22.6002 12.5812 22.772C11.868 22.9239 11.132 22.9239 10.4188 22.772C9.6129 22.6002 8.85286 22.162 7.33278 21.2855L7.16722 21.19C5.75126 20.3736 5.04328 19.9653 4.5106 19.4058C3.90391 18.7686 3.4589 17.9886 3.21455 17.1342C3 16.384 3 15.5513 3 13.8859C3 12.2206 3 11.3879 3.21455 10.6377C3.4589 9.78324 3.90391 9.00325 4.5106 8.36603C5.04328 7.80654 5.75126 7.39831 7.16722 6.58185Z"
        stroke="#292D32" stroke-width="1.5" stroke-linecap="round" stroke-linejoin="round" />
</svg>