<svg width="24" height="25" viewBox="0 0 24 25" fill="none" xmlns="http://www.w3.org/2000/svg">
<path d="M4.6531 17.7807L3.9585 18.0636H3.9585L4.6531 17.7807ZM4.30609 12.1576L5.03001 12.3537L4.30609 12.1576ZM19.6939 12.1576L18.97 12.3537L19.6939 12.1576ZM19.3469 17.7807L20.0415 18.0636V18.0636L19.3469 17.7807ZM14.0365 21.592L13.9207 20.8509H13.9207L14.0365 21.592ZM9.96352 21.592L9.84775 22.333L9.96352 21.592ZM8.65619 8.36682L8.50688 7.63184V7.63184L8.65619 8.36682ZM15.3438 8.36682L15.1945 9.10181L15.3438 8.36682ZM9.21479 21.475L9.33056 20.734L9.21479 21.475ZM4.74598 18.0087L5.44059 17.7258H5.44058L4.74598 18.0087ZM14.7852 21.475L14.901 22.216L14.7852 21.475ZM19.254 18.0087L18.5594 17.7258L19.254 18.0087ZM15.6199 8.42291L15.7692 7.68793L15.7692 7.68793L15.6199 8.42291ZM8.38009 8.42291L8.5294 9.1579L8.38009 8.42291ZM6.89401 8.19547C6.89401 8.60968 7.2298 8.94547 7.64401 8.94547C8.05822 8.94547 8.39401 8.60968 8.39401 8.19547H6.89401ZM7.64401 7.95939H6.89401H7.64401ZM10.9188 3.89409L10.737 3.16646L10.737 3.16646L10.9188 3.89409ZM10.9871 3.87701L11.1689 4.60464L11.1689 4.60464L10.9871 3.87701ZM14.9208 4.90264L14.4015 5.44381V5.44381L14.9208 4.90264ZM14.657 5.68894C14.9559 5.97572 15.4306 5.96592 15.7174 5.66704C16.0042 5.36816 15.9944 4.89339 15.6955 4.6066L14.657 5.68894ZM13.0154 3.8675L13.1904 3.13819L13.0154 3.8675ZM8.5294 9.1579L8.80551 9.10181L8.50688 7.63184L8.23077 7.68793L8.5294 9.1579ZM15.1945 9.10181L15.4706 9.1579L15.7692 7.68793L15.4931 7.63184L15.1945 9.10181ZM14.6694 20.734L13.9207 20.8509L14.1522 22.333L14.901 22.216L14.6694 20.734ZM10.0793 20.8509L9.33056 20.734L9.09902 22.216L9.84775 22.333L10.0793 20.8509ZM18.6523 17.4978L18.5594 17.7258L19.9486 18.2916L20.0415 18.0636L18.6523 17.4978ZM5.44058 17.7258L5.3477 17.4978L3.9585 18.0636L4.05138 18.2916L5.44058 17.7258ZM5.3477 17.4978C4.67942 15.8569 4.56861 14.0573 5.03001 12.3537L3.58217 11.9616C3.03461 13.9833 3.16669 16.1194 3.9585 18.0636L5.3477 17.4978ZM18.97 12.3537C19.4314 14.0573 19.3206 15.8569 18.6523 17.4978L20.0415 18.0636C20.8333 16.1194 20.9654 13.9833 20.4178 11.9616L18.97 12.3537ZM13.9207 20.8509C12.6486 21.0497 11.3513 21.0497 10.0793 20.8509L9.84775 22.333C11.2732 22.5557 12.7267 22.5557 14.1522 22.333L13.9207 20.8509ZM8.80551 9.10181C10.9117 8.67392 13.0883 8.67392 15.1945 9.10181L15.4931 7.63184C13.1898 7.16392 10.8102 7.16392 8.50688 7.63184L8.80551 9.10181ZM9.33056 20.734C7.55581 20.4567 6.08337 19.3041 5.44059 17.7258L4.05138 18.2916C4.90105 20.3778 6.8268 21.861 9.09902 22.216L9.33056 20.734ZM14.901 22.216C17.1732 21.861 19.0989 20.3778 19.9486 18.2916L18.5594 17.7258C17.9166 19.3041 16.4442 20.4567 14.6694 20.734L14.901 22.216ZM15.4706 9.1579C17.1917 9.50754 18.5371 10.7552 18.97 12.3537L20.4178 11.9616C19.8296 9.78976 18.02 8.14517 15.7692 7.68793L15.4706 9.1579ZM8.23077 7.68793C5.98003 8.14517 4.1704 9.78976 3.58217 11.9616L5.03001 12.3537C5.46295 10.7552 6.80831 9.50754 8.5294 9.1579L8.23077 7.68793ZM8.39401 8.19547V7.95939H6.89401V8.19547H8.39401ZM11.1006 4.62172L11.1689 4.60464L10.8053 3.14938L10.737 3.16646L11.1006 4.62172ZM14.4015 5.44381L14.657 5.68894L15.6955 4.6066L15.44 4.36147L14.4015 5.44381ZM12.8405 4.59681C13.4346 4.73934 13.9737 5.03335 14.4015 5.44381L15.44 4.36147C14.8166 3.76323 14.0385 3.34164 13.1904 3.13819L12.8405 4.59681ZM11.1689 4.60464C11.7165 4.46783 12.2915 4.46512 12.8405 4.59681L13.1904 3.13819C12.4068 2.95023 11.587 2.95406 10.8053 3.14938L11.1689 4.60464ZM8.39401 7.95939C8.39401 6.41024 9.487 5.02491 11.1006 4.62172L10.737 3.16646C8.49317 3.72712 6.89401 5.68383 6.89401 7.95939H8.39401Z" fill="#212121"/>
<path d="M12 14.25L12 16.25" stroke="#212121" stroke-width="1.5" stroke-linecap="round"/>
</svg>
