<svg width="24" height="24" viewBox="0 0 24 24" fill="none" xmlns="http://www.w3.org/2000/svg">
<path d="M19.11 13H4.89C3.54 13 3 13.6024 3 15.0988V18.9012C3 20.3976 3.54 21 4.89 21H19.11C20.46 21 21 20.3976 21 18.9012V15.0988C21 13.6024 20.46 13 19.11 13Z" stroke="#212121" stroke-width="1.5" stroke-linecap="round" stroke-linejoin="round"/>
<path d="M19.11 3H4.89C3.54 3 3 3.60235 3 5.09882V8.90118C3 10.3976 3.54 11 4.89 11H19.11C20.46 11 21 10.3976 21 8.90118V5.09882C21 3.60235 20.46 3 19.11 3Z" stroke="#212121" stroke-width="1.5" stroke-linecap="round" stroke-linejoin="round"/>
</svg>
