<svg width="24" height="25" viewBox="0 0 24 25" fill="none" xmlns="http://www.w3.org/2000/svg">
<path d="M9 20.75C8.45 20.75 7.97933 20.5543 7.588 20.163C7.196 19.771 7 19.3 7 18.75C7 18.2 7.196 17.729 7.588 17.337C7.97933 16.9457 8.45 16.75 9 16.75C9.55 16.75 10.021 16.9457 10.413 17.337C10.8043 17.729 11 18.2 11 18.75C11 19.3 10.8043 19.771 10.413 20.163C10.021 20.5543 9.55 20.75 9 20.75ZM15 20.75C14.45 20.75 13.9793 20.5543 13.588 20.163C13.196 19.771 13 19.3 13 18.75C13 18.2 13.196 17.729 13.588 17.337C13.9793 16.9457 14.45 16.75 15 16.75C15.55 16.75 16.021 16.9457 16.413 17.337C16.8043 17.729 17 18.2 17 18.75C17 19.3 16.8043 19.771 16.413 20.163C16.021 20.5543 15.55 20.75 15 20.75ZM9 14.75C8.45 14.75 7.97933 14.554 7.588 14.162C7.196 13.7707 7 13.3 7 12.75C7 12.2 7.196 11.729 7.588 11.337C7.97933 10.9457 8.45 10.75 9 10.75C9.55 10.75 10.021 10.9457 10.413 11.337C10.8043 11.729 11 12.2 11 12.75C11 13.3 10.8043 13.7707 10.413 14.162C10.021 14.554 9.55 14.75 9 14.75ZM15 14.75C14.45 14.75 13.9793 14.554 13.588 14.162C13.196 13.7707 13 13.3 13 12.75C13 12.2 13.196 11.729 13.588 11.337C13.9793 10.9457 14.45 10.75 15 10.75C15.55 10.75 16.021 10.9457 16.413 11.337C16.8043 11.729 17 12.2 17 12.75C17 13.3 16.8043 13.7707 16.413 14.162C16.021 14.554 15.55 14.75 15 14.75ZM9 8.75C8.45 8.75 7.97933 8.554 7.588 8.162C7.196 7.77067 7 7.3 7 6.75C7 6.2 7.196 5.72933 7.588 5.338C7.97933 4.946 8.45 4.75 9 4.75C9.55 4.75 10.021 4.946 10.413 5.338C10.8043 5.72933 11 6.2 11 6.75C11 7.3 10.8043 7.77067 10.413 8.162C10.021 8.554 9.55 8.75 9 8.75ZM15 8.75C14.45 8.75 13.9793 8.554 13.588 8.162C13.196 7.77067 13 7.3 13 6.75C13 6.2 13.196 5.72933 13.588 5.338C13.9793 4.946 14.45 4.75 15 4.75C15.55 4.75 16.021 4.946 16.413 5.338C16.8043 5.72933 17 6.2 17 6.75C17 7.3 16.8043 7.77067 16.413 8.162C16.021 8.554 15.55 8.75 15 8.75Z" fill="#212121"/>
</svg>
