<svg width="24" height="24" viewBox="0 0 24 24" fill="none" xmlns="http://www.w3.org/2000/svg">
<path d="M14.245 16C14.0822 16 13.9194 15.9558 13.777 15.8586C12.6984 15.1337 11.3044 15.1337 10.2258 15.8586C9.88999 16.0796 9.41175 16.0265 9.15737 15.7437C8.90299 15.4519 8.96404 15.0365 9.28965 14.8155C10.9075 13.7282 13.085 13.7282 14.7029 14.8155C15.0387 15.0365 15.0998 15.4519 14.8352 15.7437C14.7029 15.9116 14.4791 16 14.245 16Z" fill="#212121"/>
<path d="M15.8327 13.8426C15.9686 13.9508 16.124 14 16.2794 14C16.5028 14 16.7165 13.9016 16.8427 13.7147C17.0952 13.3902 17.0369 12.9279 16.7164 12.682C15.4669 11.7039 14.0566 11.1523 12.6258 11.0274L14.7468 13.1485C15.1208 13.3392 15.4842 13.5706 15.8327 13.8426Z" fill="#212121"/>
<path d="M7.1502 13.7147C7.393 14.0295 7.84947 14.0885 8.16996 13.8426C9.61489 12.7146 11.3173 12.2858 12.958 12.5564L11.4243 11.0227C9.97393 11.1377 8.54267 11.6908 7.27646 12.682C6.96568 12.9279 6.90741 13.3902 7.1502 13.7147Z" fill="#212121"/>
<path fill-rule="evenodd" clip-rule="evenodd" d="M7.07107 10.8671C7.9575 10.2265 8.92143 9.77589 9.9171 9.51542L8.91174 8.51006C7.98538 8.8241 7.08977 9.28314 6.25309 9.88719C5.96858 10.0948 5.91523 10.4851 6.13751 10.7592C6.35979 11.0249 6.77767 11.0747 7.07107 10.8671ZM16.9224 10.8671C15.1103 9.56125 12.9794 9.04518 10.9172 9.3189L9.84355 8.24523C12.5176 7.62821 15.3635 8.17553 17.7404 9.88719C18.0338 10.0948 18.0872 10.4851 17.856 10.7592C17.7315 10.9169 17.527 11 17.3314 11C17.1892 11 17.0469 10.9585 16.9224 10.8671Z" fill="#212121"/>
<path fill-rule="evenodd" clip-rule="evenodd" d="M2.46967 2.46967C2.76256 2.17678 3.23744 2.17678 3.53033 2.46967L21.5303 20.4697C21.8232 20.7626 21.8232 21.2374 21.5303 21.5303C21.2374 21.8232 20.7626 21.8232 20.4697 21.5303L2.46967 3.53033C2.17678 3.23744 2.17678 2.76256 2.46967 2.46967Z" fill="#212121"/>
<path fill-rule="evenodd" clip-rule="evenodd" d="M14.8783 3.83306C12.9851 3.38898 11.0149 3.38898 9.12171 3.83306C6.62161 4.4195 4.6695 6.3716 4.08306 8.87171C3.63898 10.7649 3.63898 12.7351 4.08306 14.6283C4.6695 17.1284 6.62161 19.0805 9.12171 19.6669C11.0149 20.111 12.9851 20.111 14.8783 19.6669C17.3784 19.0805 19.3305 17.1284 19.9169 14.6283C20.361 12.7351 20.361 10.7649 19.9169 8.87171C19.3305 6.37161 17.3784 4.4195 14.8783 3.83306ZM8.77916 2.3727C10.8976 1.87577 13.1024 1.87577 15.2208 2.3727C18.2756 3.08924 20.6608 5.47441 21.3773 8.52916C21.8742 10.6476 21.8742 12.8524 21.3773 14.9708C20.6608 18.0256 18.2756 20.4108 15.2208 21.1273C13.1024 21.6242 10.8976 21.6242 8.77916 21.1273C5.72442 20.4108 3.33924 18.0256 2.6227 14.9709C2.12577 12.8524 2.12577 10.6476 2.6227 8.52915C3.33924 5.47441 5.72441 3.08924 8.77916 2.3727Z" fill="#212121"/>
</svg>
