<svg width="24" height="24" viewBox="0 0 24 24" fill="none" xmlns="http://www.w3.org/2000/svg">
    <path
        d="M3.35288 8.95043C4.00437 6.17301 6.17301 4.00437 8.95043 3.35288C10.9563 2.88237 13.0437 2.88237 15.0496 3.35288C17.827 4.00437 19.9956 6.17301 20.6471 8.95044C21.1176 10.9563 21.1176 13.0437 20.6471 15.0496C19.9956 17.827 17.827 19.9956 15.0496 20.6471C13.0437 21.1176 10.9563 21.1176 8.95044 20.6471C6.17301 19.9956 4.00437 17.827 3.35288 15.0496C2.88237 13.0437 2.88237 10.9563 3.35288 8.95043Z"
        stroke="#212121" stroke-width="1.5" />
    <path
        d="M7 8.88892H14.142M10.3862 8V8.889M13.957 15.693C12.074 15.821 9.42124 13.4839 8.94824 11.4819M12.4692 8.88892C12.3488 10.3127 11.7866 11.6633 10.8613 12.7521C9.93605 13.8409 8.6938 14.6134 7.30811 14.9619M12.05 16.679L14.5681 11.7479L17.0862 16.679"
        stroke="#212121" stroke-width="1.5" stroke-linecap="round" stroke-linejoin="round" />
</svg>