<svg width="24" height="24" viewBox="0 0 24 24" fill="none" xmlns="http://www.w3.org/2000/svg">
<path d="M4.68 16L3 16.044M4.68 16C4.68 17.3255 5.75451 18.4 7.08 18.4C8.40548 18.4 9.48 17.3255 9.48 16C9.48 14.6745 8.40548 13.6 7.08 13.6C5.75451 13.6 4.68 14.6745 4.68 16ZM10.169 16.0441H21M12.801 7.55124L3 7.55124M21 7.55124H18.48M17.88 7.4C17.88 8.72548 16.8055 9.8 15.48 9.8C14.1545 9.8 13.08 8.72548 13.08 7.4C13.08 6.07452 14.1545 5 15.48 5C16.8055 5 17.88 6.07452 17.88 7.4Z" stroke="#212121" stroke-width="1.5" stroke-linecap="round"/>
</svg>
