<svg
   width="114"
   height="114"
   viewBox="0 0 30.162499 30.1625"
   xmlns="http://www.w3.org/2000/svg"
   ><path
       style="fill:#007aff;stroke:#3b7844;stroke-width:0;stroke-opacity:0.473684;fill-opacity:1"
       d="m 14.824684,0.00102696 c -0.474174,0.01 -0.954392,-0.01454 -1.417832,0.09142 -0.351894,0.01371 -0.696032,0.07155 -1.033401,0.148432 -0.675549,0.112661 -1.345411,0.273774 -1.991025,0.493064 -0.260342,0.101353 -0.5363203,0.157484 -0.7839063,0.29484604 -0.189763,0.05767 -0.383655,0.133185 -0.556923,0.21881 -0.114549,0.109545 -0.330017,0.132046 -0.473157,0.225977 -0.309914,0.134743 -0.614963,0.310368 -0.907039,0.462696 -0.08276,0.02948 -0.116713,0.09649 -0.209286,0.116004 -0.316125,0.206194 -0.640555,0.392363 -0.940778,0.621711 -0.103817,0.05732 -0.204116,0.09248 -0.272874,0.19129 -1.043554,0.739796 -1.959582,1.650605 -2.796836,2.614319 -0.120624,0.147403 -0.226923,0.314787 -0.364283,0.436944 -0.06578,0.192045 -0.250271,0.319547 -0.349211,0.482837 -0.04563,0.157515 -0.210826,0.248064 -0.248729,0.399751 -0.140271,0.08568 -0.143515,0.290068 -0.264674,0.404337 -0.168523,0.290779 -0.338523,0.595173 -0.498536,0.882652 -0.09188,0.0844 -0.08506,0.224132 -0.175168,0.310368 -0.03844,0.148074 -0.1439,0.257428 -0.164219,0.416699 -0.09979,0.07268 -0.08153,0.220656 -0.177118,0.29552 -0.07506,0.302215 -0.22823102,0.584418 -0.31471702,0.886187 -0.09981,0.250298 -0.183355,0.506797 -0.251879,0.767634 -0.09576,0.18338 -0.08402,0.406034 -0.177117,0.591041 -0.08428,0.323819 -0.117499,0.659013 -0.221658,0.97315 -0.02827,0.400175 -0.154489,0.782466 -0.150169,1.189338 -0.04637,0.33113 -0.09327,0.658137 -0.07889,0.996669 0.0069,0.609106 -0.03351,1.228129 0.03784,1.831626 0.07045,0.37132 0.04023,0.762533 0.150497,1.127569 0.01326,0.240369 0.06185,0.472626 0.127177,0.69872 0.01323,0.248883 0.135023,0.464958 0.154621,0.71342 0.110264,0.226571 0.114577,0.49644 0.218436,0.732866 0.08568,0.214994 0.144521,0.440236 0.231631,0.653553 0.08135,0.270797 0.20453702,0.534421 0.29709602,0.796804 0.09494,0.06673 0.05672,0.243318 0.164444,0.30407 0.208462,0.520382 0.495619,1.002411 0.775358,1.485327 0.08865,0.07691 0.09607,0.222301 0.183491,0.287345 0.05238,0.123747 0.14211,0.229726 0.193465,0.349737 0.190293,0.170708 0.291773,0.432774 0.479162,0.615937 0.245201,0.348827 0.518452,0.681619 0.800688,1.002064 0.493768,0.49779 0.968668,1.025113 1.512487,1.466856 0.13063,0.111909 0.261579,0.225598 0.399001,0.324315 0.325868,0.263911 0.665547,0.52133 1.013514,0.750689 0.167974,0.0761 0.283565,0.247005 0.480136,0.278048 0.212549,0.208555 0.525096,0.297366 0.773848,0.461886 0.144552,0.07195 0.280251,0.138759 0.406061,0.227088 0.137228,0.04008 0.243813,0.137292 0.394577,0.156271 0.07237,0.100014 0.220762,0.08081 0.294846,0.177416 0.187208,0.03213 0.358869,0.134108 0.538251,0.182143 0.4904793,0.202058 1.0041803,0.355661 1.5108223,0.508331 0.199003,0.06741 0.410595,0.08474 0.606788,0.158896 0.304515,0.02047 0.579564,0.151818 0.887686,0.155035 0.411666,0.117855 0.849277,0.08265 1.262095,0.178878 0.833925,0.04173 1.674817,0.04498 2.506639,-0.02407 0.377928,-0.07702 0.776426,-0.04425 1.146619,-0.157834 0.305143,6.43e-4 0.57595,-0.134126 0.877409,-0.152308 0.19568,-0.07429 0.407264,-0.09025 0.605439,-0.158821 0.504402,-0.151164 1.012253,-0.303688 1.500699,-0.507506 0.618698,-0.202928 1.20849,-0.514896 1.779723,-0.830098 0.315396,-0.15434 0.622531,-0.35164 0.92008,-0.535177 0.08853,-0.0177 0.119518,-0.09515 0.208012,-0.118927 0.0835,-0.131589 0.265189,-0.149442 0.367391,-0.271271 0.851027,-0.594049 1.621654,-1.29605 2.335712,-2.047079 0.654017,-0.715816 1.263988,-1.480308 1.759477,-2.314075 0.100533,-0.05987 0.08884,-0.205035 0.182066,-0.287496 0.06378,-0.151562 0.168112,-0.27339 0.249329,-0.408076 0.02798,-0.130638 0.136778,-0.22048 0.160771,-0.354534 0.121279,-0.111585 0.129228,-0.319287 0.228154,-0.457646 0.129218,-0.240603 0.208829,-0.507423 0.338892,-0.737635 0.02784,-0.15796 0.144906,-0.272447 0.151022,-0.442493 0.116722,-0.122583 0.09435,-0.321347 0.189266,-0.461241 0.03362,-0.209853 0.1514,-0.385761 0.171418,-0.601088 0.101799,-0.151907 0.06446,-0.358451 0.173143,-0.502784 0.106081,-0.666368 0.269769,-1.325556 0.322366,-2.001008 0.147742,-1.362536 0.109096,-2.744406 -0.08871,-4.098895 -0.107931,-0.497507 -0.163781,-1.012789 -0.319816,-1.4971 -0.01708,-0.206443 -0.138513,-0.369595 -0.151697,-0.577919 C 29.409077,10.409531 29.396452,10.18409 29.294096,9.993392 29.253186,9.848679 29.186732,9.70875 29.146673,9.566046 29.039015,9.455515 29.049103,9.261931 28.953191,9.131137 28.663066,8.497019 28.378171,7.849234 27.988586,7.272742 27.972886,7.162268 27.851401,7.117397 27.822608,6.99924 27.62585,6.68201 27.402296,6.367377 27.181509,6.074687 27.124229,5.899465 26.930443,5.812131 26.85167,5.639584 26.0784,4.679145 25.176522,3.823842 24.214305,3.056418 24.136825,2.976428 24.029658,2.972678 23.962193,2.879661 23.645457,2.649046 23.299032,2.434629 22.981456,2.220321 22.820983,2.097961 22.629691,2.008934 22.458877,1.902155 22.277328,1.835455 22.109079,1.697074 21.920894,1.626131 21.640809,1.494116 21.356386,1.352281 21.088579,1.208982 20.921048,1.188192 20.766489,1.083437 20.609642,1.036064 c -0.0884,-0.09448 -0.248479,-0.06875 -0.35506,-0.14914804 -0.20176,-0.03565 -0.35492,-0.161636 -0.562921,-0.176742 -0.190869,-0.121377 -0.440817,-0.111176 -0.649755,-0.205762 -0.798678,-0.210562 -1.620424,-0.337543 -2.435178,-0.43837 -0.476166,-0.109158 -0.977549,-0.0425 -1.463281,-0.06602000362 C 15.037191,-1.4904362e-4 14.930936,7.4995638e-4 14.82468,0.00102196 Z M 15.177944,1.55879 c 0.556248,0.100161 1.128828,0.06254 1.688316,0.134901 0.279661,0.08017 0.579789,0.06361 0.855292,0.161445 0.202878,0.0074 0.382793,0.07365 0.572445,0.126802 0.414919,0.05437 0.806726,0.208614 1.201204,0.334289 0.691741,0.244736 1.37553,0.525798 2.01323,0.89496 0.115709,0.109184 0.298479,0.121589 0.421948,0.230807 0.09566,0.03342 0.154261,0.123384 0.264026,0.142024 0.07584,0.119406 0.261842,0.130345 0.364133,0.237407 0.223004,0.127037 0.407165,0.331627 0.63041,0.442268 0.216754,0.201305 0.477189,0.354076 0.687877,0.568558 1.062835,0.935604 2.015097,2.004146 2.731419,3.22552 0.09766,0.173186 0.234266,0.340861 0.317318,0.53121 0.0829,0.219189 0.258798,0.381591 0.31474,0.607306 0.122941,0.281924 0.275981,0.558736 0.361209,0.850418 0.09168,0.08193 0.0762,0.242165 0.157621,0.338714 0.04445,0.199446 0.140808,0.386402 0.19144,0.585867 0.166337,0.492382 0.274921,1.00666 0.367207,1.517796 0.09884,0.271846 0.07041,0.575197 0.157698,0.850511 0.04493,0.477173 0.03971,0.961301 0.121224,1.431867 0.02849,0.370862 -0.0057,0.737876 -0.06107,1.10196 -0.02948,0.425454 -0.01963,0.857161 -0.127495,1.270206 -0.0091,0.20795 -0.04541,0.404223 -0.11113,0.597041 -0.06324,0.540208 -0.223171,1.065863 -0.397877,1.579359 -0.03735,0.162821 -0.125624,0.30487 -0.151622,0.473237 -0.109306,0.09201 -0.07201,0.273541 -0.166544,0.383631 -0.03671,0.104793 -0.04692,0.196905 -0.123877,0.274224 -0.0082,0.125916 -0.126632,0.179888 -0.130476,0.304968 -0.181734,0.437581 -0.431578,0.865243 -0.660404,1.270418 -0.158424,0.218977 -0.271647,0.483319 -0.459216,0.688298 -0.03617,0.09081 -0.08942,0.143949 -0.159945,0.205312 -0.01952,0.120499 -0.15226,0.187642 -0.182217,0.298895 -0.332148,0.416652 -0.673655,0.834548 -1.059608,1.205207 -0.487586,0.495591 -0.985108,0.993866 -1.551112,1.397189 -0.163786,0.153588 -0.359406,0.28266 -0.549724,0.386181 -0.06705,0.136137 -0.0194,-0.234452 -0.03689,-0.271676 -0.0359,-5.015102 0.009,-10.030542 -0.03539,-15.045534 -0.01061,-0.539076 0.0012,-1.105231 -0.27325,-1.589784 C 22.148235,8.889631 21.80905,8.547715 21.418077,8.294203 21.320857,8.209173 21.212698,8.177397 21.106509,8.114311 20.956383,8.099621 20.868396,7.957984 20.702108,7.98181 18.953789,7.89501 17.201407,7.94068 15.451424,7.92601 13.471886,7.93241 11.49156,7.91641 9.5125897,7.96277 c -0.231799,0.0239 -0.449821,0.11946 -0.664153,0.19099 -0.218099,0.161125 -0.481414,0.266896 -0.650299,0.493402 -0.318968,0.26096 -0.528553,0.636213 -0.646513,1.02087 -0.126786,0.168066 -0.06551,0.445549 -0.147723,0.609713 -0.06191,5.284983 -0.0031,10.570873 -0.05676,15.855986 -0.276381,-0.144215 -0.480362,-0.39003 -0.744688,-0.546726 -0.495033,-0.436413 -1.010399,-0.87065 -1.44644,-1.374858 -0.207851,-0.250959 -0.480161,-0.473256 -0.628504,-0.761572 -0.315934,-0.315592 -0.541797,-0.719728 -0.801903,-1.081377 -0.02853,-0.160917 -0.220119,-0.247817 -0.244004,-0.419847 -0.109936,-0.07008 -0.08432,-0.233567 -0.19414,-0.311044 -0.100969,-0.210981 -0.251763,-0.377214 -0.31973,-0.601958 -0.175745,-0.362985 -0.333473,-0.730133 -0.472574,-1.104728 -0.08398,-0.110917 -0.06981,-0.280397 -0.155447,-0.398627 -0.02151,-0.196009 -0.150382,-0.340284 -0.16002,-0.539901 -0.106058,-0.219322 -0.117399,-0.47295 -0.211686,-0.700371 -0.147927,-0.572214 -0.194527,-1.164782 -0.311518,-1.741602 -0.03386,-1.026613 -0.05352,-2.064902 0.01832,-3.085261 0.130414,-0.611372 0.167946,-1.248401 0.362408,-1.843911 0.06848,-0.239153 0.139601,-0.48233 0.208762,-0.716194 0.10144,-0.123508 0.06114,-0.310328 0.167219,-0.43237 0.05985,-0.225773 0.141914,-0.44448 0.232832,-0.658454 0.124843,-0.227774 0.213136,-0.495504 0.329265,-0.715519 0.09121,-0.12212 0.114173,-0.283584 0.217334,-0.403917 0.104558,-0.215015 0.240306,-0.429685 0.35631,-0.626468 0.07023,-0.04887 0.05071,-0.146772 0.137675,-0.183792 0.05912,-0.152793 0.138012,-0.288115 0.246605,-0.414372 0.119736,-0.195033 0.275617,-0.371361 0.401351,-0.553699 0.03981,-0.128887 0.198782,-0.201376 0.254421,-0.332226 0.491017,-0.602906 1.028428,-1.162736 1.616399,-1.670018 0.418798,-0.371815 0.865343,-0.717873 1.328617,-1.023675 0.102066,-0.0166 0.113086,-0.141086 0.224959,-0.1388 0.256822,-0.220158 0.58494,-0.347708 0.863991,-0.532327 0.222034,-0.08186 0.423085,-0.246181 0.661378,-0.303844 0.06222,-0.102156 0.222185,-0.08571 0.289372,-0.178842 C 10.129233,2.519214 10.675769,2.2937 11.248223,2.126368 11.4968,2.077398 11.736464,1.98403 11.990062,1.950375 c 0.217046,-0.103989 0.479884,-0.06303 0.698271,-0.162569 0.289546,-0.01747 0.569556,-0.0794 0.852519,-0.125003 0.544977,-0.04358 1.091708,-0.06783 1.637099,-0.104006 z m -4.855882,7.13194 c 0.206474,0.005 0.503383,-0.05527 0.588942,0.197288 0.10115,0.20556 0.234708,0.389184 0.331139,0.592841 0.11072,0.146336 0.224682,0.333057 0.440169,0.265676 2.271033,0 4.542065,0 6.813098,0 0.277709,-0.222349 0.415754,-0.574952 0.593441,-0.876064 0.07028,-0.249406 0.402318,-0.150531 0.59365,-0.169269 0.336202,0.02676 0.706086,0.0033 1.021778,0.128252 0.08035,0.07712 0.216576,0.02686 0.2707,0.141124 0.09654,0.0269 0.14712,0.0909 0.223159,0.14045 0.205996,0.113486 0.325001,0.355808 0.457191,0.547024 0.24054,0.426891 0.117875,0.93229 0.1603,1.40126 0.02383,5.235561 0.0069,10.471239 0.01209,15.706846 -0.117084,0.347593 -0.445295,0.538191 -0.759215,0.678128 -0.235571,0.130571 -0.497526,0.229618 -0.739009,0.33456 -0.07165,0.08513 -0.231818,0.08938 -0.331514,0.155371 -0.111277,0.02595 -0.223177,0.04095 -0.303845,0.119528 -0.180796,0.04004 -0.33616,0.134618 -0.521528,0.163546 -0.14657,0.0899 -0.331422,0.09255 -0.482462,0.172918 -0.24062,0.015 -0.440996,0.140166 -0.6811,0.153497 -0.502145,0.170488 -1.045403,0.185347 -1.564962,0.286071 -0.900113,0.03612 -1.810176,0.07551 -2.71128,0.01117 -0.446205,-0.04179 -0.8854,-0.120992 -1.324703,-0.20388 -0.238243,-0.0362 -0.466473,-0.113426 -0.703146,-0.160319 -0.16692,-0.06962 -0.352375,-0.06925 -0.508107,-0.160097 -0.14589,-0.01106 -0.275938,-0.06212 -0.402901,-0.119827 -0.174254,-0.04329 -0.345573,-0.126713 -0.51643,-0.17247 -0.09768,-0.08663 -0.247293,-0.06783 -0.3327143,-0.167894 -0.437124,-0.114779 -0.83298,-0.353436 -1.233673,-0.555796 -0.06185,-0.08735 -0.203287,-0.06701 -0.256752,-0.180942 -0.154605,-0.137723 -0.224103,-0.332098 -0.186521,-0.537724 -0.01354,-5.298637 -0.01299,-10.597464 0.01843,-15.896026 0.02873,-0.354202 -0.04853,-0.737358 0.119274,-1.063834 0.09328,-0.06768 0.106987,-0.220254 0.222259,-0.290347 0.136443,-0.141661 0.275055,-0.297583 0.453668,-0.376131 0.06468,-0.07258 0.195643,-0.07399 0.269874,-0.143449 0.327263,-0.04558 0.634039,-0.149302 0.9706973,-0.121477 z M 0.29572968,12.155993 c 8.14e-4,-0.001 0.0044,-0.0016 0,0 z M 29.9728,12.649627 c 0.0072,0.01111 -0.03117,-0.03069 0,0 z m -29.92227532,1.16791 c 0.0016,-0.0047 0.01567,-0.0098 0,0 z m 0.0065,2.538509 c -0.0043,6.43e-4 -0.01298,-0.01502 0,0 z"
       id="path371" /><path
       style="fill:#e0effe;stroke:#3b7844;stroke-width:0;stroke-opacity:0.473684;fill-opacity:1"
       d="m 10.273846,8.703702 c -0.5027643,4.07e-4 -1.0466943,0.0601 -1.4297623,0.422473 -0.320122,0.25047 -0.592292,0.629019 -0.558552,1.054721 -0.08333,3.873429 -0.05524,7.748395 -0.06274,11.622522 0.0099,1.654846 -0.01038,3.311162 0.03445,4.965065 0.116004,0.473104 0.666665,0.592073 1.028356,0.816106 0.310738,0.196291 0.6645,0.295032 1.0006413,0.439478 0.189013,0.04956 0.373312,0.13926 0.556303,0.192549 0.157454,0.09398 0.360939,0.07018 0.519729,0.167744 0.246042,0.05293 0.481279,0.136445 0.730441,0.177266 0.197187,0.09659 0.437637,0.05714 0.636932,0.152073 0.244325,0.04351 0.500603,0.03204 0.730141,0.124552 1.002747,0.0696 2.011625,0.02649 3.015871,1.7e-4 0.248917,-0.0314 0.493269,-0.10006 0.748629,-0.112366 0.294583,-0.08851 0.610394,-0.08791 0.897994,-0.205125 0.383298,-0.07743 0.746841,-0.201514 1.114745,-0.318091 0.133676,-0.05353 0.277833,-0.05192 0.398177,-0.138724 0.219216,-0.08181 0.455401,-0.152017 0.657554,-0.257128 0.152077,-0.06386 0.310054,-0.127515 0.457791,-0.189267 0.08205,-0.08352 0.228508,-0.09233 0.32139,-0.178992 0.246301,-0.131767 0.553494,-0.26109 0.672252,-0.525728 0.104192,-0.176115 0.03038,-0.423512 0.06103,-0.624675 0.03474,-4.913619 0.02175,-9.82756 0.01027,-14.741272 -0.01383,-0.538328 0.01308,-1.08117 -0.03957,-1.616781 C 21.686438,9.844412 21.693568,9.685812 21.59985,9.588635 21.330723,9.142925 20.87015,8.815979 20.352005,8.74549 20.062885,8.65012 19.733809,8.70801 19.430799,8.699 19.269388,8.68232 19.106932,8.77965 19.071615,8.934156 18.955543,9.072674 18.89367,9.254537 18.781493,9.398021 c -0.04321,0.209708 -0.242938,0.343487 -0.448166,0.320334 -2.250718,0.04434 -4.503075,0.05037 -6.753761,0.0031 C 11.317473,9.739395 11.241186,9.434722 11.116852,9.259528 11.032922,9.063319 10.868766,8.913213 10.829263,8.70196 10.655806,8.6736 10.454681,8.70816 10.273857,8.70376 Z"
       id="path373" /></g></svg>
