<svg width="125" height="124" viewBox="0 0 125 124" fill="none" xmlns="http://www.w3.org/2000/svg">
    <path d="M13.4167 7.75H8.25V12.9167H13.4167V7.75Z" fill="black" />
    <path d="M18.5833 7.75H13.4167V12.9167H18.5833V7.75Z" fill="black" />
    <path d="M23.75 7.75H18.5833V12.9167H23.75V7.75Z" fill="black" />
    <path d="M28.9167 7.75H23.75V12.9167H28.9167V7.75Z" fill="black" />
    <path d="M34.0833 7.75H28.9167V12.9167H34.0833V7.75Z" fill="black" />
    <path d="M39.25 7.75H34.0833V12.9167H39.25V7.75Z" fill="black" />
    <path d="M44.4167 7.75H39.25V12.9167H44.4167V7.75Z" fill="black" />
    <path d="M54.75 7.75H49.5833V12.9167H54.75V7.75Z" fill="black" />
    <path d="M59.9167 7.75H54.75V12.9167H59.9167V7.75Z" fill="black" />
    <path d="M65.0833 7.75H59.9167V12.9167H65.0833V7.75Z" fill="black" />
    <path d="M70.25 7.75H65.0833V12.9167H70.25V7.75Z" fill="black" />
    <path d="M85.75 7.75H80.5833V12.9167H85.75V7.75Z" fill="black" />
    <path d="M90.9167 7.75H85.75V12.9167H90.9167V7.75Z" fill="black" />
    <path d="M96.0833 7.75H90.9167V12.9167H96.0833V7.75Z" fill="black" />
    <path d="M101.25 7.75H96.0833V12.9167H101.25V7.75Z" fill="black" />
    <path d="M106.417 7.75H101.25V12.9167H106.417V7.75Z" fill="black" />
    <path d="M111.583 7.75H106.417V12.9167H111.583V7.75Z" fill="black" />
    <path d="M116.75 7.75H111.583V12.9167H116.75V7.75Z" fill="black" />
    <path d="M13.4167 12.9167H8.25V18.0833H13.4167V12.9167Z" fill="black" />
    <path d="M44.4167 12.9167H39.25V18.0833H44.4167V12.9167Z" fill="black" />
    <path d="M59.9167 12.9167H54.75L54.75 18.0833H59.9167V12.9167Z" fill="black" />
    <path d="M70.25 12.9167H65.0833L65.0833 18.0833H70.25V12.9167Z" fill="black" />
    <path d="M75.4167 12.9167H70.25V18.0833H75.4167V12.9167Z" fill="black" />
    <path d="M85.75 12.9167H80.5833V18.0833H85.75V12.9167Z" fill="black" />
    <path d="M116.75 12.9167H111.583V18.0833H116.75V12.9167Z" fill="black" />
    <path d="M13.4167 18.0833H8.25V23.25H13.4167V18.0833Z" fill="black" />
    <path d="M23.75 18.0833H18.5833V23.25H23.75V18.0833Z" fill="black" />
    <path d="M28.9167 18.0833H23.75V23.25H28.9167V18.0833Z" fill="black" />
    <path d="M34.0833 18.0833H28.9167V23.25H34.0833V18.0833Z" fill="black" />
    <path d="M44.4167 18.0833H39.25V23.25H44.4167V18.0833Z" fill="black" />
    <path d="M54.75 18.0833H49.5833V23.25H54.75L54.75 18.0833Z" fill="black" />
    <path d="M65.0833 18.0833H59.9167L59.9167 23.25H65.0833L65.0833 18.0833Z" fill="black" />
    <path d="M70.25 18.0833H65.0833L65.0833 23.25H70.25V18.0833Z" fill="black" />
    <path d="M85.75 18.0833H80.5833V23.25H85.75V18.0833Z" fill="black" />
    <path d="M96.0833 18.0833H90.9167V23.25H96.0833V18.0833Z" fill="black" />
    <path d="M101.25 18.0833H96.0833V23.25H101.25V18.0833Z" fill="black" />
    <path d="M106.417 18.0833H101.25V23.25H106.417V18.0833Z" fill="black" />
    <path d="M116.75 18.0833H111.583V23.25H116.75V18.0833Z" fill="black" />
    <path d="M13.4167 23.25H8.25V28.4167H13.4167V23.25Z" fill="black" />
    <path d="M23.75 23.25H18.5833V28.4167H23.75V23.25Z" fill="black" />
    <path d="M28.9167 23.25H23.75V28.4167H28.9167V23.25Z" fill="black" />
    <path d="M34.0833 23.25H28.9167V28.4167H34.0833V23.25Z" fill="black" />
    <path d="M44.4167 23.25H39.25V28.4167H44.4167V23.25Z" fill="black" />
    <path d="M70.25 23.25H65.0833L65.0833 28.4167H70.25V23.25Z" fill="black" />
    <path d="M85.75 23.25H80.5833V28.4167H85.75V23.25Z" fill="black" />
    <path d="M96.0833 23.25H90.9167V28.4167H96.0833V23.25Z" fill="black" />
    <path d="M101.25 23.25H96.0833V28.4167H101.25V23.25Z" fill="black" />
    <path d="M106.417 23.25H101.25V28.4167H106.417V23.25Z" fill="black" />
    <path d="M116.75 23.25H111.583V28.4167H116.75V23.25Z" fill="black" />
    <path d="M13.4167 28.4167H8.25V33.5833H13.4167V28.4167Z" fill="black" />
    <path d="M23.75 28.4167H18.5833V33.5833H23.75V28.4167Z" fill="black" />
    <path d="M28.9167 28.4167H23.75V33.5833H28.9167V28.4167Z" fill="black" />
    <path d="M34.0833 28.4167H28.9167V33.5833H34.0833V28.4167Z" fill="black" />
    <path d="M44.4167 28.4167H39.25V33.5833H44.4167V28.4167Z" fill="black" />
    <path d="M54.75 28.4167H49.5833V33.5833H54.75V28.4167Z" fill="black" />
    <path d="M59.9167 28.4167H54.75V33.5833H59.9167V28.4167Z" fill="black" />
    <path d="M70.25 28.4167H65.0833V33.5833H70.25V28.4167Z" fill="black" />
    <path d="M75.4167 28.4167H70.25V33.5833H75.4167V28.4167Z" fill="black" />
    <path d="M85.75 28.4167H80.5833V33.5833H85.75V28.4167Z" fill="black" />
    <path d="M96.0833 28.4167H90.9167V33.5833H96.0833V28.4167Z" fill="black" />
    <path d="M101.25 28.4167H96.0833V33.5833H101.25V28.4167Z" fill="black" />
    <path d="M106.417 28.4167H101.25V33.5833H106.417V28.4167Z" fill="black" />
    <path d="M116.75 28.4167H111.583V33.5833H116.75V28.4167Z" fill="black" />
    <path d="M13.4167 33.5833H8.25V38.75H13.4167V33.5833Z" fill="black" />
    <path d="M44.4167 33.5833H39.25V38.75H44.4167V33.5833Z" fill="black" />
    <path d="M59.9167 33.5833H54.75L54.75 38.75H59.9167V33.5833Z" fill="black" />
    <path d="M75.4167 33.5833H70.25V38.75H75.4167V33.5833Z" fill="black" />
    <path d="M85.75 33.5833H80.5833V38.75H85.75V33.5833Z" fill="black" />
    <path d="M116.75 33.5833H111.583V38.75H116.75V33.5833Z" fill="black" />
    <path d="M13.4167 38.75H8.25V43.9167H13.4167V38.75Z" fill="black" />
    <path d="M18.5833 38.75H13.4167V43.9167H18.5833V38.75Z" fill="black" />
    <path d="M23.75 38.75H18.5833V43.9167H23.75V38.75Z" fill="black" />
    <path d="M28.9167 38.75H23.75V43.9167H28.9167V38.75Z" fill="black" />
    <path d="M34.0833 38.75H28.9167V43.9167H34.0833V38.75Z" fill="black" />
    <path d="M39.25 38.75H34.0833V43.9167H39.25V38.75Z" fill="black" />
    <path d="M44.4167 38.75H39.25V43.9167H44.4167V38.75Z" fill="black" />
    <path d="M54.75 38.75H49.5833V43.9167H54.75L54.75 38.75Z" fill="black" />
    <path d="M65.0833 38.75H59.9167L59.9167 43.9167H65.0833V38.75Z" fill="black" />
    <path d="M75.4167 38.75H70.25V43.9167H75.4167V38.75Z" fill="black" />
    <path d="M85.75 38.75H80.5833V43.9167H85.75V38.75Z" fill="black" />
    <path d="M90.9167 38.75H85.75V43.9167H90.9167V38.75Z" fill="black" />
    <path d="M96.0833 38.75H90.9167V43.9167H96.0833V38.75Z" fill="black" />
    <path d="M101.25 38.75H96.0833V43.9167H101.25V38.75Z" fill="black" />
    <path d="M106.417 38.75H101.25V43.9167H106.417V38.75Z" fill="black" />
    <path d="M111.583 38.75H106.417V43.9167H111.583V38.75Z" fill="black" />
    <path d="M116.75 38.75H111.583V43.9167H116.75V38.75Z" fill="black" />
    <path d="M59.9167 43.9167H54.75L54.75 49.0833H59.9167L59.9167 43.9167Z" fill="black" />
    <path d="M65.0833 43.9167H59.9167L59.9167 49.0833H65.0833V43.9167Z" fill="black" />
    <path d="M70.25 43.9167H65.0833V49.0833H70.25V43.9167Z" fill="black" />
    <path d="M18.5833 49.0833H13.4167V54.25H18.5833V49.0833Z" fill="black" />
    <path d="M34.0833 49.0833H28.9167V54.25H34.0833V49.0833Z" fill="black" />
    <path d="M44.4167 49.0833H39.25V54.25H44.4167V49.0833Z" fill="black" />
    <path d="M59.9167 49.0833H54.75V54.25H59.9167V49.0833Z" fill="black" />
    <path d="M65.0833 49.0833H59.9167V54.25H65.0833V49.0833Z" fill="black" />
    <path d="M80.5833 49.0833H75.4167V54.25H80.5833V49.0833Z" fill="black" />
    <path d="M96.0833 49.0833H90.9167V54.25H96.0833V49.0833Z" fill="black" />
    <path d="M106.417 49.0833H101.25V54.25H106.417V49.0833Z" fill="black" />
    <path d="M116.75 49.0833H111.583V54.25H116.75V49.0833Z" fill="black" />
    <path d="M13.4167 54.25L8.25 54.25V59.4167H13.4167V54.25Z" fill="black" />
    <path d="M18.5833 54.25H13.4167V59.4167H18.5833V54.25Z" fill="black" />
    <path d="M23.75 54.25L18.5833 54.25V59.4167H23.75V54.25Z" fill="black" />
    <path d="M28.9167 54.25L23.75 54.25V59.4167H28.9167V54.25Z" fill="black" />
    <path d="M34.0833 54.25H28.9167V59.4167H34.0833V54.25Z" fill="black" />
    <path d="M65.0833 54.25H59.9167L59.9167 59.4167H65.0833V54.25Z" fill="black" />
    <path d="M70.25 54.25L65.0833 54.25V59.4167H70.25V54.25Z" fill="black" />
    <path d="M75.4167 54.25L70.25 54.25V59.4167H75.4167V54.25Z" fill="black" />
    <path d="M85.75 54.25L80.5833 54.25V59.4167H85.75V54.25Z" fill="black" />
    <path d="M101.25 54.25H96.0833V59.4167H101.25V54.25Z" fill="black" />
    <path d="M111.583 54.25H106.417V59.4167H111.583V54.25Z" fill="black" />
    <path d="M34.0833 59.4167H28.9167V64.5833H34.0833V59.4167Z" fill="black" />
    <path d="M39.25 59.4167L34.0833 59.4167V64.5833H39.25V59.4167Z" fill="black" />
    <path d="M44.4167 59.4167H39.25V64.5833H44.4167V59.4167Z" fill="black" />
    <path d="M49.5833 59.4167H44.4167V64.5833H49.5833V59.4167Z" fill="black" />
    <path d="M59.9167 59.4167L54.75 59.4167V64.5833H59.9167L59.9167 59.4167Z" fill="black" />
    <path d="M75.4167 59.4167H70.25V64.5833H75.4167V59.4167Z" fill="black" />
    <path d="M80.5833 59.4167H75.4167V64.5833H80.5833V59.4167Z" fill="black" />
    <path d="M85.75 59.4167H80.5833V64.5833H85.75V59.4167Z" fill="black" />
    <path d="M90.9167 59.4167L85.75 59.4167V64.5833H90.9167V59.4167Z" fill="black" />
    <path d="M96.0833 59.4167L90.9167 59.4167V64.5833H96.0833V59.4167Z" fill="black" />
    <path d="M101.25 59.4167H96.0833V64.5833H101.25V59.4167Z" fill="black" />
    <path d="M111.583 59.4167H106.417V64.5833H111.583V59.4167Z" fill="black" />
    <path d="M116.75 59.4167L111.583 59.4167V64.5833H116.75V59.4167Z" fill="black" />
    <path d="M13.4167 64.5833H8.25V69.75H13.4167V64.5833Z" fill="black" />
    <path d="M18.5833 64.5833H13.4167V69.75H18.5833V64.5833Z" fill="black" />
    <path d="M23.75 64.5833H18.5833V69.75H23.75V64.5833Z" fill="black" />
    <path d="M49.5833 64.5833H44.4167V69.75H49.5833V64.5833Z" fill="black" />
    <path d="M54.75 64.5833H49.5833V69.75H54.75L54.75 64.5833Z" fill="black" />
    <path d="M80.5833 64.5833H75.4167V69.75H80.5833V64.5833Z" fill="black" />
    <path d="M85.75 64.5833H80.5833V69.75H85.75V64.5833Z" fill="black" />
    <path d="M90.9167 64.5833H85.75V69.75H90.9167V64.5833Z" fill="black" />
    <path d="M96.0833 64.5833H90.9167V69.75H96.0833V64.5833Z" fill="black" />
    <path d="M13.4167 69.75H8.25V74.9167H13.4167V69.75Z" fill="black" />
    <path d="M34.0833 69.75H28.9167V74.9167H34.0833V69.75Z" fill="black" />
    <path d="M39.25 69.75H34.0833V74.9167H39.25V69.75Z" fill="black" />
    <path d="M44.4167 69.75H39.25V74.9167H44.4167V69.75Z" fill="black" />
    <path d="M49.5833 69.75H44.4167V74.9167H49.5833V69.75Z" fill="black" />
    <path d="M65.0833 69.75H59.9167V74.9167H65.0833V69.75Z" fill="black" />
    <path d="M75.4167 69.75H70.25V74.9167H75.4167V69.75Z" fill="black" />
    <path d="M90.9167 69.75H85.75V74.9167H90.9167V69.75Z" fill="black" />
    <path d="M106.417 69.75H101.25V74.9167H106.417V69.75Z" fill="black" />
    <path d="M116.75 69.75H111.583V74.9167H116.75V69.75Z" fill="black" />
    <path d="M59.9167 74.9167H54.75V80.0833H59.9167L59.9167 74.9167Z" fill="black" />
    <path d="M65.0833 74.9167H59.9167L59.9167 80.0833H65.0833V74.9167Z" fill="black" />
    <path d="M70.25 74.9167H65.0833V80.0833H70.25V74.9167Z" fill="black" />
    <path d="M85.75 74.9167H80.5833V80.0833H85.75V74.9167Z" fill="black" />
    <path d="M90.9167 74.9167H85.75V80.0833H90.9167V74.9167Z" fill="black" />
    <path d="M13.4167 80.0833H8.25V85.25H13.4167V80.0833Z" fill="black" />
    <path d="M18.5833 80.0833H13.4167V85.25H18.5833V80.0833Z" fill="black" />
    <path d="M23.75 80.0833H18.5833V85.25H23.75V80.0833Z" fill="black" />
    <path d="M28.9167 80.0833H23.75V85.25H28.9167V80.0833Z" fill="black" />
    <path d="M34.0833 80.0833H28.9167V85.25H34.0833V80.0833Z" fill="black" />
    <path d="M39.25 80.0833H34.0833V85.25H39.25V80.0833Z" fill="black" />
    <path d="M44.4167 80.0833H39.25V85.25H44.4167V80.0833Z" fill="black" />
    <path d="M59.9167 80.0833H54.75V85.25H59.9167V80.0833Z" fill="black" />
    <path d="M80.5833 80.0833H75.4167V85.25H80.5833V80.0833Z" fill="black" />
    <path d="M96.0833 80.0833H90.9167V85.25H96.0833V80.0833Z" fill="black" />
    <path d="M101.25 80.0833H96.0833V85.25H101.25V80.0833Z" fill="black" />
    <path d="M111.583 80.0833H106.417V85.25H111.583V80.0833Z" fill="black" />
    <path d="M116.75 80.0833H111.583V85.25H116.75V80.0833Z" fill="black" />
    <path d="M13.4167 85.25H8.25V90.4167H13.4167V85.25Z" fill="black" />
    <path d="M44.4167 85.25H39.25V90.4167H44.4167V85.25Z" fill="black" />
    <path d="M59.9167 85.25H54.75V90.4167H59.9167V85.25Z" fill="black" />
    <path d="M65.0833 85.25H59.9167V90.4167H65.0833V85.25Z" fill="black" />
    <path d="M70.25 85.25H65.0833V90.4167H70.25V85.25Z" fill="black" />
    <path d="M75.4167 85.25H70.25V90.4167H75.4167V85.25Z" fill="black" />
    <path d="M80.5833 85.25H75.4167V90.4167H80.5833V85.25Z" fill="black" />
    <path d="M85.75 85.25H80.5833V90.4167H85.75V85.25Z" fill="black" />
    <path d="M101.25 85.25H96.0833V90.4167H101.25V85.25Z" fill="black" />
    <path d="M106.417 85.25H101.25V90.4167H106.417V85.25Z" fill="black" />
    <path d="M111.583 85.25H106.417V90.4167H111.583V85.25Z" fill="black" />
    <path d="M116.75 85.25H111.583V90.4167H116.75V85.25Z" fill="black" />
    <path d="M13.4167 90.4167H8.25V95.5833H13.4167V90.4167Z" fill="black" />
    <path d="M23.75 90.4167H18.5833V95.5833H23.75V90.4167Z" fill="black" />
    <path d="M28.9167 90.4167H23.75V95.5833H28.9167V90.4167Z" fill="black" />
    <path d="M34.0833 90.4167H28.9167V95.5833H34.0833V90.4167Z" fill="black" />
    <path d="M44.4167 90.4167H39.25V95.5833H44.4167V90.4167Z" fill="black" />
    <path d="M54.75 90.4167H49.5833V95.5833H54.75L54.75 90.4167Z" fill="black" />
    <path d="M59.9167 90.4167H54.75L54.75 95.5833H59.9167V90.4167Z" fill="black" />
    <path d="M65.0833 90.4167H59.9167V95.5833H65.0833V90.4167Z" fill="black" />
    <path d="M70.25 90.4167H65.0833V95.5833H70.25V90.4167Z" fill="black" />
    <path d="M80.5833 90.4167H75.4167V95.5833H80.5833V90.4167Z" fill="black" />
    <path d="M85.75 90.4167H80.5833V95.5833H85.75V90.4167Z" fill="black" />
    <path d="M101.25 90.4167H96.0833V95.5833H101.25V90.4167Z" fill="black" />
    <path d="M106.417 90.4167H101.25V95.5833H106.417V90.4167Z" fill="black" />
    <path d="M13.4167 95.5833H8.25V100.75H13.4167V95.5833Z" fill="black" />
    <path d="M23.75 95.5833H18.5833V100.75H23.75V95.5833Z" fill="black" />
    <path d="M28.9167 95.5833H23.75V100.75H28.9167V95.5833Z" fill="black" />
    <path d="M34.0833 95.5833H28.9167V100.75H34.0833V95.5833Z" fill="black" />
    <path d="M44.4167 95.5833H39.25V100.75H44.4167V95.5833Z" fill="black" />
    <path d="M59.9167 95.5833H54.75L54.75 100.75H59.9167V95.5833Z" fill="black" />
    <path d="M85.75 95.5833H80.5833V100.75H85.75V95.5833Z" fill="black" />
    <path d="M90.9167 95.5833H85.75V100.75H90.9167V95.5833Z" fill="black" />
    <path d="M13.4167 100.75H8.25V105.917H13.4167V100.75Z" fill="black" />
    <path d="M23.75 100.75H18.5833V105.917H23.75V100.75Z" fill="black" />
    <path d="M28.9167 100.75H23.75V105.917H28.9167V100.75Z" fill="black" />
    <path d="M34.0833 100.75H28.9167V105.917H34.0833V100.75Z" fill="black" />
    <path d="M44.4167 100.75H39.25V105.917H44.4167V100.75Z" fill="black" />
    <path d="M65.0833 100.75H59.9167L59.9167 105.917H65.0833V100.75Z" fill="black" />
    <path d="M80.5833 100.75H75.4167V105.917H80.5833V100.75Z" fill="black" />
    <path d="M85.75 100.75H80.5833V105.917H85.75V100.75Z" fill="black" />
    <path d="M101.25 100.75H96.0833V105.917H101.25V100.75Z" fill="black" />
    <path d="M13.4167 105.917H8.25V111.083H13.4167V105.917Z" fill="black" />
    <path d="M44.4167 105.917H39.25V111.083H44.4167V105.917Z" fill="black" />
    <path d="M54.75 105.917H49.5833V111.083H54.75V105.917Z" fill="black" />
    <path d="M65.0833 105.917H59.9167V111.083H65.0833V105.917Z" fill="black" />
    <path d="M75.4167 105.917H70.25V111.083H75.4167V105.917Z" fill="black" />
    <path d="M80.5833 105.917H75.4167V111.083H80.5833V105.917Z" fill="black" />
    <path d="M85.75 105.917H80.5833V111.083H85.75V105.917Z" fill="black" />
    <path d="M101.25 105.917H96.0833V111.083H101.25V105.917Z" fill="black" />
    <path d="M111.583 105.917H106.417V111.083H111.583V105.917Z" fill="black" />
    <path d="M116.75 105.917H111.583V111.083H116.75V105.917Z" fill="black" />
    <path d="M13.4167 111.083H8.25V116.25H13.4167V111.083Z" fill="black" />
    <path d="M18.5833 111.083H13.4167V116.25H18.5833V111.083Z" fill="black" />
    <path d="M23.75 111.083H18.5833V116.25H23.75V111.083Z" fill="black" />
    <path d="M28.9167 111.083H23.75V116.25H28.9167V111.083Z" fill="black" />
    <path d="M34.0833 111.083H28.9167V116.25H34.0833V111.083Z" fill="black" />
    <path d="M39.25 111.083H34.0833V116.25H39.25V111.083Z" fill="black" />
    <path d="M44.4167 111.083H39.25V116.25H44.4167V111.083Z" fill="black" />
    <path d="M59.9167 111.083H54.75L54.75 116.25H59.9167L59.9167 111.083Z" fill="black" />
    <path d="M65.0833 111.083H59.9167L59.9167 116.25H65.0833V111.083Z" fill="black" />
    <path d="M70.25 111.083H65.0833V116.25H70.25V111.083Z" fill="black" />
    <path d="M75.4167 111.083H70.25V116.25H75.4167V111.083Z" fill="black" />
    <path d="M80.5833 111.083H75.4167V116.25H80.5833V111.083Z" fill="black" />
    <path d="M85.75 111.083H80.5833V116.25H85.75V111.083Z" fill="black" />
    <path d="M106.417 111.083H101.25V116.25H106.417V111.083Z" fill="black" />
    <path d="M116.75 111.083H111.583V116.25H116.75V111.083Z" fill="black" />
</svg>