<svg width="24" height="24" viewBox="0 0 24 24" fill="none" xmlns="http://www.w3.org/2000/svg">
<path fill-rule="evenodd" clip-rule="evenodd" d="M11.525 1.6001C6.04358 1.6001 1.60001 6.04367 1.60001 11.5251C1.60001 17.0065 6.04358 21.4501 11.525 21.4501C15.0709 21.4501 18.3474 19.5584 20.1203 16.4876C21.8932 13.4168 21.8932 9.6334 20.1203 6.5626C18.3474 3.49179 15.0709 1.6001 11.525 1.6001ZM11.525 3.4001C14.4278 3.4001 17.1101 4.94871 18.5615 7.4626C20.0129 9.97648 20.0129 13.0737 18.5615 15.5876C17.1101 18.1015 14.4278 19.6501 11.525 19.6501C7.03769 19.6501 3.40001 16.0124 3.40001 11.5251C3.40001 7.03778 7.03769 3.4001 11.525 3.4001ZM20.1442 18.8832C19.7915 18.6147 19.2858 18.6415 18.9636 18.9637C18.6121 19.3152 18.6121 19.885 18.9636 20.2365L20.8636 22.1365L20.9558 22.217C21.3085 22.4855 21.8142 22.4587 22.1364 22.1365C22.4879 21.785 22.4879 21.2152 22.1364 20.8637L20.2364 18.9637L20.1442 18.8832Z" fill="#8E8E95"/>
</svg>
