<svg width="32" height="33" viewBox="0 0 32 33" fill="none" xmlns="http://www.w3.org/2000/svg">
<path d="M11.7887 28.75C8.55374 28.75 5.53817 27.8091 3 26.1856C5.15499 26.3251 8.95807 25.9911 11.3236 23.7348C7.76508 23.5715 6.16026 20.8423 5.95094 19.676C6.25329 19.7926 7.6953 19.9326 8.50934 19.606C4.4159 18.5796 3.78793 14.9873 3.92748 13.891C4.695 14.4275 5.99745 14.6141 6.50913 14.5674C2.69479 11.8382 4.06703 7.73276 4.74151 6.84635C7.47882 10.6387 11.5812 12.7686 16.6564 12.887C16.5607 12.4674 16.5102 12.0304 16.5102 11.5816C16.5102 8.36092 19.1134 5.75 22.3247 5.75C24.0025 5.75 25.5144 6.46275 26.5757 7.60284C27.6969 7.34011 29.3843 6.72507 30.2092 6.1932C29.7934 7.68611 28.4989 8.93149 27.7159 9.39308C27.7224 9.40878 27.7095 9.37731 27.7159 9.39308C28.4037 9.28904 30.2648 8.93137 31 8.43256C30.6364 9.27125 29.264 10.6657 28.1377 11.4464C28.3473 20.6881 21.2765 28.75 11.7887 28.75Z" fill="#47ACDF"/>
</svg>
