<svg
   width="32"
   height="32"
   viewBox="0 0 32 32"
   xmlns="http://www.w3.org/2000/svg">
  <path
     fill="#00ff00"
     d="M 7.444444,30 H 24.555556 C 27.562444,30 30,27.562444 30,24.555556 V 7.444444 C 30,4.4375556 27.562444,2 24.555556,2 H 7.444444 C 4.4375556,2 2,4.4375556 2,7.444444 V 24.555556 C 2,27.562444 4.4375556,30 7.444444,30 Z"
     id="path2"
     style="stroke-width:0.777778" />
  <path
     fill="#ffffff"
     d="m 24.905556,21.476333 -3.587112,-2.373 c -0.437888,-0.265222 -0.985444,-0.269889 -1.428,-0.01322 0,0 0,0 -1.538444,0.896778 -0.206111,0.119778 -0.404444,0.142333 -0.564667,0.112778 -0.203777,-0.03733 -0.343777,-0.148556 -0.353111,-0.156334 C 16.588778,19.323444 15.601,18.502889 14.547889,17.450556 13.495556,16.398222 12.675,15.410444 12.055111,14.564222 c -0.007,-0.01011 -0.119,-0.150111 -0.156333,-0.353111 -0.02878,-0.160222 -0.007,-0.357778 0.112778,-0.564667 C 12.908333,12.108 12.908333,12.108 12.908333,12.108 c 0.257445,-0.442556 0.252,-0.990889 -0.01322,-1.428 l -2.373,-3.587111 c -0.294,-0.444111 -0.895222,-0.561556 -1.333111,-0.258222 0,0 -1.123889,0.769222 -1.494889,1.030555 -0.594222,0.418445 -0.785555,1.054667 -0.786333,1.941334 -0.0016,1.247555 1.073333,5.155888 5.600778,9.683333 v 0 0 0 0 c 4.528222,4.528222 8.435777,5.602333 9.683333,5.600778 0.886667,-7.78e-4 1.522889,-0.192889 1.941333,-0.786334 0.261334,-0.371 1.030556,-1.494889 1.030556,-1.494889 0.303333,-0.437888 0.186666,-1.039111 -0.258222,-1.333111 z"
     id="path4"
     style="stroke-width:0.777778" />
</svg>
