<svg
   width="32"
   height="32"
   viewBox="0 0 32 32"
   fill="none"
   xmlns="http://www.w3.org/2000/svg">
  <path
     d="m 29.437757,22.854426 -0.499058,-0.671493 c -0.223874,-0.301285 -0.304769,-0.686507 -0.216588,-1.051393 0.203412,-0.841331 0.454651,-2.498969 -0.302045,-3.988417 -0.165846,-0.32656 -0.288173,-0.674787 -0.34867,-1.036127 -0.42133,-2.51658 0.847792,-5.907938 0.872117,-5.984969 C 29.388092,8.7159451 29.564645,8.1548683 28.490319,7.6378191 27.321098,7.075032 26.282246,7.7251091 25.675686,8.8280723 25.593331,8.9777649 24.372672,11.243547 24.092988,14.187919 22.285342,11.755466 17.986644,5.9707797 16.557884,4.0481305 16.024364,3.3302082 15.026626,3.1090596 14.263911,3.5760961 13.389259,4.1117699 13.179513,5.2676507 13.777458,6.0723462 13.773141,6.0665128 12.872969,4.8552399 12.898753,4.8899225 12.338879,4.1364437 11.274309,3.937555 10.507034,4.4781195 9.7135311,5.0372644 9.5408434,6.1369748 10.116364,6.9114653 11.142227,8.2919551 10.906445,7.9745786 11.018191,8.1249678 10.42658,7.3289325 9.2782641,7.1912763 8.5134581,7.8506063 7.8266344,8.4426605 7.7390878,9.4781541 8.2800198,10.20609 l 1.6658098,2.241584 C 9.3478837,11.643086 8.1811319,11.511131 7.4165803,12.194851 6.7498758,12.790896 6.6742385,13.81068 7.2077085,14.528544 c 0.2740569,0.36875 7.7772345,10.465666 8.1941945,11.026806 0.85818,1.154778 2.030696,1.937638 3.310904,2.318109 1.204633,0.358108 1.69609,1.309348 1.836788,1.45828 l 0.0579,0.07792 c 0.481954,0.648561 1.398162,0.78343 2.04647,0.301222 l 6.485041,-4.824172 c 0.643303,-0.478725 0.777096,-1.388534 0.298751,-2.032281 z"
     fill="#f4d44e"
     id="path1255"
     style="stroke-width:0.0633484" />
  <path
     d="m 24.951297,6.9672763 c -0.752517,-1.585269 -1.815883,-3.0156769 -3.11801,-4.1936147 -0.181936,-0.1645735 -0.196,-0.4455232 -0.03136,-0.6274287 0.164578,-0.1819685 0.445529,-0.1960315 0.627466,-0.031395 1.387583,1.2551478 2.521583,2.7800383 3.324588,4.4714354 0.105221,0.2216177 0.01085,0.4866038 -0.210761,0.5918897 -0.220642,0.10472 -0.486199,0.011725 -0.591927,-0.2108867 z"
     fill="#4a4a4a"
     id="path1257"
     style="stroke-width:0.0633484" />
  <path
     d="M 22.460943,7.661828 C 21.936355,6.6638998 21.256753,5.7494595 20.450962,4.9585039 20.275866,4.7865757 20.273269,4.5053915 20.445128,4.3302585 c 0.171928,-0.1751388 0.453068,-0.1776483 0.628164,-0.00583 0.870154,0.8542217 1.605882,1.8429576 2.174054,2.9239979 0.114158,0.2170945 0.03066,0.4857557 -0.186497,0.5999094 -0.21773,0.1144033 -0.48601,0.030217 -0.599911,-0.1864975 z"
     fill="#4a4a4a"
     id="path1259"
     style="stroke-width:0.0633484" />
  <path
     d="M 5.6426601,21.539187 C 4.2549183,20.283748 3.1212088,18.759395 2.3180592,17.067802 2.2127792,16.846146 2.3072092,16.58116 2.5288,16.475874 c 0.2215932,-0.105222 0.486605,-0.01073 0.5918267,0.210823 0.752731,1.585421 1.8157615,3.015512 3.1180088,4.193539 0.1819615,0.16458 0.1960315,0.445529 0.031395,0.627466 -0.163989,0.181494 -0.4449399,0.196634 -0.6273704,0.03149 z"
     fill="#4a4a4a"
     id="path1261"
     style="stroke-width:0.0633484" />
  <path
     d="M 6.9986196,19.329657 C 6.1281183,18.475087 5.3928395,17.486472 4.8245282,16.405621 4.7103698,16.188462 4.7938915,15.919865 5.0110443,15.805648 c 0.2171587,-0.114088 0.485737,-0.0306 0.5999479,0.186498 0.5247713,0.998307 1.2042601,1.912488 2.0099507,2.70333 0.1750945,0.171865 0.1777557,0.453132 0.00583,0.628226 -0.1716109,0.174906 -0.4530167,0.177883 -0.6282138,0.0059 z"
     fill="#4a4a4a"
     id="path1263"
     style="stroke-width:0.0633484" />
  <path
     d="m 10.179015,6.9878645 c 0.634814,0.8503891 5.664299,7.5879375 5.494209,7.3600095 0.277276,0.371349 0.812443,0.430642 1.164787,0.129041 0.320353,-0.274235 0.373249,-0.748525 0.121185,-1.086173 L 12.47869,7.3887965 c -0.0019,-0.00257 -0.0037,-0.0049 -0.0053,-0.00712 l -0.0062,-0.00828 c -0.0024,-0.00327 -0.0046,-0.00618 -0.0064,-0.00863 l -0.0047,-0.00618 c 0,0 0,-1.272e-4 -6.4e-5,-1.272e-4 L 11.588742,6.1966043 C 11.126299,5.5770635 11.146,4.749163 11.581509,4.1574379 10.206848,4.0685145 9.1577346,5.6191965 10.179038,6.9878015 Z"
     fill="#e8c842"
     id="path1265"
     style="stroke-width:0.0633484" />
  <path
     d="m 13.179767,16.804716 c 0.29552,0.400552 0.871864,0.45047 1.230859,0.10661 0.279303,-0.267583 0.316362,-0.703167 0.08647,-1.014778 C 13.91461,15.106846 10.20404,10.076411 9.7599679,9.4744744 9.2973974,8.8473888 9.2966367,7.9930726 9.7383029,7.387841 8.2825573,7.301566 7.4034704,8.9738963 8.2853444,10.169534 c 2.2130766,2.999928 2.5915826,3.513304 4.8944256,6.635178 z"
     fill="#e8c842"
     id="path1267"
     style="stroke-width:0.0633484" />
  <path
     d="m 22.089152,28.717259 -0.05796,-0.07792 C 21.890495,28.490405 21.399101,27.539292 20.194658,27.181184 18.91464,26.800713 17.742314,26.01798 16.884197,24.863328 16.4673,24.302252 8.9650736,14.20635 8.6911554,13.837725 8.2276353,13.213933 8.2242776,12.362467 8.6686621,11.758821 c -1.456798,-0.08507 -2.347135,1.574335 -1.4576216,2.771367 0.2740196,0.368687 7.7762465,10.464588 8.1930785,11.025666 0.858119,1.154651 2.030381,1.937384 3.310462,2.317855 1.204444,0.358045 1.695838,1.309158 1.836534,1.45809 l 0.05796,0.07792 c 0.481829,0.648497 1.397974,0.783366 2.046154,0.301222 l 0.544417,-0.404987 c -0.424435,-0.01862 -0.837276,-0.220959 -1.110498,-0.588697 z"
     fill="#e8c842"
     id="path1269"
     style="stroke-width:0.0633484" />
  <path
     d="m 15.267857,5.3724418 c 0,0 -8.23e-4,-0.00115 0,0 -0.462888,-0.6194276 -0.442362,-1.4475113 -0.0053,-2.0384011 -0.302298,-0.01988 -0.610361,0.03948 -0.892009,0.1860997 l -1.27e-4,-2.158e-4 c -0.146145,0.076067 -0.278543,0.1714778 -0.391873,0.2787073 -1.27e-4,1.656e-4 -3.8e-4,3.301e-4 -5.7e-4,5.518e-4 h 6.4e-5 c -0.599656,0.5672847 -0.711403,1.4902265 -0.248706,2.1856088 l 0.05486,0.077887 4.959295,6.6357335 c 0.289565,0.387503 0.854886,0.43533 1.206026,0.101932 0.323964,-0.307557 0.364318,-0.808073 0.0937,-1.163014 z m -0.475684,-0.6365123 -0.02617,-0.034942 c 0.0086,0.01155 0.01742,0.023275 0.02617,0.034942 z"
     fill="#e8c842"
     id="path1271"
     style="stroke-width:0.0633484" />
  <path
     d="m 25.659658,8.7832221 c -0.05112,0.093625 -0.542579,1.0136373 -0.972651,2.4085689 l -3.8e-4,-3.79e-4 c -0.258969,0.84 -0.495639,1.852308 -0.6001,2.960715 0.455855,0.610869 1.419702,0.313701 1.458787,-0.449773 l 0.01248,-0.244019 c 0.27804,-2.949312 1.491288,-5.2188962 1.573135,-5.368842 0.144371,-0.2644799 0.313575,-0.50267 0.503113,-0.7046877 -0.817131,-0.012168 -1.518588,0.5633577 -1.97438,1.3984168 z"
     fill="#e8c842"
     id="path1273"
     style="stroke-width:0.0633484" />
</svg>
