<svg width="32" height="33" viewBox="0 0 32 33" fill="none" xmlns="http://www.w3.org/2000/svg">
<path d="M20.4 2.75H11.6C8.23969 2.75 6.55953 2.75 5.27606 3.40396C4.14708 3.9792 3.2292 4.89708 2.65396 6.02606C2 7.30953 2 8.98969 2 12.35V21.15C2 24.5103 2 26.1905 2.65396 27.4739C3.2292 28.6029 4.14708 29.5208 5.27606 30.096C6.55953 30.75 8.23969 30.75 11.6 30.75H20.4C23.7603 30.75 25.4405 30.75 26.7239 30.096C27.8529 29.5208 28.7708 28.6029 29.346 27.4739C30 26.1905 30 24.5103 30 21.15V12.35C30 8.98969 30 7.30953 29.346 6.02606C28.7708 4.89708 27.8529 3.9792 26.7239 3.40396C25.4405 2.75 23.7603 2.75 20.4 2.75Z" fill="white"/>
<path d="M20.4 2.75H11.6C8.23969 2.75 6.55953 2.75 5.27606 3.40396C4.14708 3.9792 3.2292 4.89708 2.65396 6.02606C2 7.30953 2 8.98969 2 12.35V21.15C2 24.5103 2 26.1905 2.65396 27.4739C3.2292 28.6029 4.14708 29.5208 5.27606 30.096C6.55953 30.75 8.23969 30.75 11.6 30.75H20.4C23.7603 30.75 25.4405 30.75 26.7239 30.096C27.8529 29.5208 28.7708 28.6029 29.346 27.4739C30 26.1905 30 24.5103 30 21.15V12.35C30 8.98969 30 7.30953 29.346 6.02606C28.7708 4.89708 27.8529 3.9792 26.7239 3.40396C25.4405 2.75 23.7603 2.75 20.4 2.75Z" fill="url(#paint0_linear_165_12563)"/>
<path fill-rule="evenodd" clip-rule="evenodd" d="M13.6901 18.4579L12.4417 17.2094L6.72334 22.9277C6.75122 22.9445 6.77974 22.9604 6.80886 22.9751C7.10833 23.1277 7.50037 23.1277 8.28444 23.1277H23.7155C24.4996 23.1277 24.8916 23.1277 25.1911 22.9751C25.2203 22.9603 25.2488 22.9445 25.2767 22.9277L19.5584 17.2094L18.3099 18.4579C17.9158 18.8519 17.4461 19.1243 16.9475 19.2748C16.639 19.3681 16.3195 19.4146 16 19.4146C15.164 19.4146 14.328 19.0957 13.6901 18.4579ZM25.7555 22.4488C25.7723 22.4209 25.7881 22.3924 25.803 22.3633C25.9555 22.0638 25.9555 21.6718 25.9555 20.8877V12.6122C25.9555 11.8281 25.9555 11.4361 25.803 11.1366C25.7838 11.099 25.7631 11.0625 25.7408 11.027L20.0373 16.7305L25.7555 22.4488ZM25.3007 10.587C25.2653 10.5647 25.2287 10.5439 25.1911 10.5248C24.8916 10.3722 24.4996 10.3722 23.7155 10.3722H8.28443C7.50037 10.3722 7.10833 10.3722 6.80886 10.5248C6.77129 10.5439 6.73473 10.5647 6.69926 10.587L14.1301 18.0178C14.5107 18.3984 14.9783 18.6387 15.4689 18.7388C15.8105 18.8085 16.163 18.8102 16.5051 18.744C17.0051 18.6472 17.4826 18.4051 17.87 18.0178L25.3007 10.587ZM6.25926 11.027L11.9628 16.7305L6.24445 22.4488C6.22769 22.421 6.21187 22.3925 6.19703 22.3633C6.04443 22.0638 6.04443 21.6718 6.04443 20.8877V12.6122C6.04443 11.8281 6.04443 11.4361 6.19703 11.1366C6.21617 11.099 6.23694 11.0625 6.25926 11.027Z" fill="url(#paint1_linear_165_12563)"/>
<defs>
<linearGradient id="paint0_linear_165_12563" x1="16" y1="2.75" x2="16" y2="30.75" gradientUnits="userSpaceOnUse">
<stop stop-color="#1A6AE7"/>
<stop offset="1" stop-color="#20C2F4"/>
</linearGradient>
<linearGradient id="paint1_linear_165_12563" x1="16" y1="10.3722" x2="16" y2="23.1277" gradientUnits="userSpaceOnUse">
<stop stop-color="#F7F7F7"/>
<stop offset="1" stop-color="#F9F9F9"/>
</linearGradient>
</defs>
</svg>
