<svg
   width="32"
   height="32"
   viewBox="13.979 4 3.2676077 3.2669312"
   xmlns="http://www.w3.org/2000/svg">
  <path
     fill="#e39c2e"
     d="m 16.629867,6.8164818 -0.213292,-1.0312828 -0.08732,-0.033286 -0.09882,0.037832 0.01676,0.1151044 0.07033,0.023258 0.15959,0.9118519 v 0.00467 z"
     id="path1347"
     style="stroke-width:0.01562" />
  <path
     fill="#ffda05"
     d="m 16.204705,5.6322631 -0.181084,-0.070619 0.02383,0.2351286 0.07756,0.018712 0.110684,0.9494494 0.03487,-0.00742 0.0162,0.1035605 0.005,0.00213 0.0797,0.021353 0.110155,-0.021353 -0.163854,-0.9347352 -0.07058,-0.023508 z"
     id="path1349"
     style="stroke-width:0.01562" />
  <path
     fill="#e39c2e"
     d="m 15.951097,5.7732809 0.06565,1.0102582 0.0098,0.1785841 0.267431,-0.044845 -0.02334,-0.1597619 -0.03533,0.00729 -0.110434,-0.9494336 -0.07708,-0.018604 z m -0.721474,-0.3969993 -0.04938,0.3007329 -0.206606,-0.042486 -0.253638,1.2148498 0.314712,-0.030538 0.17393,-0.9586028 0.05845,-0.035082 0.06372,-0.5030438 -0.05872,-0.00906 z"
     id="path1351"
     style="stroke-width:0.01562" />
  <path
     fill="#ffda05"
     d="m 15.267313,5.8249364 -0.005,0.00237 -0.05368,0.032694 -0.188268,1.0222076 0.152702,0.065948 0.03557,-0.00979 -0.03557,0.00726 L 15.30238,5.846021 15.2673,5.827309 Z"
     id="path1353"
     style="stroke-width:0.01562" />
  <path
     fill="#e39c2e"
     d="m 15.650239,4.2038872 -0.03507,0.3875803 0.06109,0.039957 z"
     id="path1355"
     style="stroke-width:0.01562" />
  <path
     fill="#ffda05"
     d="m 14.830483,5.8837303 -0.230473,0.8339859 -0.0043,0.00952 0.1217,0.11965 0.0024,-0.00671 0.253872,-1.2056651 -0.07014,0.06598 -0.03341,0.1505461 z"
     id="path1357"
     style="stroke-width:0.01562" />
  <path
     fill="#e39c2e"
     d="m 15.384933,5.890775 -0.08231,-0.044611 -0.129048,1.1018854 0.04197,-0.011601 0.06349,-0.5875952 0.09638,-0.3126509 z"
     id="path1359"
     style="stroke-width:0.01562" />
  <path
     fill="#ffda05"
     d="m 15.380184,5.9353858 0.0071,-0.044611 h -0.0024 z"
     id="path1361"
     style="stroke-width:0.01562" />
  <path
     d="m 15.551474,4.9133188 -0.143157,0.138722 0.0049,-0.037941 0.138348,-0.1358482 z m -0.007,0.138722 -0.157714,0.1550916 0.0077,-0.035442 0.152233,-0.1575908 z m -0.176335,-0.035427 -0.100923,0.8083221 v 0.00213 l 0.112873,0.061309 0.0067,0.0025 -0.01143,0.1456569 -0.09638,0.3124168 -0.06588,0.6156644 0.246702,0.098297 0.08684,-1.4071481 0.02387,0.00703 0.0396,-0.9653974 -0.0138,-0.1174789 -0.298234,0.3854249 z m 0.169401,0.1736794 -0.166994,0.1600898 0.0047,-0.037565 0.164636,-0.1548572 z m -0.005,0.1317083 -0.0022,0.028382 -0.171524,0.1386286 -0.0045,-0.00455 0.0024,-0.021477 0.173664,-0.1452976 z m -0.007,0.2045759 -0.194891,0.1362219 0.005,-0.033037 0.189894,-0.133489 z"
     fill="#ffda05"
     id="path1363"
     style="stroke-width:0.01562" />
  <path
     fill="#aa7734"
     d="M 15.551474,4.9133188 V 4.878252 l -0.138362,0.1358482 -0.0047,0.037941 z m -0.164136,0.2938133 0.156966,-0.1552009 0.0026,-0.037582 -0.152687,0.1575751 z m -0.01669,0.1432514 0.166758,-0.1599649 0.0027,-0.032677 -0.164402,0.1551853 z m 0.159824,0 0.0024,-0.028382 -0.0024,-0.00453 -0.173664,0.1456571 -0.0024,0.021119 0.0047,0.00488 z m -0.0047,0.1456571 -0.189893,0.1337232 -0.0047,0.033037 0.194673,-0.1358482 z"
     id="path1365"
     style="stroke-width:0.01562" />
  <path
     d="m 15.610174,4.6972779 -0.0396,0.9656629 0.13885,0.042096 V 5.5969611 l 0.08658,0.035442 V 5.785089 l -0.01645,-0.00467 -0.0024,0.056186 0.147937,0.4279115 -0.0095,-0.2257099 -0.06301,-0.021352 -0.005,-0.152686 0.06107,0.025882 -0.0046,-0.072898 -0.05155,-0.018729 -0.005,-0.1501869 0.07063,0.018619 0.007,0.1176184 0.02599,-0.011936 0.09613,0.023508 -0.08441,-0.8266915 0.09399,-0.091612 -0.460448,-0.2986866 z m 0.166994,0.2938132 0.0024,0.098281 -0.07277,-0.034832 0.0026,-0.098891 z m -0.07039,-0.075507 V 4.8123817 l 0.06372,0.032693 0.0024,0.1056855 z m 0.183224,0.096501 -0.06107,-0.030538 -0.0024,-0.1055599 0.05848,0.030163 z m 0.0046,0.042455 0.0024,0.095922 -0.06344,-0.032677 v -0.096516 z m 0.01199,0.2370343 -0.068,-0.030538 -0.005,-0.1032955 0.06586,0.033037 z m -0.122383,-0.023508 0.005,0.1339728 -0.07969,-0.032568 v -0.136597 z m -0.07468,-0.070603 -0.0026,-0.1031854 0.07277,0.035082 0.0046,0.1035297 z m 0,0.3523884 0.0017,-0.1361132 0.0804,0.032911 0.0045,0.1362386 z m 0.20873,-0.091612 -0.07299,-0.030194 -0.0043,-0.1292096 0.06775,0.032709 z m 0,0.04711 0.0093,0.1291776 -0.07492,-0.027773 -0.005,-0.1317084 z"
     fill="#e39c2e"
     id="path1367"
     style="stroke-width:0.01562" />
  <path
     fill="#aa7734"
     d="m 15.838242,5.2610369 0.06824,0.030912 -0.0071,-0.1014047 -0.06584,-0.032694 z m 0.05176,-0.2489525 -0.005,-0.1057008 -0.05872,-0.030538 0.0026,0.1057008 z m -0.117614,-0.061074 -0.0024,-0.1057161 -0.06344,-0.032911 V 4.915928 Z m 0.07302,0.4769271 0.07298,0.030538 -0.01004,-0.127054 -0.068,-0.032677 z m -0.01199,-0.3101517 0.06321,0.032896 -0.0021,-0.096141 -0.06107,-0.033271 z m 0.01428,0.3570275 0.0047,0.1316931 0.07492,0.028022 -0.0093,-0.1288179 z m 0.07733,0.3102768 -0.007,-0.1176183 -0.0704,-0.018853 0.0043,0.1505462 0.05201,0.018604 V 5.796667 Z m -0.07733,0.079787 0.0047,0.1527017 0.06325,0.021119 -0.007,-0.1478125 z m -0.138836,-0.6671792 0.07541,0.035082 -0.0047,-0.1031867 -0.07301,-0.035192 z m 0,0.3522478 0.08708,0.033067 -0.005,-0.1362386 -0.07969,-0.032926 z m 0.07064,0.2303646 0.01622,0.00489 V 5.6322631 l -0.08684,-0.035192 V 5.704912 l 0.073,0.021368 z m -0.07064,-0.4110731 0.07972,0.033036 -0.0043,-0.1340662 -0.07541,-0.035426 z m -0.0024,-0.3147909 0.07301,0.035051 -0.0024,-0.098297 -0.06824,-0.035426 z"
     id="path1369"
     style="stroke-width:0.01562" />
  <path
     fill="#e39c2e"
     d="m 15.781917,5.7263896 -0.234989,-0.070619 -0.0866,1.407273 0.50006,-0.079709 v -0.025992 h -0.0024 L 15.925108,6.2643907 15.776952,5.8366043 Z"
     id="path1371"
     style="stroke-width:0.01562" />
  <path
     fill="#ffda05"
     d="m 15.953221,6.8586872 0.0047,0.098656 h 0.0024 z"
     id="path1373"
     style="stroke-width:0.01562" />
  <path
     fill="#ffda05"
     d="m 15.904112,5.7967734 0.05608,1.1604607 0.06605,0.00954 v -0.00466 l -0.0024,0.00216 -0.07302,-1.1909979 z"
     id="path1375"
     style="stroke-width:0.01562" />
</svg>
