<svg width="32" height="33" viewBox="0 0 32 33" fill="none" xmlns="http://www.w3.org/2000/svg">
<path d="M2 12.35C2 8.98969 2 7.30953 2.65396 6.02606C3.2292 4.89708 4.14708 3.9792 5.27606 3.40396C6.55953 2.75 8.23969 2.75 11.6 2.75H20.4C23.7603 2.75 25.4405 2.75 26.7239 3.40396C27.8529 3.9792 28.7708 4.89708 29.346 6.02606C30 7.30953 30 8.98969 30 12.35V21.15C30 24.5103 30 26.1905 29.346 27.4739C28.7708 28.6029 27.8529 29.5208 26.7239 30.096C25.4405 30.75 23.7603 30.75 20.4 30.75H11.6C8.23969 30.75 6.55953 30.75 5.27606 30.096C4.14708 29.5208 3.2292 28.6029 2.65396 27.4739C2 26.1905 2 24.5103 2 21.15V12.35Z" fill="url(#paint0_linear_49_5589)"/>
<path d="M16 23.75C20.9706 23.75 25 20.3921 25 16.25C25 12.1079 20.9706 8.75 16 8.75C11.0294 8.75 7 12.1079 7 16.25C7 18.8755 8.61889 21.1859 11.0702 22.5258C10.9881 23.1927 10.7415 24.0827 10 24.75C11.4021 24.4976 12.5211 23.9905 13.3571 23.4214C14.1928 23.635 15.0803 23.75 16 23.75Z" fill="white"/>
<defs>
<linearGradient id="paint0_linear_49_5589" x1="16" y1="2.75" x2="16" y2="30.75" gradientUnits="userSpaceOnUse">
<stop stop-color="#5AF575"/>
<stop offset="1" stop-color="#13BD2C"/>
</linearGradient>
</defs>
</svg>
