<svg
   width="32"
   height="32"
   viewBox="0 0 8.4666665 8.4666666"
   xmlns="http://www.w3.org/2000/svg">
    <path
       style="fill:#ea4335;fill-opacity:1;stroke:#3b7844;stroke-width:0.0131708;stroke-opacity:0.473684"
       d="m 1.8727531,4.2594355 c -0.0895,-0.20808 -0.16634,-0.50599 -0.19991,-0.77518 -0.0232,-0.18585 -0.0194,-0.57117 0.007,-0.74192 0.0616,-0.39352 0.19842,-0.74888 0.40825,-1.05995 0.12115,-0.1796 0.15979,-0.22301 0.18398,-0.20667 0.0107,0.007 0.27239,0.22654 0.58149,0.48732 0.3091,0.26078 0.57341,0.48318 0.58737,0.49421 0.0242,0.0191 -0.0107,0.063 -0.72694,0.91537 -0.41377,0.49242 -0.76565,0.90907 -0.78196,0.92589 l -0.0297,0.0306 z"
       id="path1249" />
    <path
       style="fill:#1a73e8;fill-opacity:1;stroke:#3b7844;stroke-width:0.0131708;stroke-opacity:0.473684"
       d="m 2.8872631,1.9755455 c -0.32191,-0.27092 -0.59438,-0.50167 -0.60549,-0.51278 -0.0181,-0.0181 -0.008,-0.033 0.10457,-0.14619 0.665,-0.67163994 1.56838,-0.92565994 2.49276,-0.70092994 0.0815,0.0198 0.11387,0.0332 0.10927,0.0452 -0.005,0.0137 -1.44878,1.73680994 -1.5011,1.79183994 -0.0111,0.0117 -0.15913,-0.10607 -0.60001,-0.47711 z"
       id="path1320" />
    <path
       style="fill:#4285f4;fill-opacity:1;stroke:#3b7844;stroke-width:0.0131708;stroke-opacity:0.473684"
       d="m 5.1124731,3.5879655 c -8e-5,-0.005 0.0139,-0.0401 0.031,-0.079 0.0798,-0.18132 0.10227,-0.43187 0.056,-0.62396 -0.0298,-0.12396 -0.12455,-0.31292 -0.20149,-0.40203 -0.14423,-0.16704 -0.3413,-0.29041 -0.53762,-0.33655 -0.25923,-0.0609 -0.56208,-0.005 -0.7814,0.14391 -0.0386,0.0262 -0.0682,0.0431 -0.0659,0.0375 0.002,-0.006 0.31401,-0.37864 0.6925,-0.82895 0.3785,-0.4503 0.68817,-0.82493994 0.68817,-0.83251994 0,-0.0192 -4.8e-4,-0.0193 0.14217,0.034 0.34332,0.12823 0.6527,0.32651994 0.91138,0.58412994 0.17607,0.17533 0.35892,0.41698 0.4452,0.58832 l 0.0256,0.0508 -0.67093,0.79683 c -0.36902,0.43825 -0.68525,0.81461 -0.70274,0.83634 -0.0175,0.0217 -0.0319,0.0358 -0.0319,0.0313 z"
       id="path1391" />
    <path
       style="fill:#fbbc04;fill-opacity:1;stroke:#3b7844;stroke-width:0.0131708;stroke-opacity:0.473684"
       d="m 2.8006731,5.6610155 c -0.49672,-0.62934 -0.6542,-0.8538 -0.81351,-1.15948 -0.0768,-0.14741 -0.0772,-0.14853 -0.0533,-0.18038 0.0544,-0.0725 1.42047,-1.68981 1.42435,-1.68625 0.002,0.002 -0.007,0.0267 -0.0217,0.0547 -0.0646,0.12669 -0.0879,0.23927 -0.0879,0.42587 0,0.20087 0.0236,0.30257 0.10736,0.46266 0.26657,0.50948 0.94154,0.6846 1.41642,0.36748 0.0442,-0.0295 0.0814,-0.052 0.0829,-0.05 0.002,0.003 -1.74612,2.0840702 -1.77146,2.1089902 -0.004,0.004 -0.13115,-0.15093 -0.28317,-0.3435402 z"
       id="path1462" />
    <path
       style="fill:#34a853;fill-opacity:1;stroke:#3b7844;stroke-width:0.0131708;stroke-opacity:0.473684"
       d="m 4.1590131,7.9230257 c -0.0901,-0.0286 -0.13274,-0.10082 -0.22544,-0.38217 -0.16894,-0.51277 -0.33132,-0.81676 -0.72123,-1.35025 -0.0634,-0.0868 -0.11559,-0.1625 -0.11589,-0.16823 -7.1e-4,-0.0131 3.41412,-4.0791002 3.42586,-4.0791002 0.0141,0 0.11212,0.22125 0.15464,0.34903 0.0991,0.29772 0.14293,0.61264 0.13021,0.93512 -0.0283,0.71843 -0.24059,1.25655 -0.77141,1.95586 -0.0467,0.0616 -0.20446,0.26309 -0.3505,0.44781 -0.40501,0.5122702 -0.68676,0.9033202 -0.82757,1.1486202 -0.12188,0.21233 -0.24546,0.5022 -0.32448,0.76114 -0.0601,0.19694 -0.12169,0.32068 -0.17646,0.35453 -0.0518,0.032 -0.14354,0.0448 -0.19773,0.0276 z"
       id="path1464" />
</svg>
