<svg
   viewBox="0 0 2.79008 2.79008"
   width="40"
   height="40"
   xmlns="http://www.w3.org/2000/svg">
  <circle
     cx="1.39504"
     cy="1.39504"
     fill="#23bec7"
     r="1.39504"
     id="circle2"
     style="stroke-width:0.016" />
  <path
     d="M 1.42752,1.41856 C 1.46832,1.38272 1.50144,1.34896 1.54512,1.33056 1.57072,1.31984 1.59904,1.30464 1.62336,1.32816 1.64768,1.35168 1.63232,1.37744 1.62496,1.40272 1.61024,1.45344 1.59536,1.50432 1.58192,1.55536 1.57792,1.57024 1.5712,1.58736 1.5864,1.60064 1.6016,1.61392 1.62064,1.60512 1.63568,1.59744 1.69136,1.56896 1.73664,1.5352 1.7296,1.46032 1.72544,1.41552 1.7296,1.36784 1.77104,1.33584 1.78704,1.3232 1.8064,1.30848 1.82672,1.32256 c 0.02032,0.01408 0.00576,0.032 0,0.048 a 0.41263999,0.41263999 0 0 0 -0.016,0.1872 c 0.00208,0.01408 0,0.0344 0.01296,0.03952 C 1.84144,1.604 1.84944,1.58128 1.8608,1.572 1.87216,1.56272 1.87984,1.5496 1.88976,1.53872 1.916,1.51008 1.9304,1.4872 1.89552,1.448 1.85504,1.40272 1.8672,1.31408 1.90704,1.272 A 0.08176,0.08176 0 0 1 1.99936,1.248 C 2.03408,1.26064 2.04544,1.29056 2.0464,1.3256 2.04736,1.36496 2.0304,1.39952 2.01712,1.4376 2.05584,1.44736 2.07984,1.4256 2.1016,1.40208 2.15408,1.34512 2.21488,1.30896 2.29552,1.31744 c 0.0584,0.00608 0.09184,0.0376 0.0888,0.08352 A 0.064,0.064 0 0 1 2.2928,1.45136 c -0.01824,-0.00976 -0.016,-0.01872 0,-0.028 A 0.02688,0.02688 0 0 0 2.30768,1.3904 0.04,0.04 0 0 0 2.272,1.36304 0.08992,0.08992 0 0 0 2.20896,1.37712 C 2.1504,1.41456 2.1176,1.51856 2.14496,1.58192 2.16096,1.62 2.19072,1.6272 2.2216,1.60016 A 0.14656,0.14656 0 0 0 2.25904,1.54128 0.16,0.16 0 0 1 2.27808,1.50192 c 0.01456,-0.01936 0.03472,-0.03648 0.06,-0.02608 0.02528,0.0104 0.01232,0.03664 0.00816,0.0544 -0.01488,0.0616 -0.02752,0.1216 0.02464,0.17344 a 0.01344,0.01344 0 0 1 0,0.01984 A 0.0208,0.0208 0 0 1 2.34656,1.72704 0.14576,0.14576 0 0 1 2.26336,1.65248 C 2.25808,1.64096 2.25584,1.62416 2.23712,1.64064 A 0.096,0.096 0 0 1 2.11168,1.65104 C 2.06624,1.62192 2.04992,1.57824 2.05408,1.52592 c 8e-4,-0.01024 0.00208,-0.02016 0.00336,-0.032 -0.05232,0.00432 -0.09488,0.016 -0.1248,0.064 A 0.28799999,0.28799999 0 0 1 1.82976,1.65296 C 1.7752,1.68496 1.75392,1.67504 1.7392,1.61504 1.73712,1.60672 1.73536,1.59904 1.73216,1.58304 a 0.41983999,0.41983999 0 0 1 -0.12,0.07536 C 1.52944,1.68784 1.48144,1.64992 1.4936,1.5624 A 0.62527998,0.62527998 0 0 1 1.53056,1.4312 c 0.00384,-0.0104 0.01312,-0.0232 0,-0.032 -0.0096,-0.00608 -0.01968,0.00416 -0.0272,0.01056 -0.05104,0.04336 -0.096,0.09136 -0.11072,0.16 a 0.26031999,0.26031999 0 0 1 -0.01728,0.05888 0.06064,0.06064 0 0 1 -0.064,0.0384 C 1.28256,1.66192 1.30112,1.63248 1.29312,1.6144 1.2624,1.6304 1.23296,1.6464 1.20256,1.66032 1.18064,1.6704 1.152,1.6784 1.136,1.65952 1.10928,1.62752 1.0912,1.63856 1.06304,1.65648 1.02192,1.68272 0.97471997,1.67152 0.93743997,1.62816 c -0.01888,-0.02192 -0.02864,-0.02048 -0.04688,-9.6e-4 a 0.41599999,0.41599999 0 0 1 -0.12928,0.0904 C 0.57103997,1.808 0.38399998,1.70656 0.37343998,1.49696 0.36095998,1.26032 0.46159998,1.072 0.65935997,0.94063997 a 0.21039999,0.21039999 0 0 1 0.17744,-0.0296 A 0.15712,0.15712 0 0 1 0.95391997,1.072 0.164,0.164 0 0 1 0.82927998,1.22032 c -0.01136,0.00256 -0.02608,0.00704 -0.032,-0.00368 -0.00896,-0.0144 0.00528,-0.02416 0.01504,-0.032 0.05344,-0.04512 0.06256,-0.10384 0.05248,-0.16832 -0.0096,-0.06016 -0.05248,-0.08448 -0.1096,-0.06256 a 0.26959999,0.26959999 0 0 0 -0.10528,0.07824 0.66799998,0.66799998 0 0 0 -0.16879999,0.376 0.30191999,0.30191999 0 0 0 0.03088,0.176 c 0.04064,0.0776 0.10959999,0.112 0.19471999,0.09184 a 0.39999999,0.39999999 0 0 0 0.17936,-0.09888 0.07632,0.07632 0 0 0 0.02112,-0.05536 C 0.91887997,1.4 1.024,1.3088 1.14144,1.31776 A 0.11392,0.11392 0 0 1 1.21712,1.34976 0.064,0.064 0 0 1 1.232,1.42224 C 1.22064,1.44976 1.19536,1.45872 1.16672,1.45728 A 0.03648,0.03648 0 0 1 1.13472,1.44432 C 1.12416,1.42832 1.14432,1.4272 1.15072,1.4192 1.16864,1.3968 1.15856,1.37008 1.12784,1.36384 A 0.08784,0.08784 0 0 0 1.04336,1.39072 0.19631999,0.19631999 0 0 0 0.9896,1.5608 C 0.9928,1.58448 1.00288,1.60768 1.02896,1.61472 1.05504,1.62176 1.072,1.60224 1.088,1.584 A 0.13808,0.13808 0 0 0 1.11312,1.5328 0.08128,0.08128 0 0 1 1.14016,1.488 C 1.15616,1.47568 1.17376,1.4656 1.19264,1.47664 1.21152,1.48768 1.2,1.50624 1.2,1.5216 1.2,1.54976 1.1696,1.58256 1.2072,1.60416 1.22736,1.61568 1.30864,1.5544 1.31504,1.5256 1.32512,1.47968 1.33328,1.43328 1.3424,1.3872 A 0.0784,0.0784 0 0 1 1.36,1.34288 0.05792,0.05792 0 0 1 1.424,1.32688 C 1.44816,1.33696 1.43616,1.35888 1.43376,1.37744 1.43248,1.38848 1.43056,1.39968 1.42752,1.41856 Z M 1.9679999,1.312 c -0.00416,-0.0112 -0.01088,-0.02208 -0.02464,-0.02064 -0.01376,0.00144 -0.01776,0.01408 -0.01888,0.02592 a 0.112,0.112 0 0 0 0.03664,0.09456 0.13392,0.13392 0 0 0 0.00688,-0.09984 z"
     fill="#ffffff"
     id="path4"
     style="stroke-width:0.016" />
</svg>
