<svg
   height="32"
   width="32"
   viewBox="0 0 31.999974 31.992963"
   xmlns="http://www.w3.org/2000/svg">
  <linearGradient
     id="a"
     x1="932.95068"
     x2="932.95068"
     y1="50.662758"
     y2="1824.7531"
     gradientTransform="matrix(0.01503825,0,0,0.00834139,1.9999984,8.2309878)"
     gradientUnits="userSpaceOnUse">
    <stop
       offset="0"
       stop-color="#f80"
       id="stop862" />
    <stop
       offset="1"
       stop-color="#f30"
       id="stop864" />
  </linearGradient>
  <path
     d="m 1.9999984,20.973642 c 0,0.347469 0.1259664,0.610187 0.3778544,0.788279 0.2518992,0.178057 0.5211696,0.241024 0.8078112,0.188921 0.2692592,-0.05211 0.458192,-0.147672 0.5667984,-0.286641 0.1085616,-0.13897 0.1628704,-0.369175 0.1628704,-0.690559 v -3.778488 c 0,-0.269293 -0.093363,-0.497313 -0.2801344,-0.68404 C 3.448472,16.324343 3.2204624,16.23098 2.9511696,16.23098 c -0.2605904,0 -0.4842544,0.09336 -0.6710144,0.280134 -0.18676,0.186727 -0.2801568,0.414736 -0.2801568,0.68404 z m 2.9967392,1.615634 c 0,0.251944 0.08904,0.440832 0.2670976,0.566809 0.17808,0.125967 0.406112,0.188922 0.68404,0.188922 0.2866415,0 0.5189855,-0.06299 0.6970655,-0.188922 0.1780576,-0.125944 0.2671088,-0.314865 0.2671088,-0.566809 v -8.807792 c 0,-0.260591 -0.093408,-0.484277 -0.2801344,-0.671015 -0.18676,-0.186726 -0.4147696,-0.280123 -0.6840399,-0.280123 -0.2605792,0 -0.4842768,0.0934 -0.6710032,0.280123 -0.1867712,0.186772 -0.2801344,0.410424 -0.2801344,0.671015 z m 2.9837135,0.416942 c 0,0.251911 0.091202,0.440832 0.273616,0.566799 0.1824032,0.125944 0.4169312,0.188932 0.7036064,0.188932 0.2779392,0 0.5059488,-0.06299 0.6840064,-0.188932 0.17808,-0.125967 0.2671312,-0.314888 0.2671312,-0.566799 v -8.03908 c 0,-0.269259 -0.093397,-0.499464 -0.2801344,-0.690558 -0.18676,-0.191083 -0.4104128,-0.286608 -0.6710032,-0.286608 -0.2692928,0 -0.499464,0.09553 -0.6905584,0.286608 -0.1910832,0.191094 -0.2866416,0.421299 -0.2866416,0.690558 v 8.03908 z m 2.9967389,0.03909 c 0,0.477759 0.321384,0.716643 0.964163,0.716643 0.642768,0 0.964141,-0.238884 0.964141,-0.716643 V 10.01601 c 0,-0.7296462 -0.221491,-1.1422318 -0.664496,-1.2377902 -0.286641,-0.069496 -0.56896,0.013026 -0.846899,0.2475536 -0.277962,0.234528 -0.416942,0.564592 -0.416942,0.9902256 v 13.029307 z m 3.048886,0.377855 V 9.2472758 c 0,-0.4516736 0.134624,-0.720944 0.403906,-0.8078224 0.581952,-0.1389696 1.159603,-0.2084656 1.732897,-0.2084656 1.328959,0 2.566772,0.312704 3.713327,0.938112 1.146577,0.625408 2.073848,1.4788252 2.781744,2.5602532 0.707952,1.081472 1.118365,2.273611 1.231283,3.576574 0.52985,-0.225848 1.09443,-0.338766 1.693776,-0.338766 1.216073,0 2.256262,0.429968 3.120521,1.289904 0.864282,0.859958 1.296445,1.893606 1.296445,3.101 0,1.216073 -0.432163,2.254067 -1.296445,3.114003 -0.864259,0.859936 -1.900091,1.289904 -3.107495,1.289904 l -11.335487,-0.01303 c -0.07821,-0.02606 -0.136841,-0.07385 -0.175929,-0.143326 -0.03909,-0.06947 -0.05854,-0.130346 -0.05854,-0.182459 z"
     fill="url(#a)"
     id="path867"
     style="fill:url(#a);stroke-width:0.0112" />
</svg>
