<svg
   width="32"
   height="32"
   viewBox="0 0 32 32"
   xmlns="http://www.w3.org/2000/svg">
  <style
     id="style429">.st0{fill:#2ebd59}</style>
  <path
     class="st0"
     d="M 16,2 C 8.2677584,2 2,8.2677584 2,16 2,23.732242 8.2677584,30 16,30 23.732242,30 30,23.732242 30,16 30,8.2687137 23.732242,2.0009553 16,2 Z m 6.420607,20.191334 c -0.251245,0.412692 -0.789082,0.541658 -1.199863,0.290413 C 17.933538,20.47274 13.795155,20.01897 8.9221426,21.1319 8.4521324,21.23985 7.9840328,20.945616 7.8770386,20.475606 7.769089,20.005595 8.0623678,19.537496 8.5333333,19.430502 13.865848,18.212487 18.440805,18.73695 22.13115,20.99147 c 0.410781,0.253156 0.541658,0.789083 0.289457,1.199864 z m 1.712863,-3.810713 c -0.316206,0.513954 -0.988741,0.674446 -1.50174,0.359195 C 18.869737,16.427021 13.132173,15.757352 8.6814057,17.108154 8.1044012,17.282975 7.4949164,16.957216 7.3191402,16.381167 7.1452747,15.804162 7.4710338,15.195633 8.0470829,15.019857 13.131218,13.477039 19.452474,14.224087 23.77332,16.879836 c 0.513954,0.316206 0.676356,0.987786 0.36015,1.500785 z m 0.147117,-3.970249 C 19.767724,11.73074 12.323985,11.484272 8.0155578,12.791129 7.3239168,13.001296 6.5921528,12.610577 6.382941,11.918936 6.1737291,11.227294 6.5634937,10.49553 7.2560901,10.285363 12.201706,8.7845786 20.422108,9.0740362 25.617059,12.157762 c 0.621904,0.369703 0.826339,1.173115 0.457591,1.794063 -0.367792,0.622859 -1.173115,0.82825 -1.794063,0.458547 z"
     id="path431"
     style="stroke-width:0.00955305" />
</svg>
