<svg
   width="32"
   height="32"
   viewBox="72.424 42.569 4.3397248 4.3384013"
   xmlns="http://www.w3.org/2000/svg">
  <path
     d="m 73.102465,44.48816 v -0.509006 c 0,-0.01886 0.0019,-0.03017 0.03395,-0.03017 h 0.431704 c 0.07542,0 0.116895,0.06411 0.147067,0.184755 l 0.02451,0.09616 h 0.07352 c 0.01318,-0.273347 0.02448,-0.392123 0.02448,-0.392123 0,0 -0.184744,0.02073 -0.29409,0.02073 H 72.99126 l -0.296027,-0.0094 v 0.07918 l 0.09994,0.01885 c 0.06975,0.0132 0.08669,0.02827 0.09239,0.09239 0,0 0.0057,0.188519 0.0057,0.499599 0,0.311035 -0.0057,0.497694 -0.0057,0.497694 0,0.05655 -0.02263,0.07728 -0.09239,0.09052 l -0.09994,0.01886 v 0.07914 l 0.296027,-0.0094 h 0.493931 c 0.111228,0 0.3695,0.0094 0.3695,0.0094 0.0056,-0.06788 0.04337,-0.375177 0.04902,-0.409068 h -0.06975 l -0.07353,0.167787 c -0.05845,0.131936 -0.14327,0.141377 -0.237552,0.141377 h -0.280918 c -0.09427,0 -0.139518,-0.03771 -0.139518,-0.118764 v -0.429845 c 0,0 0.205486,0 0.27711,0.0057 0.0528,0.0038 0.08483,0.01886 0.101819,0.09238 l 0.02264,0.09803 h 0.08102 l -0.0056,-0.246993 0.0113,-0.248831 h -0.08104 l -0.02638,0.109335 c -0.01699,0.07164 -0.02828,0.08486 -0.101819,0.09238 -0.08294,0.0095 -0.279026,0.0076 -0.279026,0.0076 v 0.0019 h 3.4e-5 z m 1.117939,-0.45621 c -0.0264,0.116884 -0.0528,0.207368 -0.145174,0.267703 -0.05655,0.03769 -0.11312,0.05087 -0.135711,0.05276 v 0.07164 h 0.167776 v 0.57876 c 0,0.162154 0.107476,0.241349 0.250735,0.241349 0.111238,0 0.226217,-0.04713 0.265821,-0.145186 l -0.0396,-0.0509 c -0.01886,0.03207 -0.07915,0.07918 -0.154571,0.07918 -0.08294,0 -0.128184,-0.05657 -0.128184,-0.199819 v -0.510888 l 0.279037,0.02075 0.01506,-0.128229 -0.29409,0.01132 v -0.286574 z m 0.595751,0.890221 -0.07164,0.0019 c 0.0038,0.04146 0.0057,0.09427 0.0057,0.143281 0,0.0509 -0.0019,0.09803 -0.0057,0.120647 0,0 0.143282,0.05274 0.288445,0.05274 0.196067,0 0.352554,-0.09426 0.352554,-0.279015 0,-0.31668 -0.475082,-0.269539 -0.475082,-0.482608 0,-0.08859 0.07917,-0.122539 0.165895,-0.122539 0.06787,0 0.12442,0.02451 0.135732,0.06036 l 0.04714,0.141389 0.06977,-0.0038 c 0.0057,-0.07542 0.0094,-0.162142 0.02074,-0.231884 -0.06034,-0.0264 -0.18667,-0.04151 -0.265787,-0.04151 -0.1848,0 -0.333704,0.08108 -0.333704,0.262069 0,0.314821 0.463747,0.250723 0.463747,0.482642 0,0.08291 -0.05093,0.141366 -0.165894,0.141366 -0.105549,0 -0.158357,-0.05466 -0.179054,-0.109357 z m 1.136273,0.217795 c -0.109144,0.304876 -0.242749,0.383858 -0.363171,0.383858 -0.05084,0 -0.07528,-0.0226 -0.08284,-0.0583 l -0.02822,-0.146821 -0.07905,0.0038 c -0.01505,0.08658 -0.0301,0.182583 -0.05078,0.261599 0.04705,0.03571 0.126045,0.05457 0.188172,0.05457 0.129875,0 0.327443,-0.01697 0.508065,-0.445995 l 0.302994,-0.715101 c 0.02448,-0.05835 0.03386,-0.064 0.105369,-0.09224 l 0.03952,-0.01502 v -0.06587 l -0.178785,0.0094 -0.191935,-0.0094 v 0.06587 l 0.0489,0.01502 c 0.04891,0.01509 0.07153,0.03389 0.07153,0.06777 0,0.01692 -0.0057,0.03387 -0.0151,0.06019 -0.02822,0.07156 -0.203235,0.496821 -0.25023,0.587171 l 0.04698,-0.01697 c -0.08281,-0.205106 -0.208835,-0.547624 -0.227674,-0.605909 -0.0038,-0.0113 -0.0056,-0.02071 -0.0056,-0.03016 0,-0.03009 0.0207,-0.05457 0.06587,-0.06396 l 0.0621,-0.01314 v -0.06587 l -0.257836,0.0094 -0.205105,-0.0094 v 0.06587 l 0.03388,0.01128 c 0.04704,0.01505 0.05834,0.02823 0.08657,0.09409 0.156139,0.35756 0.229577,0.553236 0.329268,0.809189 z"
     fill="#f27224"
     id="path1723"
     style="stroke-width:0.0112" />
</svg>
