<svg width="32" height="33" viewBox="0 0 32 33" fill="none" xmlns="http://www.w3.org/2000/svg">
<path fill-rule="evenodd" clip-rule="evenodd" d="M12.0079 5.75121C6.54191 5.67086 2 9.58967 2 14.2115C2 16.8793 3.28609 19.1938 5.77559 20.893C5.77559 20.893 4.86319 23.8308 4.87616 23.8897C4.88914 23.9487 5.08772 24.0644 5.15683 24.0266C5.22593 23.9888 8.45508 22.1099 8.45508 22.1099C10.7693 22.885 12.1809 22.6943 12.4219 22.6617C12.4386 22.6595 12.4497 22.658 12.4551 22.6576C12.2081 21.9521 12.0462 20.8535 12.2305 19.818C13.1953 14.3988 18.8821 12.7131 21.9989 13.001C21.1382 9.08736 17.3998 5.83043 12.0079 5.75121ZM8.20869 10.1992C7.49165 10.1992 6.9105 10.7664 6.9105 11.4661C6.9105 12.1658 7.49165 12.733 8.20869 12.733C8.92572 12.733 9.50702 12.1658 9.50702 11.4661C9.50702 10.7664 8.92572 10.1992 8.20869 10.1992ZM16.0682 10.1992C15.3513 10.1992 14.7701 10.7664 14.7701 11.4661C14.7701 12.1658 15.3513 12.733 16.0682 12.733C16.7853 12.733 17.3666 12.1658 17.3666 11.4661C17.3666 10.7664 16.7854 10.1992 16.0682 10.1992Z" fill="#31CE6F"/>
<path fill-rule="evenodd" clip-rule="evenodd" d="M30 20.6425C30 16.6831 26.0754 13.6503 21.5224 13.6503C16.7016 13.6503 12.8566 16.7516 12.8566 20.7108C12.8566 24.6773 16.5138 27.9609 21.5279 27.9878C22.5372 27.9933 24.0403 27.7402 25.0539 27.3271C25.0539 27.3271 27.477 28.7605 27.6127 28.7499C27.7483 28.7393 27.8178 28.6345 27.8232 28.5446C27.8286 28.4547 27.0512 26.2173 27.0512 26.2173C29.1318 24.6276 30 22.8759 30 20.6425ZM18.3494 16.9355C17.715 16.9355 17.2008 17.4381 17.2008 18.0583C17.2008 18.6782 17.715 19.181 18.3494 19.181C18.9838 19.181 19.498 18.6784 19.498 18.0583C19.498 17.4381 18.9838 16.9355 18.3494 16.9355ZM24.4913 16.9355C23.8569 16.9355 23.3427 17.4381 23.3427 18.0583C23.3427 18.6782 23.8569 19.181 24.4913 19.181C25.1258 19.181 25.64 18.6784 25.64 18.0583C25.64 17.4381 25.1258 16.9355 24.4913 16.9355Z" fill="#31CE6F"/>
</svg>
