<svg width="32" height="33" viewBox="0 0 32 33" fill="none" xmlns="http://www.w3.org/2000/svg">
<path d="M30 15.2479C30 8.90792 23.7199 3.75 15.9999 3.75C8.28094 3.75 2 8.90792 2 15.2479C2 20.9317 6.98063 25.6917 13.7084 26.5918C14.1644 26.6912 14.7849 26.896 14.9419 27.2904C15.0831 27.6486 15.0342 28.2098 14.987 28.5716C14.987 28.5716 14.8227 29.5714 14.7873 29.7843C14.7264 30.1426 14.5061 31.1853 15.9999 30.5481C17.4942 29.9109 24.0626 25.7435 26.9998 22.322C29.0287 20.0704 30 17.7853 30 15.2479Z" fill="#2CCF54"/>
<path d="M13.1555 12.1744H12.1735C12.0229 12.1744 11.9005 12.2978 11.9005 12.4495V18.616C11.9005 18.7679 12.0229 18.8911 12.1735 18.8911H13.1555C13.306 18.8911 13.4281 18.7679 13.4281 18.616V12.4495C13.4281 12.2978 13.306 12.1744 13.1555 12.1744Z" fill="white"/>
<path d="M19.9146 12.1744H18.9326C18.7821 12.1744 18.66 12.2978 18.66 12.4495V16.1131L15.8645 12.2967C15.8128 12.2183 15.7289 12.1795 15.6374 12.1744H14.6557C14.5051 12.1744 14.3828 12.2978 14.3828 12.4495V18.616C14.3828 18.7679 14.5051 18.8911 14.6557 18.8911H15.6374C15.7883 18.8911 15.9104 18.7679 15.9104 18.616V14.9535L18.7093 18.7747C18.7596 18.8467 18.8449 18.8911 18.9326 18.8911H19.9146C20.0655 18.8911 20.1873 18.7679 20.1873 18.616V12.4495C20.1873 12.2978 20.0655 12.1744 19.9146 12.1744Z" fill="white"/>
<path d="M10.7883 17.347H8.12001V12.4499C8.12001 12.2977 7.9979 12.1742 7.8476 12.1742H6.86533C6.71477 12.1742 6.59265 12.2977 6.59265 12.4499V18.6153C6.59265 18.765 6.71423 18.8912 6.86506 18.8912H10.7883C10.9388 18.8912 11.0604 18.7675 11.0604 18.6153V17.6227C11.0604 17.4705 10.9388 17.347 10.7883 17.347Z" fill="white"/>
<path d="M25.3376 13.7184C25.4881 13.7184 25.6097 13.5953 25.6097 13.4428V12.4501C25.6097 12.2979 25.4881 12.1742 25.3376 12.1742H21.4146C21.264 12.1742 21.142 12.3002 21.142 12.4499V18.6156C21.142 18.7648 21.2636 18.8912 21.4141 18.8912H25.3376C25.4881 18.8912 25.6097 18.7675 25.6097 18.6156V17.6227C25.6097 17.4707 25.4881 17.347 25.3376 17.347H22.6696V16.3047H25.3376C25.4881 16.3047 25.6097 16.1813 25.6097 16.0291V15.0364C25.6097 14.8842 25.4881 14.7605 25.3376 14.7605H22.6696V13.7184H25.3376Z" fill="white"/>
</svg>
