<svg width="32" height="33" viewBox="0 0 32 33" fill="none" xmlns="http://www.w3.org/2000/svg">
<path d="M16 2.75C8.27812 2.75 2 9.02812 2 16.75C2 24.4719 8.27812 30.75 16 30.75C23.7219 30.75 30 24.4719 30 16.75C30 9.02812 23.7219 2.75 16 2.75Z" fill="#FC471E"/>
<path fill-rule="evenodd" clip-rule="evenodd" d="M20.0193 9.65951C20.0066 9.73984 20 9.82226 20 9.90626C20 10.7543 20.6716 11.4418 21.5 11.4418C22.3284 11.4418 23 10.7543 23 9.90626C23 9.05819 22.3284 8.3707 21.5 8.3707C21.1309 8.3707 20.7929 8.5072 20.5315 8.73359L16.6362 7.75L15.2283 13.5151C13.3554 13.6413 11.671 14.2219 10.4003 15.0985C10.0395 14.7363 9.54524 14.5129 9 14.5129C7.89543 14.5129 7 15.4296 7 16.5603C7 17.3473 7.43366 18.0305 8.06967 18.3732C8.02372 18.6174 8 18.8666 8 19.1196C8 22.2292 11.5817 24.75 16 24.75C20.4183 24.75 24 22.2292 24 19.1196C24 18.8666 23.9763 18.6174 23.9303 18.3732C24.5663 18.0305 25 17.3473 25 16.5603C25 15.4296 24.1046 14.5129 23 14.5129C22.4548 14.5129 21.9605 14.7363 21.5997 15.0985C20.2153 14.1435 18.3399 13.5397 16.2647 13.4923L17.3638 8.99143L20.0193 9.65951ZM12.5 19.6315C13.3284 19.6315 14 18.944 14 18.0959C14 17.2478 13.3284 16.5603 12.5 16.5603C11.6716 16.5603 11 17.2478 11 18.0959C11 18.944 11.6716 19.6315 12.5 19.6315ZM19.5 19.6315C20.3284 19.6315 21 18.944 21 18.0959C21 17.2478 20.3284 16.5603 19.5 16.5603C18.6716 16.5603 18 17.2478 18 18.0959C18 18.944 18.6716 19.6315 19.5 19.6315ZM12.7773 21.253C12.5476 21.0962 12.2372 21.1597 12.084 21.3949C11.9308 21.6302 11.9929 21.948 12.2226 22.1048C13.3107 22.8473 14.6554 23.2186 16 23.2186C17.3446 23.2186 18.6893 22.8473 19.7773 22.1048C20.0071 21.948 20.0692 21.6302 19.916 21.3949C19.7628 21.1597 19.4524 21.0962 19.2226 21.253C18.3025 21.8809 17.1513 22.1949 16 22.1949C15.3173 22.1949 14.6345 22.0845 14 21.8637C13.5646 21.7121 13.1518 21.5085 12.7773 21.253Z" fill="white"/>
</svg>
