<svg width="32" height="34" viewBox="0 0 32 34" fill="none" xmlns="http://www.w3.org/2000/svg">
<g filter="url(#filter0_d_49_6652)">
<path d="M2 12.7056C2 9.22078 2 7.4784 2.67818 6.14739C3.27473 4.97661 4.22661 4.02473 5.39739 3.42818C6.7284 2.75 8.47078 2.75 11.9556 2.75H20.0444C23.5292 2.75 25.2716 2.75 26.6026 3.42818C27.7734 4.02473 28.7253 4.97661 29.3218 6.14739C30 7.4784 30 9.22078 30 12.7056V20.7944C30 24.2792 30 26.0216 29.3218 27.3526C28.7253 28.5234 27.7734 29.4753 26.6026 30.0718C25.2716 30.75 23.5292 30.75 20.0444 30.75H11.9556C8.47078 30.75 6.7284 30.75 5.39739 30.0718C4.22661 29.4753 3.27473 28.5234 2.67818 27.3526C2 26.0216 2 24.2792 2 20.7944V12.7056Z" fill="white"/>
<path d="M22.0513 9.27295L16.0642 13.9454L9.94019 9.27295V9.27421L9.94758 9.28053V15.8232L15.9951 20.5966L22.0513 16.0075V9.27295Z" fill="#EA4335"/>
<path d="M23.6235 8.13639L22.0511 9.27292V16.0075L26.9987 12.209V9.92074C26.9987 9.92074 26.3981 6.65258 23.6235 8.13639Z" fill="#FBBC05"/>
<path d="M22.0511 16.0077V24.7426H25.8432C25.8432 24.7426 26.9222 24.6314 26.9999 23.4014V12.2091L22.0511 16.0077Z" fill="#34A853"/>
<path d="M9.94787 24.7499V15.8231L9.94019 15.8168L9.94787 24.7499Z" fill="#C5221F"/>
<path d="M9.94014 9.27429L8.37646 8.14407C5.60179 6.66026 5 9.92716 5 9.92716V12.2154L9.94014 15.8169V9.27429Z" fill="#C5221F"/>
<path d="M9.94019 9.27417V15.8168L9.94787 15.8231V9.28048L9.94019 9.27417Z" fill="#C5221F"/>
<path d="M5 12.2166V23.4089C5.07646 24.6401 6.15673 24.75 6.15673 24.75H9.94877L9.94014 15.8168L5 12.2166Z" fill="#4285F4"/>
</g>
<defs>
<filter id="filter0_d_49_6652" x="-2" y="-0.25" width="36" height="36" filterUnits="userSpaceOnUse" color-interpolation-filters="sRGB">
<feFlood flood-opacity="0" result="BackgroundImageFix"/>
<feColorMatrix in="SourceAlpha" type="matrix" values="0 0 0 0 0 0 0 0 0 0 0 0 0 0 0 0 0 0 127 0" result="hardAlpha"/>
<feOffset dy="1"/>
<feGaussianBlur stdDeviation="1"/>
<feColorMatrix type="matrix" values="0 0 0 0 0.0627451 0 0 0 0 0.0941176 0 0 0 0 0.156863 0 0 0 0.05 0"/>
<feBlend mode="normal" in2="BackgroundImageFix" result="effect1_dropShadow_49_6652"/>
<feBlend mode="normal" in="SourceGraphic" in2="effect1_dropShadow_49_6652" result="shape"/>
</filter>
</defs>
</svg>
