<svg
   width="32"
   height="32"
   viewBox="0 0 12.8 12.8"
   xmlns="http://www.w3.org/2000/svg">
  <path
     d="M 0.8,6.4 C 0.8,5.3845296 1.0501408,4.4474704 1.5504,3.5888 2.0506704,2.7301296 2.7301408,2.0506704 3.5888,1.5504 4.4474704,1.0501296 5.3845408,0.8 6.4,0.8 c 1.0154704,0 1.9525408,0.2501296 2.8112,0.7504 0.85867,0.5002704 1.538141,1.1797296 2.0384,2.0384 C 11.74987,4.4474704 12,5.3845296 12,6.4 12,7.4154704 11.74987,8.3525296 11.2496,9.2112 10.749341,10.06987 10.06987,10.74933 9.2112,11.2496 8.3525408,11.74987 7.4154704,12 6.4,12 5.3845408,12 4.4474704,11.74987 3.5888,11.2496 2.7301408,10.74933 2.0506704,10.06987 1.5504,9.2112 1.0501408,8.3525296 0.8,7.4154704 0.8,6.4 Z m 0.9296,0 c 0,1.1648 0.392,2.1914704 1.176,3.08 C 3.264,8.7781296 3.8314704,8.1098704 4.608,7.4752 5.3845408,6.8405296 6.1424,6.4410704 6.8816,6.2768 6.7696,6.0154704 6.6613408,5.7802704 6.5568,5.5712 5.2725408,5.9818704 3.8837408,6.1872 2.3904,6.1872 2.0992,6.1872 1.8826704,6.18347 1.7408,6.176 1.7408,6.20587 1.738941,6.2432 1.7352,6.288 1.73147,6.3328 1.7296,6.37013 1.7296,6.4 Z M 1.8752,5.2464 c 0.1642704,0.01493 0.4069408,0.0224 0.728,0.0224 1.2469408,0 2.4304,-0.168 3.5504,-0.504 C 5.5861408,3.7568 4.9626704,2.9168 4.2832,2.2448 3.6933408,2.5434704 3.1874704,2.9578704 2.7656,3.488 2.3437408,4.0181296 2.0469408,4.6042704 1.8752,5.2464 Z m 1.6688,4.8384 c 0.8437408,0.65707 1.7957408,0.9856 2.856,0.9856 0.5525408,0 1.1013408,-0.10453 1.6464,-0.3136 C 7.8970704,9.48 7.6058704,8.2442704 7.1728,7.0496 6.4858704,7.1989296 5.7933408,7.576 5.0952,8.1808 4.3970704,8.7856 3.88,9.4202704 3.544,10.0848 Z M 5.2576,1.8864 C 5.9146704,2.5658704 6.5232,3.4133296 7.0832,4.4288 8.0986704,4.0032 8.864,3.4618704 9.3792,2.8048 8.5130704,2.088 7.52,1.7296 6.4,1.7296 c -0.3808,0 -0.7616,0.05227 -1.1424,0.1568 z M 7.4864,5.224 c 0.112,0.2389296 0.2389408,0.5413296 0.3808,0.9072 0.5525408,-0.05227 1.1536,-0.0784 1.8032,-0.0784 0.462941,0 0.922141,0.0112 1.3776,0.0336 C 10.98827,5.0709296 10.6224,4.1674704 9.9504,3.376 9.4650704,4.1002704 8.6437408,4.7162704 7.4864,5.224 Z M 8.1472,6.9152 C 8.528,8.0202704 8.7856,9.1552 8.92,10.32 9.5098704,9.9392 9.9914704,9.4501296 10.3648,8.8528 10.738141,8.2554704 10.962141,7.6096 11.0368,6.9152 10.491741,6.87787 9.9952,6.8592 9.5472,6.8592 c -0.4106592,0 -0.8773296,0.01867 -1.4,0.056 z"
     id="path2"
     style="stroke-width:0.0112" fill="#100000"/>
</svg>
