<svg
   width="32"
   height="32"
   viewBox="5.368 13.434 0.68992 0.68984055"
   xmlns="http://www.w3.org/2000/svg">
  <path
     fill="#ffffff"
     d="m 5.8132481,13.772725 c -0.055351,-0.02958 -0.108349,-0.05677 -0.1625235,-0.08516 v 0.169848 c 0.057008,-0.03099 0.1170962,-0.05937 0.1627587,-0.08468 z"
     id="path572"
     style="stroke-width:0.0112" />
  <path
     fill="#e8e0e0"
     d="m 5.8132481,13.772725 c -0.055351,-0.02958 -0.1625235,-0.08516 -0.1625235,-0.08516 l 0.1428898,0.09604 c 1.13e-5,0 -0.026029,0.01444 0.019634,-0.01088 z"
     id="path574"
     style="stroke-width:0.0112" />
  <path
     fill="#cd201f"
     d="m 5.6611406,13.990363 c -0.1149683,-0.0021 -0.1542355,-0.004 -0.1783716,-0.009 -0.01633,-0.0033 -0.03052,-0.01064 -0.040925,-0.02128 -0.00804,-0.0081 -0.014437,-0.02034 -0.019398,-0.03739 -0.00426,-0.0142 -0.00591,-0.02602 -0.00828,-0.05488 -0.00362,-0.06514 -0.00448,-0.118395 0,-0.177901 0.0037,-0.03286 0.00549,-0.07187 0.030038,-0.09463 0.011592,-0.01065 0.025077,-0.01751 0.040219,-0.02034 0.023655,-0.0045 0.1244323,-0.008 0.2287605,-0.008 0.104093,0 0.2050948,0.0036 0.2287717,0.008 0.018917,0.0035 0.036658,0.01419 0.047074,0.02791 0.0224,0.03524 0.022792,0.07905 0.025066,0.113322 9.408e-4,0.01633 9.408e-4,0.109055 0,0.125384 -0.00354,0.05416 -0.00638,0.07333 -0.014426,0.0932 -0.00497,0.01254 -0.00922,0.01916 -0.016565,0.0265 a 0.07935216,0.07935216 0 0 1 -0.042112,0.02153 c -0.09949,0.0075 -0.1839716,0.0091 -0.279855,0.0076 z m 0.1523539,-0.217638 c -0.055351,-0.02958 -0.108349,-0.05701 -0.1625235,-0.0854 v 0.16986 c 0.057008,-0.03099 0.1171074,-0.05938 0.1627587,-0.08469 z"
     id="path576"
     style="stroke-width:0.0112" />
</svg>
