<?xml version="1.0" encoding="UTF-8" standalone="no"?>
<svg
   width="32"
   height="32"
   viewBox="0 0 3.2768 3.2774975"
   xmlns="http://www.w3.org/2000/svg">
  <path
     style="fill:#1a1918;fill-opacity:1;stroke:#3b7844;stroke-width:0.00775083;stroke-opacity:0.473684"
     d="M 0.20837026,2.6076715 V 2.444904 h 0.0627734 c 0.0725716,0 0.10661867,-0.012648 0.13531088,-0.050265 L 0.42539371,2.369808 V 1.6467508 c 0,-0.71545417 -1.6678e-4,-0.72332733 -0.0158926,-0.74877137 C 0.38203396,0.8535373 0.35155421,0.84048055 0.27527503,0.84048055 H 0.20837026 V 0.67378422 0.50708815 l 0.53613997,0.001995 0.53613977,0.001995 0.175927,0.65460915 c 0.09676,0.3600349 0.1798695,0.6559233 0.184688,0.6575295 0.00482,0.00161 0.00876,0.00133 0.00876,-6.222e-4 0,-0.0039 0.3265386,-1.20937508 0.3452907,-1.2747003 l 0.01168,-0.0406919 h 0.5307162 0.530716 v 0.16663491 0.16664305 h -0.062392 c -0.072269,0 -0.097231,0.0100021 -0.1290409,0.0517055 L 2.855279,0.92065576 V 1.6434564 c 0,0.7212492 3.36e-5,0.7228475 0.016215,0.7446846 0.033092,0.044663 0.061272,0.056763 0.132198,0.056763 H 3.068428 V 2.6076715 2.7704391 H 2.5607496 2.0530697 V 2.6076715 2.444904 H 2.1577061 2.2623424 V 1.7008234 c 0,-0.4232582 -0.00294,-0.74408055 -0.00683,-0.74408055 -0.00375,0 -0.020612,0.0497027 -0.037468,0.11044945 -0.016852,0.060747 -0.129712,0.468829 -0.2507959,0.9068482 L 1.7471007,2.7704391 H 1.5551731 c -0.1055605,0 -0.1919786,-8.717e-4 -0.1920407,-0.00193 -0.0015,-0.025668 -0.49624091,-1.80798325 -0.50244755,-1.81005218 -0.006781,-0.002257 -0.008995,0.18001618 -0.008995,0.74172808 V 2.444904 H 0.95632611 1.0609625 V 2.6076715 2.7704391 H 0.63466641 0.20837026 Z"
     id="path3467" />
</svg>
