<svg width="32" height="33" viewBox="0 0 32 33" fill="none" xmlns="http://www.w3.org/2000/svg">
<ellipse cx="10.5" cy="10.75" rx="8.5" ry="8" fill="#184AA9"/>
<circle cx="22" cy="22.75" r="8" fill="#2173F0"/>
<circle cx="16" cy="16.75" r="13" fill="url(#paint0_linear_49_5592)"/>
<path d="M16.0688 9.75C18.1822 9.75 21 10.75 20.2955 12.0833C19.3327 13.9057 17.4777 12.0833 16.0688 12.0833C14.6598 12.0833 13.9554 12.75 13.9554 13.4167C13.9554 14.0833 14.3076 14.75 16.0688 15.4167C17.8299 16.0833 21 17.0833 21 19.75C21 22.4167 18.5344 23.75 15.3643 23.75C12.5245 23.75 10.4331 22.4167 11.1375 21.0833C11.9477 19.55 13.9554 21.4167 15.3643 21.4167C16.7732 21.4167 18.1822 21.0833 18.1822 19.75C18.1822 18.4167 16.0687 18.0833 14.6598 17.4167C12.8986 16.5833 11.1375 15.75 11.1375 13.4167C11.1375 11.0833 13.9554 9.75 16.0688 9.75Z" fill="white"/>
<defs>
<linearGradient id="paint0_linear_49_5592" x1="5.88889" y1="8.80556" x2="25.3889" y2="25.0556" gradientUnits="userSpaceOnUse">
<stop stop-color="#297AC0"/>
<stop offset="1" stop-color="#48B0F9"/>
</linearGradient>
</defs>
</svg>
