<?xml version="1.0" encoding="UTF-8" standalone="no"?>
<svg
   viewBox="0 0 32 32"
   width="32"
   height="32"
   version="1.1"
   id="svg576"
   sodipodi:docname="socialSignal.svg"
   inkscape:version="1.2.1 (9c6d41e410, 2022-07-14)"
   xmlns:inkscape="http://www.inkscape.org/namespaces/inkscape"
   xmlns:sodipodi="http://sodipodi.sourceforge.net/DTD/sodipodi-0.dtd"
   xmlns="http://www.w3.org/2000/svg"
   xmlns:svg="http://www.w3.org/2000/svg">
  <defs
     id="defs580" />
  <sodipodi:namedview
     id="namedview578"
     pagecolor="#ffffff"
     bordercolor="#000000"
     borderopacity="0.25"
     inkscape:showpageshadow="2"
     inkscape:pageopacity="0.0"
     inkscape:pagecheckerboard="0"
     inkscape:deskcolor="#d1d1d1"
     showgrid="false"
     inkscape:zoom="3.0530808"
     inkscape:cx="135.10943"
     inkscape:cy="31.771186"
     inkscape:window-width="1920"
     inkscape:window-height="1009"
     inkscape:window-x="1912"
     inkscape:window-y="-8"
     inkscape:window-maximized="1"
     inkscape:current-layer="svg576" />
  <path
     fill="#2196f3"
     d="M 4.3333333,2 H 27.666667 C 28.955444,2 30,3.0445556 30,4.3333333 V 27.666667 C 30,28.955444 28.955444,30 27.666667,30 H 4.3333333 C 3.0445556,30 2,28.955444 2,27.666667 V 4.3333333 C 2,3.0445556 3.0445556,2 4.3333333,2 Z"
     id="path566"
     style="stroke-width:0.777778" />
  <path
     fill="#b3e5fc"
     d="m 8.222222,28.055556 c -0.07311,0 -0.146222,-0.021 -0.209222,-0.06067 C 7.92122,27.936556 7.858222,27.841664 7.838778,27.73433 L 7.499667,25.819441 8.265,25.684108 l 0.265222,1.496445 1.467667,-0.394334 0.202222,0.751334 -1.877555,0.504 c -0.03267,0.0093 -0.06689,0.014 -0.100334,0.014 z"
     id="path568"
     style="stroke-width:0.777778" />
  <path
     fill="#b3e5fc"
     d="M 7.210333,24.476222 C 6.977,23.689889 6.632444,22.984444 6.186,22.378556 5.9682222,22.083 5.7652222,21.778889 5.577,21.467 l 0.666556,-0.401333 c 0.175,0.291666 0.365555,0.575555 0.567777,0.851666 0.500889,0.678223 0.885889,1.464556 1.144889,2.338 z M 4.9018889,20.165778 C 4.4056667,19.037222 4.0992222,17.848 3.9895556,16.63 l 0.7746666,-0.07 c 0.1018889,1.134 0.3881111,2.241556 0.8501111,3.292333 z"
     id="path570"
     style="stroke-width:0.777778" />
  <path
     fill="#b3e5fc"
     d="m 16.466667,27.269222 -0.02878,-0.777 c 1.149555,-0.04278 2.278111,-0.252778 3.354555,-0.624555 l 0.253556,0.735 c -1.148778,0.396666 -2.353556,0.621444 -3.579333,0.666555 z m -1.462223,-0.03111 c -0.230222,-0.01867 -0.458888,-0.04356 -0.686777,-0.07544 -0.987,-0.134556 -1.903223,-0.126 -2.737778,0.028 l -0.141556,-0.764556 c 0.916223,-0.168778 1.914111,-0.179667 2.985111,-0.03344 0.212334,0.02956 0.427778,0.05289 0.642445,0.07 z M 21.397,26.044222 21.056333,25.345 c 1.032889,-0.501667 1.977889,-1.151889 2.809334,-1.932778 l 0.533555,0.567 c -0.889,0.834556 -1.899333,1.529111 -3.002222,2.065 z m 4.004778,-3.131333 -0.598889,-0.497778 c 0.736555,-0.885889 1.321444,-1.869778 1.739111,-2.925222 l 0.723333,0.286222 c -0.448,1.132445 -1.074111,2.187111 -1.863555,3.136778 z M 27.715667,18.38 26.960444,18.190222 c 0.210778,-0.835333 0.316556,-1.697111 0.316556,-2.562 0,-0.277666 -0.01089,-0.553 -0.03189,-0.825222 l 0.774667,-0.06067 c 0.02255,0.292445 0.035,0.587223 0.035,0.885889 7.78e-4,0.928667 -0.113556,1.854222 -0.339111,2.751778 z M 4.7315556,15.188778 3.9537778,15.156889 C 4.0043333,13.928 4.2547778,12.725556 4.695,11.580667 l 0.7264444,0.279222 C 5.0107778,12.925444 4.7782222,14.045444 4.7315556,15.188778 Z M 27.051444,13.452 C 26.815,12.339778 26.400444,11.273444 25.818667,10.283333 L 26.488333,9.889 c 0.625334,1.063222 1.070223,2.207333 1.323778,3.402 z M 5.9907778,10.620111 5.3071111,10.249889 C 5.8865556,9.178889 6.631667,8.204333 7.522222,7.352667 L 8.059667,7.915 C 7.228222,8.709889 6.531333,9.619889 5.9907778,10.620111 Z M 25.052556,9.150889 C 24.357222,8.250222 23.525778,7.460778 22.580778,6.803556 L 23.024111,6.165 c 1.011111,0.702333 1.899333,1.547 2.642889,2.511444 z m -15.948334,-2.121 -0.465111,-0.623 C 9.616778,5.6765556 10.697111,5.0978889 11.851333,4.688 l 0.261334,0.7326667 c -1.081111,0.385 -2.093,0.9255553 -3.008445,1.6092223 z M 21.411,6.091111 C 20.401444,5.556 19.318778,5.1764444 18.191,4.9617778 L 18.337222,4.198 C 19.540444,4.4274444 20.697,4.8334444 21.775778,5.4043333 Z M 13.427889,5.0411111 13.256,4.282 C 14.437444,4.0152222 15.683444,3.9234444 16.887444,4.009 L 16.833,4.7844444 c -1.127778,-0.078556 -2.297556,0.007 -3.405111,0.2566667 z"
     id="path572"
     style="stroke-width:0.777778" />
  <path
     fill="#ffffff"
     d="m 16,6.700111 c -5.154333,0 -9.333333,3.997 -9.333333,8.927333 0,2.640556 1.205555,5.006556 3.111111,6.640667 v 3.065222 L 12.584,23.930222 c 1.059333,0.399 2.208889,0.625334 3.416,0.625334 5.154333,0 9.333333,-3.997 9.333333,-8.927334 0,-4.931111 -4.179,-8.928111 -9.333333,-8.928111 z"
     id="path574"
     style="stroke-width:0.777778" />
</svg>
