<svg
   width="32"
   height="32"
   viewBox="0 0 8.4666662 8.4666662"
   xmlns="http://www.w3.org/2000/svg">
  <path
     d="m 4.2333334,7.9375 v 0 c -2.0457701,0 -3.70416673,-1.6583965 -3.70416673,-3.7041666 v 0 c 0,-2.0457701 1.65839663,-3.70416673 3.70416673,-3.70416673 v 0 c 2.0457701,0 3.7041666,1.65839663 3.7041666,3.70416673 v 0 C 7.9375,6.2791035 6.2791035,7.9375 4.2333334,7.9375 Z"
     style="opacity:1;fill:#00aff0;fill-rule:nonzero;stroke:none;stroke-width:0.0823148;stroke-linecap:butt;stroke-linejoin:miter;stroke-miterlimit:10;stroke-dasharray:none"
     stroke-linecap="round"
     id="path134" />
  <path
     d="m 3.2729664,2.4773114 c -1.0607087,0 -1.9206516,0.8598606 -1.9206516,1.9206516 0,1.060791 0.8599429,1.9206516 1.9206516,1.9206516 1.0607087,0 1.9207339,-0.8598606 1.9207339,-1.9206516 0,-1.060791 -0.8599429,-1.9206516 -1.9207339,-1.9206516 z m 0,2.4968553 c -0.3182291,0 -0.5762037,-0.2579746 -0.5762037,-0.5762037 0,-0.3182291 0.2579746,-0.5762037 0.5762037,-0.5762037 0.3182291,0 0.5762037,0.2579746 0.5762037,0.5762037 4.116e-4,0.3178175 -0.2568222,0.5757921 -0.5746397,0.5762037 -4.939e-4,0 -9.878e-4,0 -0.00156,0 z"
     style="opacity:1;fill:#cceffc;fill-rule:nonzero;stroke:none;stroke-width:0.0823148;stroke-linecap:butt;stroke-linejoin:miter;stroke-miterlimit:10;stroke-dasharray:none"
     stroke-linecap="round"
     id="path136" />
  <path
     d="m 5.4318371,3.9178207 c 0.4880445,0.1404291 1.0640836,0 1.0640836,0 C 6.3287393,4.6477061 5.7986319,5.1048003 5.0341742,5.1604451 4.7311734,5.8636606 4.0387411,6.3191085 3.2729664,6.3186969 L 3.8491701,4.4872746 C 4.4415075,2.6048171 4.7451669,2.4773114 6.1498692,2.4773114 H 7.1143519 C 6.9530148,3.1879352 6.3969783,3.7308014 5.4318371,3.9178207 Z"
     style="opacity:1;fill:#ffffff;fill-rule:nonzero;stroke:none;stroke-width:0.0823148;stroke-linecap:butt;stroke-linejoin:miter;stroke-miterlimit:10;stroke-dasharray:none"
     stroke-linecap="round"
     id="path138" />
</svg>
