<svg width="32" height="33" viewBox="0 0 32 33" fill="none" xmlns="http://www.w3.org/2000/svg">
<rect x="2" y="2.75" width="28" height="28" rx="6" fill="url(#paint0_radial_49_5623)"/>
<rect x="2" y="2.75" width="28" height="28" rx="6" fill="url(#paint1_radial_49_5623)"/>
<rect x="2" y="2.75" width="28" height="28" rx="6" fill="url(#paint2_radial_49_5623)"/>
<path d="M23 11.25C23 12.0784 22.3284 12.75 21.5 12.75C20.6716 12.75 20 12.0784 20 11.25C20 10.4216 20.6716 9.75 21.5 9.75C22.3284 9.75 23 10.4216 23 11.25Z" fill="white"/>
<path fill-rule="evenodd" clip-rule="evenodd" d="M16 21.75C18.7614 21.75 21 19.5114 21 16.75C21 13.9886 18.7614 11.75 16 11.75C13.2386 11.75 11 13.9886 11 16.75C11 19.5114 13.2386 21.75 16 21.75ZM16 19.75C17.6569 19.75 19 18.4069 19 16.75C19 15.0931 17.6569 13.75 16 13.75C14.3431 13.75 13 15.0931 13 16.75C13 18.4069 14.3431 19.75 16 19.75Z" fill="white"/>
<path fill-rule="evenodd" clip-rule="evenodd" d="M6 16.35C6 12.9897 6 11.3095 6.65396 10.0261C7.2292 8.89708 8.14708 7.9792 9.27606 7.40396C10.5595 6.75 12.2397 6.75 15.6 6.75H16.4C19.7603 6.75 21.4405 6.75 22.7239 7.40396C23.8529 7.9792 24.7708 8.89708 25.346 10.0261C26 11.3095 26 12.9897 26 16.35V17.15C26 20.5103 26 22.1905 25.346 23.4739C24.7708 24.6029 23.8529 25.5208 22.7239 26.096C21.4405 26.75 19.7603 26.75 16.4 26.75H15.6C12.2397 26.75 10.5595 26.75 9.27606 26.096C8.14708 25.5208 7.2292 24.6029 6.65396 23.4739C6 22.1905 6 20.5103 6 17.15V16.35ZM15.6 8.75H16.4C18.1132 8.75 19.2777 8.75156 20.1779 8.8251C21.0548 8.89674 21.5032 9.02659 21.816 9.18597C22.5686 9.56947 23.1805 10.1814 23.564 10.934C23.7234 11.2468 23.8533 11.6952 23.9249 12.5721C23.9984 13.4723 24 14.6368 24 16.35V17.15C24 18.8632 23.9984 20.0277 23.9249 20.9279C23.8533 21.8048 23.7234 22.2532 23.564 22.566C23.1805 23.3186 22.5686 23.9305 21.816 24.314C21.5032 24.4734 21.0548 24.6033 20.1779 24.6749C19.2777 24.7484 18.1132 24.75 16.4 24.75H15.6C13.8868 24.75 12.7223 24.7484 11.8221 24.6749C10.9452 24.6033 10.4968 24.4734 10.184 24.314C9.43139 23.9305 8.81947 23.3186 8.43597 22.566C8.27659 22.2532 8.14674 21.8048 8.0751 20.9279C8.00156 20.0277 8 18.8632 8 17.15V16.35C8 14.6368 8.00156 13.4723 8.0751 12.5721C8.14674 11.6952 8.27659 11.2468 8.43597 10.934C8.81947 10.1814 9.43139 9.56947 10.184 9.18597C10.4968 9.02659 10.9452 8.89674 11.8221 8.8251C12.7223 8.75156 13.8868 8.75 15.6 8.75Z" fill="white"/>
<defs>
<radialGradient id="paint0_radial_49_5623" cx="0" cy="0" r="1" gradientUnits="userSpaceOnUse" gradientTransform="translate(12 23.75) rotate(-55.3758) scale(25.5196)">
<stop stop-color="#B13589"/>
<stop offset="0.79309" stop-color="#C62F94"/>
<stop offset="1" stop-color="#8A3AC8"/>
</radialGradient>
<radialGradient id="paint1_radial_49_5623" cx="0" cy="0" r="1" gradientUnits="userSpaceOnUse" gradientTransform="translate(11 31.75) rotate(-65.1363) scale(22.5942)">
<stop stop-color="#E0E8B7"/>
<stop offset="0.444662" stop-color="#FB8A2E"/>
<stop offset="0.71474" stop-color="#E2425C"/>
<stop offset="1" stop-color="#E2425C" stop-opacity="0"/>
</radialGradient>
<radialGradient id="paint2_radial_49_5623" cx="0" cy="0" r="1" gradientUnits="userSpaceOnUse" gradientTransform="translate(0.500002 3.75) rotate(-8.1301) scale(38.8909 8.31836)">
<stop offset="0.156701" stop-color="#406ADC"/>
<stop offset="0.467799" stop-color="#6A45BE"/>
<stop offset="1" stop-color="#6A45BE" stop-opacity="0"/>
</radialGradient>
</defs>
</svg>
