<svg width="32" height="33" viewBox="0 0 32 33" fill="none" xmlns="http://www.w3.org/2000/svg">
<rect x="2" y="2.75" width="28" height="28" rx="14" fill="#1275B1"/>
<path d="M12.6186 10.4421C12.6186 11.3767 11.8085 12.1343 10.8093 12.1343C9.81004 12.1343 9 11.3767 9 10.4421C9 9.5076 9.81004 8.75 10.8093 8.75C11.8085 8.75 12.6186 9.5076 12.6186 10.4421Z" fill="white"/>
<path d="M9.24742 13.3781H12.3402V22.75H9.24742V13.3781Z" fill="white"/>
<path d="M17.3196 13.3781H14.2268V22.75H17.3196C17.3196 22.75 17.3196 19.7996 17.3196 17.9549C17.3196 16.8476 17.6977 15.7355 19.2062 15.7355C20.911 15.7355 20.9008 17.1845 20.8928 18.3071C20.8824 19.7744 20.9072 21.2719 20.9072 22.75H24V17.8037C23.9738 14.6454 23.1508 13.1901 20.4433 13.1901C18.8354 13.1901 17.8387 13.9201 17.3196 14.5805V13.3781Z" fill="white"/>
</svg>
