<svg
   width="32"
   height="32"
   viewBox="0 0 32 32"
   xmlns="http://www.w3.org/2000/svg"
   >
<style
   type="text/css"
   id="style1033">
	.st0{fill:#1AB7EA;}
</style>
<path
   class="st0"
   d="m 29.986305,9.5077438 c -0.125469,2.7188682 -2.028789,6.4426082 -5.709959,11.1701002 -3.80664,4.93586 -7.028504,7.404911 -9.663352,7.404911 -1.631097,0 -3.012376,-1.505628 -4.141597,-4.518004 L 8.2129552,15.281557 C 7.3750016,12.268061 6.4754338,10.762434 5.5142518,10.762434 c -0.2094884,0 -0.9410174,0.439141 -2.1968275,1.317424 L 2,10.386027 C 3.3689562,9.1828688 4.7278301,7.9696285 6.0788622,6.7463059 7.9194474,5.1566587 9.2996062,4.3198255 10.220459,4.2369263 c 2.175542,-0.2094884 3.514252,1.2759747 4.016128,4.4552691 0.543325,3.4302326 0.920852,5.5643256 1.12922,6.4000386 0.627345,2.844337 1.317425,4.267065 2.070239,4.267065 0.585895,0 1.464178,-0.920852 2.635969,-2.761437 1.17179,-1.840586 1.799135,-3.242029 1.882034,-4.204332 0.166919,-1.589647 -0.460426,-2.38503 -1.882034,-2.38503 -0.668795,0 -1.359995,0.146753 -2.070239,0.439141 1.380159,-4.4765541 4.016128,-6.6509764 7.906787,-6.5255074 2.885786,0.084019 4.24466,1.9458895 4.077742,5.5856102 z"
   id="path1037"
   style="stroke-width:0.0112026" />
</svg>
