<svg
   width="32"
   height="32"
   viewBox="0 0 32 32"
   xmlns="http://www.w3.org/2000/svg">
  <style
     id="style282">.st0{fill:#1769ff}.st1{fill:#fff}</style>
  <circle
     class="st0"
     cx="16"
     cy="16"
     r="14"
     id="background"
     style="stroke-width:0.0112" />
  <path
     class="st1"
     d="m 11.89072,9.65632 c 0.60368,0 1.15472,0.05376 1.65312,0.16016 0.4984,0.1064 0.924,0.28112 1.27904,0.52416 0.35504,0.24304 0.63056,0.5656 0.82656,0.9688 0.196,0.4032 0.29344,0.90048 0.29344,1.49296 0,0.63952 -0.1456,1.17264 -0.43568,1.59936 -0.29008,0.42672 -0.72016,0.77616 -1.288,1.04832 0.78176,0.22512 1.36528,0.61936 1.75056,1.1816 0.38528,0.56224 0.57792,1.24096 0.57792,2.03504 0,0.63952 -0.12432,1.19392 -0.37296,1.66208 -0.24864,0.46816 -0.58352,0.85008 -1.00464,1.14576 -0.42112,0.2968 -0.90048,0.5152 -1.4392,0.65744 -0.54208,0.14224 -1.10096,0.21392 -1.66096,0.2128 H 5.92 V 9.65632 Z m -0.35504,5.1352 c 0.49728,0 0.90608,-0.11872 1.2264,-0.35504 0.32032,-0.23744 0.48048,-0.6216 0.47936,-1.15472 0,-0.29568 -0.05376,-0.53872 -0.16016,-0.728 -0.1064,-0.18928 -0.24864,-0.33824 -0.42672,-0.44464 -0.17808,-0.1064 -0.38192,-0.18032 -0.61264,-0.22176 -0.23744,-0.04144 -0.47824,-0.06272 -0.72016,-0.0616 H 8.71104 v 2.968 z m 0.16016,5.38384 c 0.2632,0.0011 0.52528,-0.02576 0.78176,-0.07952 0.24864,-0.05376 0.46816,-0.14224 0.65744,-0.26656 0.18928,-0.12432 0.34048,-0.29344 0.4536,-0.50624 0.112,-0.2128 0.16912,-0.48608 0.16912,-0.8176 0,-0.65072 -0.18368,-1.11664 -0.55104,-1.3944 -0.36736,-0.27888 -0.85344,-0.41776 -1.45712,-0.41776 H 8.71104 v 3.4832 z m 8.36192,-0.26656 c 0.37856,0.36736 0.924,0.55104 1.6352,0.55104 0.5096,0 0.94752,-0.12768 1.31488,-0.38192 0.36736,-0.25424 0.59248,-0.52416 0.67536,-0.80864 h 2.22096 c -0.35504,1.10208 -0.90048,1.88944 -1.6352,2.3632 -0.73472,0.47376 -1.62288,0.7112 -2.6656,0.7112 -0.7224,0 -1.37424,-0.11536 -1.9544,-0.34608 -0.58016,-0.23072 -1.07184,-0.56 -1.47504,-0.98672 -0.4032,-0.42672 -0.71456,-0.9352 -0.93296,-1.52768 -0.2184,-0.59248 -0.32816,-1.24432 -0.32816,-1.9544 0,-0.68656 0.112,-1.32608 0.33712,-1.91856 0.22512,-0.59248 0.54544,-1.10432 0.95984,-1.53664 0.4144,-0.43232 0.90944,-0.7728 1.484,-1.02144 0.57456,-0.24864 1.21184,-0.37296 1.91072,-0.37296 0.78176,0 1.46272,0.1512 2.044,0.4536 0.58016,0.3024 1.05728,0.70784 1.43024,1.21744 0.37296,0.5096 0.64288,1.08976 0.80864,1.7416 0.16576,0.65184 0.22512,1.3328 0.17808,2.044 h -6.62816 c 0.03472,0.81424 0.24192,1.40672 0.62048,1.77296 z M 22.9104,15.076 c -0.3024,-0.33152 -0.7616,-0.49728 -1.3776,-0.49728 -0.4032,0 -0.73808,0.06832 -1.00352,0.20384 -0.26656,0.13664 -0.47936,0.30464 -0.63952,0.50624 -0.16016,0.2016 -0.27216,0.4144 -0.33712,0.63952 -0.06496,0.22512 -0.10416,0.42672 -0.11536,0.60368 h 4.1048 c -0.11984,-0.6384 -0.3304,-1.12448 -0.63168,-1.456 z m -3.90544,-4.77568 h 5.12848 v 1.4224 h -5.12848 z"
     id="behance"
     style="stroke-width:0.0112" />
</svg>
