<svg width="32" height="33" viewBox="0 0 32 33" fill="none" xmlns="http://www.w3.org/2000/svg">
<path d="M2 12.35C2 8.98969 2 7.30953 2.65396 6.02606C3.2292 4.89708 4.14708 3.9792 5.27606 3.40396C6.55953 2.75 8.23969 2.75 11.6 2.75H20.4C23.7603 2.75 25.4405 2.75 26.7239 3.40396C27.8529 3.9792 28.7708 4.89708 29.346 6.02606C30 7.30953 30 8.98969 30 12.35V21.15C30 24.5103 30 26.1905 29.346 27.4739C28.7708 28.6029 27.8529 29.5208 26.7239 30.096C25.4405 30.75 23.7603 30.75 20.4 30.75H11.6C8.23969 30.75 6.55953 30.75 5.27606 30.096C4.14708 29.5208 3.2292 28.6029 2.65396 27.4739C2 26.1905 2 24.5103 2 21.15V12.35Z" fill="url(#paint0_linear_49_5594)"/>
<path d="M24.2752 10.7767C22.7615 9.49667 20.945 8.85667 19.0275 8.75L18.7248 9.07C20.4404 9.49667 21.9541 10.35 23.367 11.5233C21.6514 10.5633 19.7339 9.92333 17.7156 9.71C17.1101 9.60333 16.6055 9.60333 16 9.60333C15.3945 9.60333 14.8899 9.60333 14.2844 9.71C12.2661 9.92333 10.3486 10.5633 8.63303 11.5233C10.0459 10.35 11.5596 9.49667 13.2752 9.07L12.9725 8.75C11.055 8.85667 9.23853 9.49667 7.72477 10.7767C6.00917 14.19 5.10092 18.03 5 21.9767C6.51376 23.6833 8.63303 24.75 10.8532 24.75C10.8532 24.75 11.5596 23.8967 12.0642 23.15C10.7523 22.83 9.54128 22.0833 8.73395 20.91C9.44037 21.3367 10.1468 21.7633 10.8532 22.0833C11.7615 22.51 12.6697 22.7233 13.578 22.9367C14.3853 23.0433 15.1927 23.15 16 23.15C16.8073 23.15 17.6147 23.0433 18.422 22.9367C19.3303 22.7233 20.2385 22.51 21.1468 22.0833C21.8532 21.7633 22.5596 21.3367 23.2661 20.91C22.4587 22.0833 21.2477 22.83 19.9358 23.15C20.4404 23.8967 21.1468 24.75 21.1468 24.75C23.367 24.75 25.4862 23.6833 27 21.9767C26.8991 18.03 25.9908 14.19 24.2752 10.7767ZM12.6697 20.0567C11.6606 20.0567 10.7523 19.0967 10.7523 17.9233C10.7523 16.75 11.6606 15.79 12.6697 15.79C13.6789 15.79 14.5872 16.75 14.5872 17.9233C14.5872 19.0967 13.6789 20.0567 12.6697 20.0567ZM19.3303 20.0567C18.3211 20.0567 17.4128 19.0967 17.4128 17.9233C17.4128 16.75 18.3211 15.79 19.3303 15.79C20.3394 15.79 21.2477 16.75 21.2477 17.9233C21.2477 19.0967 20.3394 20.0567 19.3303 20.0567Z" fill="white"/>
<defs>
<linearGradient id="paint0_linear_49_5594" x1="16" y1="2.75" x2="16" y2="30.75" gradientUnits="userSpaceOnUse">
<stop stop-color="#687EC9"/>
<stop offset="1" stop-color="#5971C3"/>
</linearGradient>
</defs>
</svg>
