<svg width="32" height="33" viewBox="0 0 32 33" fill="none" xmlns="http://www.w3.org/2000/svg">
<path fill-rule="evenodd" clip-rule="evenodd" d="M15.9018 0.75H16.0982C19.4473 0.75 22.2866 1.41834 24.6333 2.67336C26.98 3.92837 28.8216 5.77004 30.0766 8.11672C31.3316 10.4634 32 13.3027 32 16.6518V16.8482C32 20.1973 31.3316 23.0366 30.0766 25.3833C28.8216 27.73 26.98 29.5716 24.6333 30.8266C22.2866 32.0816 19.4473 32.75 16.0982 32.75H15.9018C12.5527 32.75 9.71336 32.0816 7.36672 30.8266C5.02004 29.5716 3.17837 27.73 1.92336 25.3833C0.668344 23.0366 0 20.1973 0 16.8482V16.6518C0 13.3027 0.668344 10.4634 1.92336 8.11672C3.17837 5.77004 5.02004 3.92837 7.36672 2.67336C9.71336 1.41834 12.5527 0.75 15.9018 0.75Z" fill="#FAF8F9"/>
<path d="M12.8889 15.8611V20.3056H19.1111V15.8611H24V24.75H8V15.8611H12.8889ZM19.1111 8.75V13.1944H12.8889V8.75H19.1111Z" fill="black"/>
</svg>
