<svg width="32" height="33" viewBox="0 0 32 33" fill="none" xmlns="http://www.w3.org/2000/svg">
<circle cx="16" cy="16.75" r="14" fill="white"/>
<path d="M16 30.75C23.732 30.75 30 24.482 30 16.75C30 9.01801 23.732 2.75 16 2.75C8.26801 2.75 2 9.01801 2 16.75C2 22.4301 5.38269 27.3202 10.2435 29.5155C10.25 29.3641 10.2573 29.2252 10.2636 29.1061C10.2722 28.9438 10.2788 28.8182 10.2788 28.7476C10.2788 28.3269 10.5649 26.2404 10.5649 26.2404L12.3149 19.0553C12.0457 18.6178 11.8438 17.6923 11.8438 16.9856C11.8438 13.7211 13.6611 13.0144 14.7716 13.0144C16.1851 13.0144 16.5048 14.5457 16.5048 15.6731C16.5048 16.2694 16.1955 17.2028 15.8772 18.1634C15.5398 19.1814 15.1923 20.2299 15.1923 20.9399C15.1923 22.3197 16.5553 23.0096 17.4976 23.0096C19.988 23.0096 22.2764 19.8798 22.2764 16.75C22.2764 13.6202 20.8125 9.83412 16.0168 9.83412C11.2212 9.83412 9.06731 13.4856 9.06731 16.2788C9.06731 18.1634 9.77404 19.5433 10.1274 19.7788C10.2284 19.8686 10.4 20.1457 10.2788 20.536C10.1577 20.9264 9.9367 21.7981 9.84135 22.1851C9.83013 22.2748 9.72356 22.4274 9.38702 22.3197C8.96635 22.1851 6.29087 20.5024 6.29087 16.2788C6.29087 12.0553 9.60577 7.14182 16.0168 7.14182C22.4279 7.14182 25.7091 11.4495 25.7091 16.75C25.7091 22.0505 21.4183 25.4327 18.1538 25.4327C15.5423 25.4327 14.5192 24.266 14.3341 23.6827L13.3413 27.4687C13.1069 28.0968 12.6696 29.2257 12.1304 30.2083C13.3594 30.5611 14.6576 30.75 16 30.75Z" fill="#BB0F23"/>
</svg>
